<svg width="28" height="21" viewBox="0 0 28 21" fill="none" xmlns="http://www.w3.org/2000/svg">
<path d="M26.4997 9.74997H4.5172L11.1335 3.13367C11.2529 3.01837 11.3481 2.88047 11.4136 2.72797C11.4791 2.57547 11.5136 2.41147 11.515 2.24547C11.5165 2.07947 11.4849 1.91487 11.422 1.76127C11.3592 1.60767 11.2663 1.46807 11.149 1.35067C11.0316 1.23337 10.892 1.14057 10.7384 1.07767C10.5848 1.01487 10.4202 0.98317 10.2542 0.98467C10.0883 0.98607 9.9242 1.02057 9.7717 1.08607C9.6192 1.15157 9.4813 1.24677 9.366 1.36617L0.616 10.1162C0.3816 10.3506 0.25 10.6685 0.25 11C0.25 11.3314 0.3816 11.6493 0.616 11.8837L9.366 20.6337C9.6017 20.8614 9.9175 20.9874 10.2452 20.9846C10.573 20.9817 10.8865 20.8503 11.1183 20.6185C11.35 20.3867 11.4815 20.0732 11.4843 19.7455C11.4872 19.4177 11.3612 19.102 11.1335 18.8662L4.5172 12.25H26.4997C26.8313 12.25 27.1492 12.1183 27.3836 11.8839C27.618 11.6494 27.7497 11.3315 27.7497 11C27.7497 10.6685 27.618 10.3505 27.3836 10.1161C27.1492 9.88167 26.8313 9.74997 26.4997 9.74997Z" fill="#FFAF3E"/>
</svg>
