<svg width="55" height="55" viewBox="0 0 55 55" fill="none" xmlns="http://www.w3.org/2000/svg">
<g opacity="0.7">
<rect width="55" height="55" rx="27.5" transform="matrix(-1 0 0 1 55 0)" fill="white"/>
<path d="M31.8325 18.7127C32.0923 18.707 32.3473 18.7823 32.5623 18.9283C32.7772 19.0742 32.9414 19.2836 33.0319 19.5272C33.1223 19.7707 33.1347 20.0364 33.0672 20.2873C32.9997 20.5382 32.8557 20.7617 32.6553 20.927L25.0063 27.4797L32.6553 34.0301C32.7939 34.132 32.9101 34.2614 32.9964 34.4103C33.0827 34.5592 33.1374 34.7244 33.1569 34.8953C33.1765 35.0663 33.1605 35.2395 33.1101 35.404C33.0596 35.5685 32.9757 35.7209 32.8636 35.8515C32.7516 35.9821 32.6137 36.0881 32.4588 36.1629C32.3038 36.2378 32.1351 36.2799 31.9631 36.2865C31.7911 36.2931 31.6197 36.2643 31.4594 36.2016C31.2991 36.1389 31.1535 36.0438 31.0317 35.9222L22.2744 28.4294C22.1369 28.312 22.0265 28.1664 21.9507 28.0022C21.875 27.838 21.8358 27.6593 21.8358 27.4786C21.8358 27.2978 21.875 27.1191 21.9507 26.9549C22.0265 26.7907 22.1369 26.6449 22.2744 26.5276L31.0317 19.0276C31.253 18.8311 31.5367 18.7197 31.8325 18.7127Z" fill="#466F82"/>
</g>
</svg>
