<svg xmlns="http://www.w3.org/2000/svg" width="39" height="40" fill="none"><g fill="#FFAF3E" clip-path="url(#a)"><path d="m26.448 23.444-5.438-4.078v-8.308a1.51 1.51 0 0 0-1.51-1.51 1.51 1.51 0 0 0-1.51 1.51v9.063c0 .476.223.924.604 1.208l6.041 4.532c.272.204.59.302.905.302.461 0 .914-.207 1.21-.606a1.508 1.508 0 0 0-.302-2.113Z"/><path d="M19.5.5C8.747.5 0 9.247 0 20s8.747 19.5 19.5 19.5S39 30.753 39 20 30.253.5 19.5.5Zm0 35.98c-9.085 0-16.48-7.395-16.48-16.48S10.416 3.52 19.5 3.52c9.087 0 16.48 7.395 16.48 16.48S28.584 36.48 19.5 36.48Z"/></g><defs><clipPath id="a"><path fill="#fff" d="M0 .5h39v39H0z"/></clipPath></defs></svg>