<svg xmlns="http://www.w3.org/2000/svg" width="39" height="40" fill="none"><path fill="#FFAF3E" fill-rule="evenodd" d="M19.5 2.531c-6.05 0-10.969 4.963-10.969 11.084 0 2.074.913 4.646 2.243 7.212 2.926 5.65 7.801 11.341 7.801 11.341a1.217 1.217 0 0 0 1.85 0s4.875-5.69 7.801-11.34c1.33-2.567 2.243-5.14 2.243-7.213 0-6.121-4.92-11.084-10.969-11.084Zm0 6.5a4.47 4.47 0 0 0-4.469 4.469 4.47 4.47 0 0 0 4.469 4.469 4.47 4.47 0 0 0 4.469-4.469A4.47 4.47 0 0 0 19.5 9.031Z" clip-rule="evenodd"/><path fill="#FFAF3E" fill-rule="evenodd" d="M27.274 28.738c1.321.396 2.41.887 3.162 1.462.488.37.845.733.845 1.175 0 .26-.148.496-.356.731-.344.389-.856.738-1.49 1.063-2.239 1.146-5.86 1.862-9.935 1.862s-7.696-.716-9.935-1.862c-.634-.325-1.146-.674-1.49-1.063-.208-.235-.356-.47-.356-.73 0-.443.357-.805.845-1.176.752-.575 1.84-1.066 3.162-1.462a1.22 1.22 0 0 0-.702-2.335c-2.012.606-3.575 1.436-4.514 2.354-.826.805-1.229 1.705-1.229 2.618 0 1.14.645 2.278 1.957 3.227 2.3 1.664 6.922 2.867 12.262 2.867 5.34 0 9.961-1.203 12.262-2.867 1.312-.949 1.957-2.086 1.957-3.227 0-.913-.403-1.813-1.229-2.618-.939-.918-2.502-1.748-4.514-2.355a1.22 1.22 0 0 0-.702 2.336Z" clip-rule="evenodd"/></svg>