<svg width="55" height="55" viewBox="0 0 55 55" fill="none" xmlns="http://www.w3.org/2000/svg">
<g opacity="0.7">
<rect width="55" height="55" rx="27.5" fill="white"/>
<path d="M23.1675 18.7127C22.9077 18.707 22.6527 18.7823 22.4377 18.9283C22.2228 19.0742 22.0586 19.2836 21.9681 19.5272C21.8777 19.7707 21.8653 20.0364 21.9328 20.2873C22.0003 20.5382 22.1443 20.7617 22.3447 20.927L29.9937 27.4797L22.3447 34.0301C22.2061 34.132 22.0899 34.2614 22.0036 34.4103C21.9173 34.5592 21.8626 34.7244 21.8431 34.8953C21.8235 35.0663 21.8395 35.2395 21.8899 35.404C21.9404 35.5685 22.0243 35.7209 22.1364 35.8515C22.2484 35.9821 22.3863 36.0881 22.5412 36.1629C22.6962 36.2378 22.8649 36.2799 23.0369 36.2865C23.2089 36.2931 23.3803 36.2643 23.5406 36.2016C23.7009 36.1389 23.8465 36.0438 23.9683 35.9222L32.7256 28.4294C32.8631 28.312 32.9735 28.1664 33.0493 28.0022C33.125 27.838 33.1642 27.6593 33.1642 27.4786C33.1642 27.2978 33.125 27.1191 33.0493 26.9549C32.9735 26.7907 32.8631 26.6449 32.7256 26.5276L23.9683 19.0276C23.747 18.8311 23.4633 18.7197 23.1675 18.7127Z" fill="#466F82"/>
</g>
</svg>
