<svg width="28" height="21" viewBox="0 0 28 21" fill="none" xmlns="http://www.w3.org/2000/svg">
<path d="M1.5003 9.74997H23.4828L16.8665 3.13367C16.7471 3.01837 16.6519 2.88047 16.5864 2.72797C16.5209 2.57547 16.4864 2.41147 16.485 2.24547C16.4835 2.07947 16.5151 1.91487 16.578 1.76127C16.6408 1.60767 16.7337 1.46807 16.851 1.35067C16.9684 1.23337 17.108 1.14057 17.2616 1.07767C17.4152 1.01487 17.5798 0.98317 17.7458 0.98467C17.9117 0.98607 18.0758 1.02057 18.2283 1.08607C18.3808 1.15157 18.5187 1.24677 18.634 1.36617L27.384 10.1162C27.6184 10.3506 27.75 10.6685 27.75 11C27.75 11.3314 27.6184 11.6493 27.384 11.8837L18.634 20.6337C18.3983 20.8614 18.0825 20.9874 17.7548 20.9846C17.427 20.9817 17.1135 20.8503 16.8817 20.6185C16.65 20.3867 16.5185 20.0732 16.5157 19.7455C16.5128 19.4177 16.6388 19.102 16.8665 18.8662L23.4828 12.25H1.5003C1.1687 12.25 0.850801 12.1183 0.616402 11.8839C0.382002 11.6494 0.250301 11.3315 0.250301 11C0.250301 10.6685 0.382002 10.3505 0.616402 10.1161C0.850801 9.88167 1.1687 9.74997 1.5003 9.74997Z" fill="#FFAF3E"/>
</svg>
