<svg width="44" height="44" viewBox="0 0 44 44" fill="none" xmlns="http://www.w3.org/2000/svg">
<circle cx="22" cy="22" r="22" fill="white"/>
<g clip-path="url(#clip0_301_679)">
<path fill-rule="evenodd" clip-rule="evenodd" d="M28.7031 12C29.8077 12 30.7031 12.8954 30.7031 14V31C30.7031 32.1046 29.8077 33 28.7031 33H16.2969C15.1923 33 14.2969 32.1046 14.2969 31V14C14.2969 12.8954 15.1923 12 16.2969 12H28.7031ZM19.5469 28.7344C19.5469 28.1907 19.1062 27.75 18.5625 27.75C18.0188 27.75 17.5781 28.1907 17.5781 28.7344C17.5781 29.278 18.0188 29.7188 18.5625 29.7188C19.1062 29.7188 19.5469 29.278 19.5469 28.7344ZM23.4844 28.7344C23.4844 28.1907 23.0437 27.75 22.5 27.75C21.9563 27.75 21.5156 28.1907 21.5156 28.7344C21.5156 29.278 21.9563 29.7188 22.5 29.7188C23.0437 29.7188 23.4844 29.278 23.4844 28.7344ZM27.4219 28.7344C27.4219 28.1907 26.9812 27.75 26.4375 27.75C25.8938 27.75 25.4531 28.1907 25.4531 28.7344C25.4531 29.278 25.8938 29.7188 26.4375 29.7188C26.9812 29.7188 27.4219 29.278 27.4219 28.7344ZM19.5469 24.7969C19.5469 24.2532 19.1062 23.8125 18.5625 23.8125C18.0188 23.8125 17.5781 24.2532 17.5781 24.7969C17.5781 25.3405 18.0188 25.7812 18.5625 25.7812C19.1062 25.7812 19.5469 25.3405 19.5469 24.7969ZM23.4844 24.7969C23.4844 24.2532 23.0437 23.8125 22.5 23.8125C21.9563 23.8125 21.5156 24.2532 21.5156 24.7969C21.5156 25.3405 21.9563 25.7812 22.5 25.7812C23.0437 25.7812 23.4844 25.3405 23.4844 24.7969ZM27.4219 24.7969C27.4219 24.2532 26.9812 23.8125 26.4375 23.8125C25.8938 23.8125 25.4531 24.2532 25.4531 24.7969C25.4531 25.3405 25.8938 25.7812 26.4375 25.7812C26.9812 25.7812 27.4219 25.3405 27.4219 24.7969ZM19.5469 20.8594C19.5469 20.3157 19.1062 19.875 18.5625 19.875C18.0188 19.875 17.5781 20.3157 17.5781 20.8594C17.5781 21.403 18.0188 21.8438 18.5625 21.8438C19.1062 21.8438 19.5469 21.403 19.5469 20.8594ZM23.4844 20.8594C23.4844 20.3157 23.0437 19.875 22.5 19.875C21.9563 19.875 21.5156 20.3157 21.5156 20.8594C21.5156 21.403 21.9563 21.8438 22.5 21.8438C23.0437 21.8438 23.4844 21.403 23.4844 20.8594ZM27.4219 20.8594C27.4219 20.3157 26.9812 19.875 26.4375 19.875C25.8938 19.875 25.4531 20.3157 25.4531 20.8594C25.4531 21.403 25.8938 21.8438 26.4375 21.8438C26.9812 21.8438 27.4219 21.403 27.4219 20.8594ZM28.7344 15.9375C28.7344 14.8502 27.8529 13.9688 26.7656 13.9688H18.2344C17.1471 13.9688 16.2656 14.8502 16.2656 15.9375C16.2656 17.0248 17.1471 17.9062 18.2344 17.9062H26.7656C27.8529 17.9062 28.7344 17.0248 28.7344 15.9375Z" fill="#FFAF3E"/>
</g>
<defs>
<clipPath id="clip0_301_679">
<rect x="12" y="12" width="21" height="21" rx="2" fill="white"/>
</clipPath>
</defs>
</svg>
