<svg width="119" height="119" viewBox="0 0 119 119" fill="none" xmlns="http://www.w3.org/2000/svg">
<circle opacity="0.1" cx="59.5" cy="59.5" r="50.5" fill="#FFAF3E"/>
<circle opacity="0.2" cx="59.5" cy="59.5" r="59" stroke="#FFAF3E"/>
<circle cx="59.5" cy="59.5" r="38.5" fill="#FFAF3E"/>
<g clip-path="url(#clip0_302_1357)">
<path d="M75.794 39.0132H48.7112C44.5675 39.0132 42.4857 41.0128 42.4857 45.0314V56.1164C43.021 56.0582 43.5564 56.0194 44.0719 56.0194C44.6071 56.0194 45.1424 56.0582 45.6778 56.1164V50.603C45.6778 48.817 46.6691 47.8852 48.4139 47.8852H76.0519C77.8165 47.8852 78.8077 48.817 78.8077 50.603V68.9099C78.8077 70.7154 77.8165 71.6277 76.0519 71.6277H56.4237C56.166 72.7343 55.7298 73.7826 55.1548 74.7533H75.794C79.9377 74.7533 82 72.7343 82 68.7351V45.0314C82 41.0323 79.9377 39.0132 75.794 39.0132ZM60.2899 54.8545H61.4597C62.1535 54.8545 62.3717 54.6604 62.3717 53.9809V52.8355C62.3717 52.1561 62.1535 51.9425 61.4597 51.9425H60.2899C59.5959 51.9425 59.3581 52.1561 59.3581 52.8355V53.9809C59.3581 54.6604 59.5959 54.8545 60.2899 54.8545ZM65.9206 54.8545H67.0903C67.7843 54.8545 68.0023 54.6604 68.0023 53.9809V52.8355C68.0023 52.1561 67.7843 51.9425 67.0903 51.9425H65.9206C65.2267 51.9425 64.9887 52.1561 64.9887 52.8355V53.9809C64.9887 54.6604 65.2267 54.8545 65.9206 54.8545ZM71.5513 54.8545H72.7211C73.4149 54.8545 73.633 54.6604 73.633 53.9809V52.8355C73.633 52.1561 73.4149 51.9425 72.7211 51.9425H71.5513C70.8574 51.9425 70.6195 52.1561 70.6195 52.8355V53.9809C70.6195 54.6604 70.8574 54.8545 71.5513 54.8545ZM54.6592 61.2027H55.8289C56.5229 61.2027 56.7409 61.0086 56.7409 60.3291V59.1837C56.7409 58.5043 56.5229 58.3101 55.8289 58.3101H54.6592C53.9653 58.3101 53.7273 58.5043 53.7273 59.1837V60.3291C53.7273 61.0086 53.9653 61.2027 54.6592 61.2027ZM60.2899 61.2027H61.4597C62.1535 61.2027 62.3717 61.0086 62.3717 60.3291V59.1837C62.3717 58.5043 62.1535 58.3101 61.4597 58.3101H60.2899C59.5959 58.3101 59.3581 58.5043 59.3581 59.1837V60.3291C59.3581 61.0086 59.5959 61.2027 60.2899 61.2027ZM65.9206 61.2027H67.0903C67.7843 61.2027 68.0023 61.0086 68.0023 60.3291V59.1837C68.0023 58.5043 67.7843 58.3101 67.0903 58.3101H65.9206C65.2267 58.3101 64.9887 58.5043 64.9887 59.1837V60.3291C64.9887 61.0086 65.2267 61.2027 65.9206 61.2027ZM71.5513 61.2027H72.7211C73.4149 61.2027 73.633 61.0086 73.633 60.3291V59.1837C73.633 58.5043 73.4149 58.3101 72.7211 58.3101H71.5513C70.8574 58.3101 70.6195 58.5043 70.6195 59.1837V60.3291C70.6195 61.0086 70.8574 61.2027 71.5513 61.2027ZM44.0719 78.403C49.5439 78.403 54.1437 73.938 54.1437 68.541C54.1437 63.1441 49.6034 58.679 44.0719 58.679C38.5601 58.679 34 63.1441 34 68.541C34 73.9767 38.5601 78.403 44.0719 78.403ZM44.0917 74.9475C43.3977 74.9475 42.7831 74.4815 42.7831 73.7632V69.7253H38.9963C38.3221 69.7253 37.767 69.1816 37.767 68.541C37.767 67.9004 38.3221 67.3568 38.9963 67.3568H42.7831V63.3382C42.7831 62.6005 43.3977 62.1346 44.0917 62.1346C44.7658 62.1346 45.3804 62.6005 45.3804 63.3382V67.3568H49.1672C49.8414 67.3568 50.3767 67.9004 50.3767 68.541C50.3767 69.1816 49.8414 69.7253 49.1672 69.7253H45.3804V73.7632C45.3804 74.4815 44.7658 74.9475 44.0917 74.9475ZM60.2899 67.5704H61.4597C62.1535 67.5704 62.3717 67.3568 62.3717 66.6773V65.5319C62.3717 64.8524 62.1535 64.6583 61.4597 64.6583H60.2899C59.5959 64.6583 59.3581 64.8524 59.3581 65.5319V66.6773C59.3581 67.3568 59.5959 67.5704 60.2899 67.5704ZM65.9206 67.5704H67.0903C67.7843 67.5704 68.0023 67.3568 68.0023 66.6773V65.5319C68.0023 64.8524 67.7843 64.6583 67.0903 64.6583H65.9206C65.2267 64.6583 64.9887 64.8524 64.9887 65.5319V66.6773C64.9887 67.3568 65.2267 67.5704 65.9206 67.5704Z" fill="white"/>
<ellipse cx="44.4521" cy="67.2177" rx="8.90323" ry="8.71774" fill="white"/>
<path d="M41.3701 73H39.4087V67.6299C39.4087 67.4818 39.4108 67.2998 39.415 67.084C39.4193 66.8639 39.4256 66.6396 39.4341 66.4111C39.4425 66.1784 39.451 65.9689 39.4595 65.7827C39.4129 65.8377 39.3177 65.9329 39.1738 66.0684C39.0342 66.1995 38.903 66.318 38.7803 66.4238L37.7139 67.2808L36.7681 66.1001L39.7578 63.7197H41.3701V73ZM50.3965 68.3599C50.3965 69.1089 50.3372 69.7775 50.2188 70.3657C50.1045 70.9539 49.9183 71.4533 49.6602 71.8638C49.4062 72.2743 49.0719 72.5874 48.6572 72.8032C48.2425 73.019 47.7389 73.127 47.1465 73.127C46.4017 73.127 45.7902 72.9386 45.312 72.562C44.8338 72.1812 44.4805 71.6353 44.252 70.9243C44.0234 70.2091 43.9092 69.3543 43.9092 68.3599C43.9092 67.3569 44.0129 66.5 44.2202 65.7891C44.4318 65.0739 44.7746 64.5259 45.2485 64.145C45.7225 63.7642 46.3551 63.5737 47.1465 63.5737C47.887 63.5737 48.4964 63.7642 48.9746 64.145C49.457 64.5216 49.8146 65.0675 50.0474 65.7827C50.2801 66.4937 50.3965 67.3527 50.3965 68.3599ZM45.8579 68.3599C45.8579 69.0666 45.896 69.6569 45.9722 70.1309C46.0526 70.6006 46.1859 70.9539 46.3721 71.1909C46.5583 71.4279 46.8164 71.5464 47.1465 71.5464C47.4723 71.5464 47.7284 71.43 47.9146 71.1973C48.105 70.9603 48.2404 70.6069 48.3208 70.1372C48.4012 69.6632 48.4414 69.0708 48.4414 68.3599C48.4414 67.6532 48.4012 67.0628 48.3208 66.5889C48.2404 66.1149 48.105 65.7594 47.9146 65.5225C47.7284 65.2812 47.4723 65.1606 47.1465 65.1606C46.8164 65.1606 46.5583 65.2812 46.3721 65.5225C46.1859 65.7594 46.0526 66.1149 45.9722 66.5889C45.896 67.0628 45.8579 67.6532 45.8579 68.3599Z" fill="#FFAF3E"/>
</g>
<defs>
<clipPath id="clip0_302_1357">
<rect width="48" height="47" fill="white" transform="translate(34 35)"/>
</clipPath>
</defs>
</svg>
