<svg width="119" height="119" viewBox="0 0 119 119" fill="none" xmlns="http://www.w3.org/2000/svg">
<circle opacity="0.1" cx="59.5" cy="59.5" r="50.5" fill="#FFAF3E"/>
<circle opacity="0.2" cx="59.5" cy="59.5" r="59" stroke="#FFAF3E"/>
<circle cx="59.5" cy="59.5" r="38.5" fill="#FFAF3E"/>
<g clip-path="url(#clip0_302_253)">
<path d="M82.7768 72.9435L74.7599 59.0572C74.5441 58.6835 74.0043 58.6966 73.801 59.0772C71.4763 63.4286 67.409 66.4618 62.729 67.5198C62.3704 67.6009 62.1946 68.008 62.3784 68.3264L69.4778 80.6229C70.1787 81.8368 71.9753 81.6681 72.446 80.3564L74.648 74.2214L81.0621 75.381C82.4354 75.6291 83.475 74.1528 82.7768 72.9435Z" fill="white"/>
<path d="M55.2712 67.5199C50.5896 66.4614 46.5229 63.4266 44.1993 59.0772C43.9959 58.6965 43.4561 58.6835 43.2403 59.0572L35.2233 72.9435C34.5257 74.1518 35.5638 75.6292 36.9379 75.381L43.352 74.2213L45.554 80.3564C46.0247 81.6676 47.8212 81.8371 48.5222 80.6228L55.6216 68.3263C55.8055 68.0079 55.6298 67.6009 55.2712 67.5199Z" fill="white"/>
<path d="M72.5776 56.5213V56.5212C74.3566 52.0279 73.7931 46.9536 71.0704 42.9473C65.2786 34.4248 52.7218 34.4271 46.932 42.9464C44.2087 46.9536 43.6448 52.0282 45.4237 56.5213C50.2957 68.8242 67.7287 68.7666 72.5776 56.5213ZM67.0248 50.7813L64.2042 53.5305L64.87 57.4126C65.1016 58.7629 63.6792 59.7712 62.4869 59.144L59.0006 57.3112L55.5143 59.1441C54.3119 59.7763 52.9014 58.7525 53.1312 57.4127L53.797 53.5306L50.9764 50.7814C50.0037 49.833 50.5415 48.1753 51.8866 47.9799L55.7845 47.4135L57.5276 43.8815C58.1288 42.6631 59.8717 42.6625 60.4733 43.8815L62.2164 47.4135L66.1142 47.9799C67.4588 48.1751 67.9981 49.8324 67.0248 50.7813Z" fill="white"/>
</g>
<defs>
<clipPath id="clip0_302_253">
<rect width="48" height="48" fill="white" transform="translate(35 35)"/>
</clipPath>
</defs>
</svg>
