<svg width="120" height="119" viewBox="0 0 120 119" fill="none" xmlns="http://www.w3.org/2000/svg">
<circle opacity="0.1" cx="60" cy="59.5" r="50.5" fill="#FFAF3E"/>
<circle opacity="0.2" cx="60" cy="59.5" r="59" stroke="#FFAF3E"/>
<circle cx="60" cy="59.5" r="38.5" fill="#FFAF3E"/>
<path d="M43.5 75.6278V43H50.7646H52.5977H66.86H68.7046H76.1313V75.6278H43.5ZM74.2878 73.7832V51.6227H45.3446V73.7821H74.2878V73.7832ZM74.2878 49.7781V44.8457H68.7057V46.772H66.8611V44.8457H52.5977V46.772H50.7646V44.8457H45.3446V49.7781H74.2878Z" fill="white"/>
<path d="M61.7617 69H58.7441V60.7383C58.7441 60.5104 58.7474 60.2305 58.7539 59.8984C58.7604 59.5599 58.7702 59.2148 58.7832 58.8633C58.7962 58.5052 58.8092 58.1829 58.8223 57.8965C58.7507 57.9811 58.6042 58.1276 58.3828 58.3359C58.168 58.5378 57.9661 58.7201 57.7773 58.8828L56.1367 60.2012L54.6816 58.3848L59.2812 54.7227H61.7617V69Z" fill="white"/>
</svg>
