<svg width="104" height="104" viewBox="0 0 104 104" fill="none" xmlns="http://www.w3.org/2000/svg">
<path d="M98.6026 35.121C97.2506 25.5634 89.9394 19.4066 80.413 18.6058C77.8234 18.3874 74.3394 18.9282 71.4378 20.1242C68.4114 11.2842 60.0394 5.2002 50.6898 5.2002C40.3626 5.2002 31.3874 12.6362 29.245 22.7138C26.3954 20.9978 22.4954 21.0082 21.9234 21.0082C13.7282 21.0082 6.7914 26.9362 5.4394 35.0898C5.2834 36.005 5.2002 36.9514 5.2002 37.9082V39.229C5.2002 50.5546 14.3626 59.7586 25.6258 59.7586H78.385C89.6378 59.769 98.8002 50.5546 98.8002 39.229V37.9082C98.8002 36.9722 98.7378 36.0362 98.6026 35.121ZM96.7618 39.229C96.7618 49.4314 88.5146 57.7306 78.3746 57.7306H25.6258C15.4858 57.7306 7.2386 49.4314 7.2386 39.229V37.9082C7.2386 37.0658 7.3114 36.2338 7.44659 35.433C8.6426 28.257 14.7266 23.0466 21.9234 23.0466C22.589 23.0466 23.2546 23.0882 23.8994 23.1818C25.865 23.4522 27.7578 24.1178 29.4634 25.1578C32.0218 26.7178 34.029 28.9954 35.2666 31.7514C35.4954 32.261 36.0986 32.4898 36.6082 32.261C37.1178 32.0322 37.3466 31.429 37.1178 30.9194C35.8074 28.0074 33.7378 25.5738 31.1066 23.8266C32.7914 14.3314 41.0802 7.249 50.6794 7.249C59.2802 7.249 66.945 12.9274 69.597 21.1434C65.957 23.3274 63.097 26.6658 61.5162 30.649C61.3082 31.169 61.5682 31.7618 62.0882 31.9698C62.6082 32.1778 63.201 31.9178 63.409 31.3978C64.917 27.5914 67.725 24.4298 71.3026 22.485C73.7882 21.133 76.6066 20.4154 79.4666 20.4154C88.0154 20.4154 95.3786 26.8634 96.585 35.4226C96.6994 36.2442 96.7618 37.0866 96.7618 37.929V39.229Z" fill="#FFAF3E"/>
<path d="M77.4699 65.8008C76.9083 65.8008 76.4507 66.2584 76.4507 66.82V87.0272C76.4507 87.5888 76.9083 88.0464 77.4699 88.0464C78.0315 88.0464 78.4891 87.5888 78.4891 87.0272V66.82C78.4891 66.2584 78.0315 65.8008 77.4699 65.8008Z" fill="#FFAF3E"/>
<path d="M77.4699 91.0518C76.9083 91.0518 76.4507 91.5094 76.4507 92.071V97.1254C76.4507 97.687 76.9083 98.1446 77.4699 98.1446C78.0315 98.1446 78.4891 97.687 78.4891 97.1254V92.071C78.4891 91.5094 78.0315 91.0518 77.4699 91.0518Z" fill="#FFAF3E"/>
<path d="M67.2257 83.5642C67.7873 83.5642 68.2449 83.1066 68.2449 82.545V67.3923C68.2449 66.8307 67.7873 66.373 67.2257 66.373C66.6641 66.373 66.2065 66.8307 66.2065 67.3923V82.545C66.2065 83.1066 66.6641 83.5642 67.2257 83.5642Z" fill="#FFAF3E"/>
<path d="M67.236 86.6631C66.6744 86.6631 66.2168 87.1207 66.2168 87.6823V97.7807C66.2168 98.3423 66.6744 98.7999 67.236 98.7999C67.7976 98.7999 68.2552 98.3423 68.2552 97.7807V87.6823C68.2552 87.1207 67.7976 86.6631 67.236 86.6631Z" fill="#FFAF3E"/>
<path d="M57.1276 65.8008C56.566 65.8008 56.1084 66.2584 56.1084 66.82V87.0272C56.1084 87.5888 56.566 88.0464 57.1276 88.0464C57.6892 88.0464 58.1468 87.5888 58.1468 87.0272V66.82C58.1364 66.2584 57.6892 65.8008 57.1276 65.8008Z" fill="#FFAF3E"/>
<path d="M57.1276 91.0518C56.566 91.0518 56.1084 91.5094 56.1084 92.071V97.1254C56.1084 97.687 56.566 98.1446 57.1276 98.1446C57.6892 98.1446 58.1468 97.687 58.1468 97.1254V92.071C58.1364 91.5094 57.6892 91.0518 57.1276 91.0518Z" fill="#FFAF3E"/>
<path d="M46.8732 83.5642C47.4348 83.5642 47.8924 83.1066 47.8924 82.545V67.3923C47.8924 66.8307 47.4348 66.373 46.8732 66.373C46.3116 66.373 45.854 66.8307 45.854 67.3923V82.545C45.8644 83.1066 46.3116 83.5642 46.8732 83.5642Z" fill="#FFAF3E"/>
<path d="M46.8937 86.6631C46.3321 86.6631 45.8745 87.1207 45.8745 87.6823V97.7807C45.8745 98.3423 46.3321 98.7999 46.8937 98.7999C47.4553 98.7999 47.9129 98.3423 47.9129 97.7807V87.6823C47.9025 87.1207 47.4553 86.6631 46.8937 86.6631Z" fill="#FFAF3E"/>
<path d="M36.7746 65.8008C36.213 65.8008 35.7554 66.2584 35.7554 66.82V87.0272C35.7554 87.5888 36.213 88.0464 36.7746 88.0464C37.3362 88.0464 37.7938 87.5888 37.7938 87.0272V66.82C37.7938 66.2584 37.3362 65.8008 36.7746 65.8008Z" fill="#FFAF3E"/>
<path d="M36.7746 91.0518C36.213 91.0518 35.7554 91.5094 35.7554 92.071V97.1254C35.7554 97.687 36.213 98.1446 36.7746 98.1446C37.3362 98.1446 37.7938 97.687 37.7938 97.1254V92.071C37.7938 91.5094 37.3362 91.0518 36.7746 91.0518Z" fill="#FFAF3E"/>
<path d="M26.5304 83.5642C27.092 83.5642 27.5496 83.1066 27.5496 82.545V67.3923C27.5496 66.8307 27.092 66.373 26.5304 66.373C25.9688 66.373 25.5112 66.8307 25.5112 67.3923V82.545C25.5112 83.1066 25.9688 83.5642 26.5304 83.5642Z" fill="#FFAF3E"/>
<path d="M26.5407 86.6631C25.9791 86.6631 25.5215 87.1207 25.5215 87.6823V97.7807C25.5215 98.3423 25.9791 98.7999 26.5407 98.7999C27.1023 98.7999 27.5599 98.3423 27.5599 97.7807V87.6823C27.5599 87.1207 27.1023 86.6631 26.5407 86.6631Z" fill="#FFAF3E"/>
</svg>
