<svg width="104" height="104" viewBox="0 0 104 104" fill="none" xmlns="http://www.w3.org/2000/svg">
<path d="M88.9783 58.124H61.8227C61.1756 58.124 60.6672 57.6156 60.6672 56.9684C60.6672 56.3213 61.1756 55.8129 61.8227 55.8129H88.9783C95.4725 55.8129 100.765 50.5204 100.765 44.0262C100.765 39.2422 97.8992 34.9667 93.4849 33.1409C92.9303 32.9098 92.6298 32.2858 92.8378 31.708C93.4849 29.836 93.7854 27.8484 93.7854 25.8609C93.7854 15.7613 85.5809 7.55688 75.4814 7.55688C69.2645 7.55688 63.5098 10.6769 60.1356 15.9C59.7889 16.4315 59.0725 16.5933 58.5409 16.2467C56.6458 15.0218 54.4272 14.3515 52.1392 14.3515C45.7374 14.3515 40.4449 19.5515 40.3525 25.9533C40.3525 26.3231 40.1676 26.6467 39.8903 26.8547C39.5898 27.0627 39.22 27.132 38.8734 27.0395C37.7872 26.716 36.6778 26.5542 35.5454 26.5542C31.524 26.5542 27.8263 28.5649 25.6307 31.9622C25.4689 32.2164 25.1916 32.4013 24.8912 32.4707C19.4138 33.5569 15.4156 38.4333 15.4156 44.0262C15.4156 46.0369 15.9472 48.0475 16.9178 49.7809C17.2183 50.3355 17.0334 51.052 16.4787 51.3524C15.924 51.6529 15.2076 51.468 14.9072 50.9133C13.7285 48.8102 13.1045 46.4298 13.1045 44.0031C13.1045 37.4627 17.6343 31.7773 23.9436 30.2982C26.5783 26.4849 30.8769 24.2431 35.5223 24.2431C36.4005 24.2431 37.2787 24.3124 38.1338 24.4742C38.9427 17.4715 44.9516 12.0173 52.1392 12.0173C54.4734 12.0173 56.7614 12.5951 58.8183 13.7044C62.7009 8.36577 68.8485 5.22266 75.4814 5.22266C86.8521 5.22266 96.0965 14.4671 96.0965 25.8378C96.0965 27.7329 95.8423 29.628 95.3338 31.4307C100.072 33.8111 103.076 38.6413 103.076 44.0262C103.076 51.7915 96.7436 58.124 88.9783 58.124Z" fill="#FFAF3E"/>
<path d="M85.9739 28.38C85.3268 28.38 84.8184 27.8715 84.8184 27.2244C84.8184 20.7995 79.5953 15.5533 73.1473 15.5533C72.5001 15.5533 71.9917 15.0449 71.9917 14.3977C71.9917 13.7506 72.5001 13.2422 73.1473 13.2422C80.8664 13.2422 87.1295 19.5053 87.1295 27.2244C87.1295 27.8715 86.621 28.38 85.9739 28.38Z" fill="#FFAF3E"/>
<path d="M55.3515 73.9325H11.3017C5.57014 73.9325 0.924805 69.264 0.924805 63.5556C0.924805 58.7947 4.20658 54.6116 8.80569 53.4791C10.747 50.7289 13.8901 49.1111 17.2644 49.1111C17.7959 49.1111 18.3275 49.1574 18.8359 49.2267C19.5986 44.2347 23.9204 40.3983 29.0972 40.3983C30.7381 40.3983 32.3097 40.768 33.7657 41.5076C36.6084 37.7636 40.9995 35.5449 45.7372 35.5449C54.0341 35.5449 60.7595 42.2934 60.7595 50.5671C60.7595 51.8614 60.5977 53.1556 60.2741 54.3805C63.6252 56.1831 65.7515 59.6729 65.7515 63.5325C65.7515 69.264 61.083 73.9325 55.3515 73.9325ZM17.2644 51.4223C14.5141 51.4223 11.9719 52.8089 10.4697 55.12C10.3079 55.3743 10.0306 55.5591 9.73014 55.6285C5.96303 56.3911 3.23592 59.7191 3.23592 63.5556C3.23592 68.016 6.86436 71.6214 11.3017 71.6214H55.3515C59.8119 71.6214 63.4172 67.9929 63.4172 63.5556C63.4172 60.2738 61.4528 57.3387 58.4253 56.0907C57.8706 55.8596 57.5701 55.2356 57.7781 54.6578C58.2172 53.3405 58.4484 51.9769 58.4484 50.5903C58.4484 43.5645 52.7399 37.8791 45.7372 37.8791C41.4155 37.8791 37.4172 40.0516 35.0599 43.68C34.7132 44.2116 33.9968 44.3734 33.4652 44.0267C32.171 43.1947 30.6457 42.7325 29.0972 42.7325C24.7061 42.7325 21.1008 46.2916 21.0315 50.6827C21.0315 51.0525 20.8466 51.376 20.5692 51.584C20.2688 51.792 19.899 51.8614 19.5524 51.7689C18.7897 51.5378 18.027 51.4223 17.2644 51.4223Z" fill="#FFAF3E"/>
<path d="M71.0901 84.4016C70.443 84.4016 69.9346 83.8932 69.9346 83.2461V74.7181C69.9346 74.0709 70.443 73.5625 71.0901 73.5625C71.7372 73.5625 72.2457 74.0709 72.2457 74.7181V83.2461C72.2457 83.8932 71.7372 84.4016 71.0901 84.4016Z" fill="#FFAF3E"/>
<path d="M74.7881 82.2749C74.5801 82.2749 74.3952 82.2286 74.2104 82.1131L66.8379 77.8606C66.2832 77.5371 66.0983 76.8437 66.4219 76.2891C66.7455 75.7344 67.4388 75.5495 67.9935 75.8731L75.3659 80.1255C75.9206 80.4491 76.1055 81.1424 75.7819 81.6971C75.5739 82.0669 75.181 82.2749 74.7881 82.2749Z" fill="#FFAF3E"/>
<path d="M67.4157 82.2749C67.0228 82.2749 66.6299 82.0669 66.4219 81.6971C66.0983 81.1424 66.2832 80.426 66.8379 80.1255L74.2104 75.8731C74.765 75.5495 75.4815 75.7344 75.7819 76.2891C76.1055 76.8437 75.9206 77.5602 75.3659 77.8606L67.9935 82.1131C67.8086 82.2286 67.6006 82.2749 67.4157 82.2749Z" fill="#FFAF3E"/>
<path d="M88.3772 75.2034C87.7301 75.2034 87.2217 74.6949 87.2217 74.0478V65.5198C87.2217 64.8727 87.7301 64.3643 88.3772 64.3643C89.0243 64.3643 89.5328 64.8727 89.5328 65.5198V74.0478C89.5328 74.6949 89.0243 75.2034 88.3772 75.2034Z" fill="#FFAF3E"/>
<path d="M92.0752 73.0766C91.8672 73.0766 91.6823 73.0304 91.4975 72.9148L84.125 68.6624C83.5703 68.3388 83.3855 67.6455 83.709 67.0908C84.0326 66.5362 84.7259 66.3513 85.2806 66.6748L92.653 70.9273C93.2077 71.2508 93.3926 71.9442 93.069 72.4988C92.861 72.8686 92.4681 73.0766 92.0752 73.0766Z" fill="#FFAF3E"/>
<path d="M84.7028 73.0766C84.3099 73.0766 83.917 72.8686 83.709 72.4988C83.3855 71.9442 83.5703 71.2277 84.125 70.9273L91.4975 66.6748C92.0521 66.3513 92.7686 66.5362 93.069 67.0908C93.3926 67.6455 93.2077 68.3619 92.653 68.6624L85.2806 72.9379C85.0957 73.0304 84.8877 73.0766 84.7028 73.0766Z" fill="#FFAF3E"/>
<path d="M17.7727 87.5673C17.1256 87.5673 16.6172 87.0589 16.6172 86.4118V78.6233C16.6172 77.9762 17.1256 77.4678 17.7727 77.4678C18.4199 77.4678 18.9283 77.9762 18.9283 78.6233V86.4118C18.9283 87.0358 18.4199 87.5673 17.7727 87.5673Z" fill="#FFAF3E"/>
<path d="M21.147 85.603C20.9621 85.603 20.7541 85.5568 20.5693 85.4412L13.8208 81.5354C13.2661 81.2119 13.0813 80.5185 13.4048 79.9639C13.7284 79.4092 14.4217 79.2243 14.9764 79.5479L21.7248 83.4537C22.2795 83.7772 22.4644 84.4705 22.1408 85.0252C21.9328 85.395 21.5399 85.603 21.147 85.603Z" fill="#FFAF3E"/>
<path d="M14.3986 85.6033C14.0057 85.6033 13.6128 85.3953 13.4048 85.0255C13.0813 84.4709 13.2661 83.7544 13.8208 83.454L20.5693 79.5713C21.1239 79.2478 21.8173 79.4327 22.1408 79.9873C22.4644 80.542 22.2795 81.2584 21.7248 81.5589L14.9764 85.4647C14.7915 85.5571 14.6066 85.6033 14.3986 85.6033Z" fill="#FFAF3E"/>
<path d="M32.7952 98.7763C32.1481 98.7763 31.6396 98.2679 31.6396 97.6208V89.8323C31.6396 89.1852 32.1481 88.6768 32.7952 88.6768C33.4423 88.6768 33.9508 89.1852 33.9508 89.8323V97.6208C33.9508 98.2448 33.4423 98.7763 32.7952 98.7763Z" fill="#FFAF3E"/>
<path d="M36.169 96.812C35.961 96.812 35.7761 96.7658 35.5912 96.6502L28.8428 92.7444C28.2881 92.4209 28.1032 91.7275 28.4268 91.1729C28.7503 90.6182 29.4437 90.4333 29.9983 90.7569L36.7468 94.6395C37.3015 94.9631 37.4863 95.6564 37.1628 96.2111C36.9548 96.604 36.5619 96.812 36.169 96.812Z" fill="#FFAF3E"/>
<path d="M29.4206 96.812C29.0277 96.812 28.6348 96.604 28.4268 96.2342C28.1032 95.6795 28.2881 94.9631 28.8428 94.6626L35.5912 90.7569C36.1459 90.4333 36.8392 90.6182 37.1628 91.1729C37.4863 91.7275 37.3015 92.444 36.7468 92.7444L29.9983 96.6502C29.8135 96.7658 29.6286 96.812 29.4206 96.812Z" fill="#FFAF3E"/>
<path d="M40.8841 85.372C40.237 85.372 39.7285 84.8636 39.7285 84.2165V76.428C39.7285 75.7809 40.237 75.2725 40.8841 75.2725C41.5312 75.2725 42.0396 75.7809 42.0396 76.428V84.2165C42.0396 84.8405 41.5312 85.372 40.8841 85.372Z" fill="#FFAF3E"/>
<path d="M44.2584 83.4077C44.0504 83.4077 43.8655 83.3615 43.6806 83.2459L36.9321 79.3401C36.3775 79.0166 36.1926 78.3232 36.5161 77.7686C36.8397 77.2139 37.533 77.029 38.0877 77.3526L44.8361 81.2352C45.3908 81.5588 45.5757 82.2521 45.2521 82.8068C45.0441 83.1997 44.6513 83.4077 44.2584 83.4077Z" fill="#FFAF3E"/>
<path d="M37.5099 83.4077C37.117 83.4077 36.7241 83.1997 36.5161 82.8299C36.1926 82.2752 36.3775 81.5588 36.9321 81.2583L43.6806 77.3526C44.2353 77.029 44.9286 77.2139 45.2521 77.7686C45.5757 78.3232 45.3908 79.0397 44.8361 79.3401L38.0877 83.2459C37.9028 83.3615 37.7179 83.4077 37.5099 83.4077Z" fill="#FFAF3E"/>
<path d="M40.8841 85.372C40.237 85.372 39.7285 84.8636 39.7285 84.2165V76.428C39.7285 75.7809 40.237 75.2725 40.8841 75.2725C41.5312 75.2725 42.0396 75.7809 42.0396 76.428V84.2165C42.0396 84.8405 41.5312 85.372 40.8841 85.372Z" fill="#FFAF3E"/>
<path d="M44.2584 83.4077C44.0504 83.4077 43.8655 83.3615 43.6806 83.2459L36.9321 79.3401C36.3775 79.0166 36.1926 78.3232 36.5161 77.7686C36.8397 77.2139 37.533 77.029 38.0877 77.3526L44.8361 81.2352C45.3908 81.5588 45.5757 82.2521 45.2521 82.8068C45.0441 83.1997 44.6513 83.4077 44.2584 83.4077Z" fill="#FFAF3E"/>
<path d="M37.5099 83.4077C37.117 83.4077 36.7241 83.1997 36.5161 82.8299C36.1926 82.2752 36.3775 81.5588 36.9321 81.2583L43.6806 77.3526C44.2353 77.029 44.9286 77.2139 45.2521 77.7686C45.5757 78.3232 45.3908 79.0397 44.8361 79.3401L38.0877 83.2459C37.9028 83.3615 37.7179 83.4077 37.5099 83.4077Z" fill="#FFAF3E"/>
<path d="M54.5193 94.8476C53.8722 94.8476 53.3638 94.3392 53.3638 93.692V85.9036C53.3638 85.2565 53.8722 84.748 54.5193 84.748C55.1664 84.748 55.6749 85.2565 55.6749 85.9036V93.692C55.6749 94.316 55.1664 94.8476 54.5193 94.8476Z" fill="#FFAF3E"/>
<path d="M57.8936 92.8833C57.6856 92.8833 57.5007 92.837 57.3158 92.7215L50.5674 88.8157C50.0127 88.4922 49.8278 87.7988 50.1514 87.2442C50.475 86.6895 51.1683 86.5046 51.723 86.8282L58.4714 90.7108C59.0261 91.0344 59.211 91.7277 58.8874 92.2824C58.6794 92.6753 58.2865 92.8833 57.8936 92.8833Z" fill="#FFAF3E"/>
<path d="M51.1452 92.8833C50.7523 92.8833 50.3594 92.6753 50.1514 92.3055C49.8278 91.7508 50.0127 91.0344 50.5674 90.7339L57.3158 86.8282C57.8705 86.5046 58.587 86.6895 58.8874 87.2442C59.1878 87.7988 59.0261 88.5153 58.4714 88.8157L51.723 92.7215C51.5381 92.837 51.3532 92.8833 51.1452 92.8833Z" fill="#FFAF3E"/>
<path d="M74.3948 70.1191C73.7477 70.1191 73.2393 69.6106 73.2393 68.9635V61.1751C73.2393 60.528 73.7477 60.0195 74.3948 60.0195C75.0419 60.0195 75.5504 60.528 75.5504 61.1751V68.9635C75.5504 69.5875 75.0419 70.1191 74.3948 70.1191Z" fill="#FFAF3E"/>
<path d="M77.7696 68.1538C77.5616 68.1538 77.3767 68.1076 77.1918 67.992L70.4434 64.0862C69.8887 63.7627 69.7038 63.0693 70.0274 62.5147C70.3509 61.96 71.0443 61.7751 71.5989 62.0987L78.3474 66.0044C78.902 66.328 79.0869 67.0213 78.7634 67.576C78.5554 67.9458 78.1625 68.1538 77.7696 68.1538Z" fill="#FFAF3E"/>
<path d="M71.0211 68.1538C70.6283 68.1538 70.2354 67.9458 70.0274 67.576C69.7038 67.0213 69.8887 66.3049 70.4434 66.0044L77.1918 62.0987C77.7465 61.7751 78.4629 61.96 78.7634 62.5147C79.0869 63.0693 78.902 63.7858 78.3474 64.0862L71.5989 67.992C71.414 68.1076 71.2291 68.1538 71.0211 68.1538Z" fill="#FFAF3E"/>
<path d="M82.4837 95.7724C81.8366 95.7724 81.3281 95.264 81.3281 94.6168V86.8284C81.3281 86.1813 81.8366 85.6729 82.4837 85.6729C83.1308 85.6729 83.6392 86.1813 83.6392 86.8284V94.6168C83.6392 95.2408 83.1308 95.7724 82.4837 95.7724Z" fill="#FFAF3E"/>
<path d="M85.8585 93.8071C85.6505 93.8071 85.4656 93.7609 85.2807 93.6453L78.5322 89.7395C77.9776 89.416 77.7927 88.7226 78.1162 88.168C78.4398 87.6133 79.1331 87.4284 79.6878 87.752L86.4362 91.6578C86.9909 91.9813 87.1758 92.6746 86.8522 93.2293C86.6442 93.5991 86.2514 93.8071 85.8585 93.8071Z" fill="#FFAF3E"/>
<path d="M79.11 93.8071C78.7171 93.8071 78.3242 93.5991 78.1162 93.2293C77.7927 92.6746 77.9776 91.9582 78.5322 91.6578L85.2807 87.752C85.8354 87.4284 86.5518 87.6133 86.8522 88.168C87.1758 88.7226 86.9909 89.4391 86.4362 89.7395L79.6878 93.6453C79.5029 93.7609 79.318 93.8071 79.11 93.8071Z" fill="#FFAF3E"/>
</svg>
