<svg width="82" height="82" viewBox="0 0 82 82" fill="none" xmlns="http://www.w3.org/2000/svg">
<g clip-path="url(#clip0_53_1755)">
<path d="M76.4032 20.5556C75.9902 19.8453 75.0793 19.6043 74.369 20.0173L67.1035 24.2171C66.3931 24.6301 66.1521 25.541 66.5651 26.2513C66.9781 26.9616 67.889 27.2027 68.5993 26.7897L75.8648 22.5898C76.5752 22.1766 76.8162 21.2659 76.4032 20.5556Z" fill="#FFAF3E"/>
<path d="M75.8648 59.4183L68.5993 55.2184C67.889 54.8054 66.9781 55.0465 66.5651 55.7568C66.1521 56.4671 66.3931 57.378 67.1035 57.791L74.369 61.9908C75.0793 62.4038 75.9902 62.1628 76.4032 61.4525C76.8162 60.742 76.5752 59.8313 75.8648 59.4183Z" fill="#FFAF3E"/>
<path d="M41.115 70.3987C40.291 70.3375 39.5737 70.9558 39.5125 71.7797C39.5069 71.8535 39.5069 71.9274 39.5125 72.0012V80.3927C39.4513 81.2167 40.0695 81.934 40.8935 81.9952C41.7174 82.0564 42.4347 81.4382 42.496 80.6142C42.5015 80.5405 42.5015 80.4665 42.496 80.3927V72.0012C42.557 71.1775 41.9387 70.4599 41.115 70.3987Z" fill="#FFAF3E"/>
<path d="M14.8966 24.2171L7.63105 20.0173C6.92073 19.6043 6.00986 19.8453 5.59686 20.5556C5.18386 21.2659 5.42488 22.1768 6.1352 22.5898L13.4007 26.7897C14.1111 27.2027 15.0219 26.9616 15.4349 26.2513C15.8479 25.5408 15.6069 24.6301 14.8966 24.2171Z" fill="#FFAF3E"/>
<path d="M41.1149 0.00418262C40.291 -0.0570484 39.5737 0.56122 39.5125 1.38517C39.5069 1.45893 39.5069 1.5329 39.5125 1.60667V9.99819C39.517 10.8178 40.1805 11.4813 41.0001 11.4858C41.8263 11.4858 42.4959 10.8162 42.4959 9.98997V1.60687C42.557 0.782926 41.9387 0.0654136 41.1149 0.00418262Z" fill="#FFAF3E"/>
<path d="M26.7814 13.4012L22.5898 6.13569C22.1768 5.42537 21.2659 5.18435 20.5556 5.59735C19.8453 6.01035 19.6043 6.92121 20.0173 7.63153L24.2089 14.8971C24.6219 15.6074 25.5328 15.8484 26.2431 15.4354C26.9534 15.0222 27.1944 14.1115 26.7814 13.4012Z" fill="#FFAF3E"/>
<path d="M41.2216 27.7268C41.1479 27.7213 41.0739 27.7213 41.0001 27.7268C33.6693 27.7268 27.7266 33.6695 27.7266 41.0004C27.7266 41.8266 28.3962 42.4962 29.2224 42.4962C30.0453 42.4917 30.71 41.8233 30.71 41.0004C30.7055 35.3219 35.3052 30.7148 40.9837 30.7103C40.9892 30.7103 40.9946 30.7103 41.0001 30.7103C41.8241 30.7715 42.5414 30.1532 42.6026 29.3293C42.6638 28.5054 42.0456 27.7878 41.2216 27.7268Z" fill="#FFAF3E"/>
<path d="M81.7742 40.8852C81.7193 40.1465 81.1321 39.559 80.3932 39.5042H72.0017C71.1777 39.443 70.4604 40.0612 70.3992 40.8852C70.338 41.7091 70.9562 42.4264 71.7802 42.4877C71.854 42.4932 71.9281 42.4932 72.0019 42.4877H80.3934C81.2172 42.4266 81.8354 41.7091 81.7742 40.8852Z" fill="#FFAF3E"/>
<path d="M10.2199 39.5129C10.1461 39.5074 10.0721 39.5074 9.99837 39.5129H1.60685C0.7829 39.5742 0.164631 40.2917 0.225862 41.1154C0.280724 41.8541 0.867966 42.4416 1.60685 42.4964H9.99837C10.8223 42.5577 11.5396 41.9394 11.6009 41.1154C11.6621 40.2915 11.0438 39.574 10.2199 39.5129Z" fill="#FFAF3E"/>
<path d="M41.0061 19.0469C28.882 19.0452 19.0521 28.8724 19.0503 40.9965C19.0495 46.8211 21.3635 52.4073 25.4826 56.5252C29.5939 60.6468 35.1785 62.9598 41 62.9524C53.1241 62.954 62.9541 53.1269 62.9558 41.0027C62.9574 28.8786 53.1303 19.0485 41.0061 19.0469ZM54.4132 54.4376C47.0053 61.8455 34.9946 61.8455 27.5867 54.4376C24.0232 50.874 22.0241 46.0391 22.0307 40.9996C22.0235 35.9672 24.0232 31.1396 27.5867 27.5863V27.611C34.9946 20.2031 47.0053 20.2031 54.4132 27.611C61.8214 35.0189 61.8214 47.0296 54.4132 54.4376Z" fill="#FFAF3E"/>
<path d="M61.9869 74.3756C61.9857 74.3733 61.9845 74.371 61.983 74.369L57.7832 67.1035C57.3702 66.3931 56.4593 66.1521 55.749 66.5651C55.0387 66.9781 54.7976 67.889 55.2106 68.5993L59.4105 75.8648C59.8219 76.5743 60.7301 76.817 61.4406 76.4073C62.1525 75.997 62.3973 75.0873 61.9869 74.3756Z" fill="#FFAF3E"/>
<path d="M61.4941 5.59735C60.7837 5.18435 59.8729 5.42537 59.4599 6.13569L55.26 13.4012C54.8441 14.1099 55.0817 15.0214 55.7901 15.437C55.7916 15.4379 55.7928 15.4387 55.7942 15.4395C56.5039 15.8533 57.4148 15.6135 57.8286 14.9036C57.8299 14.9014 57.8313 14.8991 57.8325 14.8971L62.0324 7.63153C62.4454 6.92101 62.2044 6.01035 61.4941 5.59735Z" fill="#FFAF3E"/>
<path d="M26.2513 66.5651C25.541 66.1521 24.6301 66.3931 24.2171 67.1035L20.0173 74.369C19.6043 75.0793 19.8453 75.9902 20.5556 76.4032C21.2659 76.8162 22.1768 76.5752 22.5898 75.8648L26.7897 68.5993C27.2027 67.8888 26.9616 66.9781 26.2513 66.5651Z" fill="#FFAF3E"/>
<path d="M15.4349 55.749C15.0219 55.0387 14.1111 54.7976 13.4007 55.2106L6.1352 59.4105C5.42488 59.8235 5.18386 60.7344 5.59686 61.4447C6.00986 62.155 6.92073 62.396 7.63105 61.983L14.8966 57.7832C15.6069 57.3699 15.8479 56.4593 15.4349 55.749Z" fill="#FFAF3E"/>
</g>
<defs>
<clipPath id="clip0_53_1755">
<rect width="82" height="82" fill="white"/>
</clipPath>
</defs>
</svg>
