<svg width="41" height="40" viewBox="0 0 41 40" fill="none" xmlns="http://www.w3.org/2000/svg">
<g clip-path="url(#clip0_320_227)">
<path d="M20.502 0C9.45665 0 0.501953 8.9547 0.501953 20.0001C0.501953 31.0454 9.45665 40.0001 20.502 40.0001C31.5474 40.0001 40.5021 31.0454 40.5021 20.0001C40.5021 8.9547 31.5474 0 20.502 0ZM25.2394 13.8214H22.2327C21.8767 13.8214 21.4807 14.2894 21.4807 14.9121V17.0841H25.2407L24.6727 20.1787H21.4807V29.4721H17.934V20.1787H14.714V17.0827H17.9327V15.2627C17.9327 12.6494 19.746 10.5267 22.2327 10.5267H25.2394V13.82V13.8214Z" fill="white"/>
</g>
<defs>
<clipPath id="clip0_320_227">
<rect width="40" height="40" fill="white" transform="translate(0.5)"/>
</clipPath>
</defs>
</svg>
