<svg width="114" height="127" viewBox="0 0 114 127" fill="none" xmlns="http://www.w3.org/2000/svg">
<g clip-path="url(#clip0_735_6250)">
<path d="M108.368 68.9313C113.939 64.8646 119.717 51.902 102.647 48.1585C90.3736 45.4901 82.1411 53.6077 76.3028 41.676C70.9548 30.7401 87.4525 10.902 69.4857 1.54094C62.8716 -1.91198 56.787 0.280908 57.4267 9.71456C58.6304 28.6217 46.3226 31.3261 37.1803 49.0072C28.4464 53.7459 21.3377 56.3483 12.5716 61.1952L-0.00195312 61.3176V116.298H11.6793L20.696 118.743C34.5206 125.47 51.5757 126.876 63.4468 126.876C70.5944 126.876 85.009 126.25 89.7023 122.763C95.0241 118.809 96.5627 112.467 97.0338 109.809C106.31 106.354 108.784 99.1495 105.385 91.3533C109.395 89.3027 111.887 86.5625 112.792 83.2099C114.65 76.3846 109.752 71.1559 108.368 68.9313Z" fill="#FFAF3E"/>
</g>
<defs>
<clipPath id="clip0_735_6250">
<rect width="114" height="127" fill="white"/>
</clipPath>
</defs>
</svg>
