<svg width="44" height="44" viewBox="0 0 44 44" fill="none" xmlns="http://www.w3.org/2000/svg">
<circle cx="22" cy="22" r="22" fill="white"/>
<path d="M14.8926 30.5903H30.1065C31.9434 30.5903 32.8663 29.6763 32.8663 27.8657V17.1343C32.8663 15.3237 31.9434 14.4097 30.1065 14.4097H14.8926C13.0645 14.4097 12.1328 15.3149 12.1328 17.1343V27.8657C12.1328 29.6851 13.0645 30.5903 14.8926 30.5903ZM26.7314 22.478C26.3359 22.1265 25.8877 21.9419 25.4131 21.9419C24.9209 21.9419 24.4902 22.1089 24.0859 22.4692L20.1133 26.02L18.4873 24.5434C18.1181 24.2182 17.7227 24.0425 17.3008 24.0425C16.9141 24.0425 16.5361 24.2095 16.1758 24.5347L13.5478 26.8989V17.2046C13.5478 16.2905 14.04 15.8247 14.919 15.8247H30.08C30.9502 15.8247 31.4511 16.2905 31.4511 17.2046V26.9077L26.7314 22.478ZM18.6806 22.5747C19.8145 22.5747 20.7461 21.6431 20.7461 20.5005C20.7461 19.3667 19.8145 18.4263 18.6806 18.4263C17.5381 18.4263 16.6065 19.3667 16.6065 20.5005C16.6065 21.6431 17.5381 22.5747 18.6806 22.5747Z" fill="#FFAF3E"/>
</svg>
