<svg width="30" height="30" viewBox="0 0 41 40" fill="none" xmlns="http://www.w3.org/2000/svg">
<g clip-path="url(#clip0_310_1437)">
<path d="M24.3281 20C24.3281 22.1143 22.6143 23.8281 20.5 23.8281C18.3857 23.8281 16.6719 22.1143 16.6719 20C16.6719 17.8857 18.3857 16.1719 20.5 16.1719C22.6143 16.1719 24.3281 17.8857 24.3281 20Z" fill="white"/>
<path d="M29.4519 13.2269C29.2679 12.7282 28.9743 12.2769 28.5928 11.9064C28.2224 11.5249 27.7713 11.2313 27.2723 11.0473C26.8677 10.8901 26.2598 10.7031 25.1401 10.6521C23.9288 10.5969 23.5657 10.585 20.4993 10.585C17.4326 10.585 17.0694 10.5966 15.8585 10.6518C14.7388 10.7031 14.1306 10.8901 13.7262 11.0473C13.2272 11.2313 12.7759 11.5249 12.4057 11.9064C12.0242 12.2769 11.7307 12.7279 11.5463 13.2269C11.3892 13.6315 11.2021 14.2397 11.1511 15.3594C11.0959 16.5704 11.084 16.9335 11.084 20.0002C11.084 23.0667 11.0959 23.4298 11.1511 24.6411C11.2021 25.7607 11.3892 26.3687 11.5463 26.7733C11.7307 27.2723 12.0239 27.7233 12.4054 28.0938C12.7759 28.4753 13.2269 28.7689 13.7259 28.9529C14.1306 29.1104 14.7388 29.2974 15.8585 29.3484C17.0694 29.4036 17.4323 29.4152 20.499 29.4152C23.566 29.4152 23.9291 29.4036 25.1398 29.3484C26.2595 29.2974 26.8677 29.1104 27.2723 28.9529C28.2739 28.5665 29.0656 27.7749 29.4519 26.7733C29.6091 26.3687 29.7961 25.7607 29.8474 24.6411C29.9026 23.4298 29.9142 23.0667 29.9142 20.0002C29.9142 16.9335 29.9026 16.5704 29.8474 15.3594C29.7964 14.2397 29.6094 13.6315 29.4519 13.2269ZM20.4993 25.8972C17.2421 25.8972 14.6017 23.2571 14.6017 19.9999C14.6017 16.7428 17.2421 14.1027 20.4993 14.1027C23.7561 14.1027 26.3965 16.7428 26.3965 19.9999C26.3965 23.2571 23.7561 25.8972 20.4993 25.8972ZM26.6296 15.2477C25.8685 15.2477 25.2515 14.6307 25.2515 13.8696C25.2515 13.1085 25.8685 12.4914 26.6296 12.4914C27.3907 12.4914 28.0078 13.1085 28.0078 13.8696C28.0075 14.6307 27.3907 15.2477 26.6296 15.2477Z" fill="white"/>
<path d="M20.5 0C9.45599 0 0.5 8.95599 0.5 20C0.5 31.044 9.45599 40 20.5 40C31.544 40 40.5 31.044 40.5 20C40.5 8.95599 31.544 0 20.5 0ZM31.9151 24.7348C31.8596 25.9573 31.6652 26.792 31.3813 27.5226C30.7847 29.0652 29.5652 30.2847 28.0226 30.8813C27.2923 31.1652 26.4573 31.3593 25.2351 31.4151C24.0104 31.4709 23.6192 31.4844 20.5003 31.4844C17.3811 31.4844 16.9902 31.4709 15.7652 31.4151C14.543 31.3593 13.708 31.1652 12.9777 30.8813C12.2111 30.593 11.5172 30.141 10.9434 29.5566C10.3593 28.9832 9.90735 28.2889 9.61896 27.5226C9.33514 26.7923 9.14075 25.9573 9.08521 24.7351C9.02875 23.5101 9.01562 23.1189 9.01562 20C9.01562 16.8811 9.02875 16.4899 9.0849 15.2652C9.14044 14.0427 9.33453 13.208 9.61835 12.4774C9.90674 11.7111 10.359 11.0168 10.9434 10.4434C11.5168 9.85901 12.2111 9.40704 12.9774 9.11865C13.708 8.83484 14.5427 8.64075 15.7652 8.5849C16.9899 8.52905 17.3811 8.51562 20.5 8.51562C23.6189 8.51562 24.0101 8.52905 25.2348 8.58521C26.4573 8.64075 27.292 8.83484 28.0226 9.11835C28.7889 9.40674 29.4832 9.85901 30.0569 10.4434C30.641 11.0172 31.0933 11.7111 31.3813 12.4774C31.6655 13.208 31.8596 14.0427 31.9154 15.2652C31.9713 16.4899 31.9844 16.8811 31.9844 20C31.9844 23.1189 31.9713 23.5101 31.9151 24.7348Z" fill="white"/>
</g>
<defs>
<clipPath id="clip0_310_1437">
<rect width="40" height="40" fill="white" transform="translate(0.5)"/>
</clipPath>
</defs>
</svg>
