<svg display="none" xmlns="http://www.w3.org/2000/svg">
    <symbol id="facebook" viewBox="0 0 30 30" width="30" height="30">
        <g clip-path="url(#clip0_310_2599)">
        <path d="M15.002 0.435303C6.99411 0.435303 0.501953 6.92746 0.501953 14.9354C0.501953 22.9432 6.99411 29.4354 15.002 29.4354C23.0099 29.4354 29.5021 22.9432 29.5021 14.9354C29.5021 6.92746 23.0099 0.435303 15.002 0.435303ZM18.4366 10.4558H16.2567C15.9986 10.4558 15.7115 10.7951 15.7115 11.2465V12.8212H18.4375L18.0257 15.0649H15.7115V21.8026H13.1402V15.0649H10.8057V12.8203H13.1392V11.5008C13.1392 9.6061 14.4539 8.06716 16.2567 8.06716H18.4366V10.4548V10.4558Z" fill="white"/>
        </g>
        <defs>
        <clipPath id="clip0_310_2599">
        <rect width="29" height="29" fill="white" transform="translate(0.5 0.435303)"/>
        </clipPath>
        </defs>
    </symbol>

    <symbol id="instagram" viewBox="0 0 41 40" width="30" height="30">
        <g clip-path="url(#clip0_310_1437)">
        <path d="M24.3281 20C24.3281 22.1143 22.6143 23.8281 20.5 23.8281C18.3857 23.8281 16.6719 22.1143 16.6719 20C16.6719 17.8857 18.3857 16.1719 20.5 16.1719C22.6143 16.1719 24.3281 17.8857 24.3281 20Z" fill="white"/>
        <path d="M29.4519 13.2269C29.2679 12.7282 28.9743 12.2769 28.5928 11.9064C28.2224 11.5249 27.7713 11.2313 27.2723 11.0473C26.8677 10.8901 26.2598 10.7031 25.1401 10.6521C23.9288 10.5969 23.5657 10.585 20.4993 10.585C17.4326 10.585 17.0694 10.5966 15.8585 10.6518C14.7388 10.7031 14.1306 10.8901 13.7262 11.0473C13.2272 11.2313 12.7759 11.5249 12.4057 11.9064C12.0242 12.2769 11.7307 12.7279 11.5463 13.2269C11.3892 13.6315 11.2021 14.2397 11.1511 15.3594C11.0959 16.5704 11.084 16.9335 11.084 20.0002C11.084 23.0667 11.0959 23.4298 11.1511 24.6411C11.2021 25.7607 11.3892 26.3687 11.5463 26.7733C11.7307 27.2723 12.0239 27.7233 12.4054 28.0938C12.7759 28.4753 13.2269 28.7689 13.7259 28.9529C14.1306 29.1104 14.7388 29.2974 15.8585 29.3484C17.0694 29.4036 17.4323 29.4152 20.499 29.4152C23.566 29.4152 23.9291 29.4036 25.1398 29.3484C26.2595 29.2974 26.8677 29.1104 27.2723 28.9529C28.2739 28.5665 29.0656 27.7749 29.4519 26.7733C29.6091 26.3687 29.7961 25.7607 29.8474 24.6411C29.9026 23.4298 29.9142 23.0667 29.9142 20.0002C29.9142 16.9335 29.9026 16.5704 29.8474 15.3594C29.7964 14.2397 29.6094 13.6315 29.4519 13.2269ZM20.4993 25.8972C17.2421 25.8972 14.6017 23.2571 14.6017 19.9999C14.6017 16.7428 17.2421 14.1027 20.4993 14.1027C23.7561 14.1027 26.3965 16.7428 26.3965 19.9999C26.3965 23.2571 23.7561 25.8972 20.4993 25.8972ZM26.6296 15.2477C25.8685 15.2477 25.2515 14.6307 25.2515 13.8696C25.2515 13.1085 25.8685 12.4914 26.6296 12.4914C27.3907 12.4914 28.0078 13.1085 28.0078 13.8696C28.0075 14.6307 27.3907 15.2477 26.6296 15.2477Z" fill="white"/>
        <path d="M20.5 0C9.45599 0 0.5 8.95599 0.5 20C0.5 31.044 9.45599 40 20.5 40C31.544 40 40.5 31.044 40.5 20C40.5 8.95599 31.544 0 20.5 0ZM31.9151 24.7348C31.8596 25.9573 31.6652 26.792 31.3813 27.5226C30.7847 29.0652 29.5652 30.2847 28.0226 30.8813C27.2923 31.1652 26.4573 31.3593 25.2351 31.4151C24.0104 31.4709 23.6192 31.4844 20.5003 31.4844C17.3811 31.4844 16.9902 31.4709 15.7652 31.4151C14.543 31.3593 13.708 31.1652 12.9777 30.8813C12.2111 30.593 11.5172 30.141 10.9434 29.5566C10.3593 28.9832 9.90735 28.2889 9.61896 27.5226C9.33514 26.7923 9.14075 25.9573 9.08521 24.7351C9.02875 23.5101 9.01562 23.1189 9.01562 20C9.01562 16.8811 9.02875 16.4899 9.0849 15.2652C9.14044 14.0427 9.33453 13.208 9.61835 12.4774C9.90674 11.7111 10.359 11.0168 10.9434 10.4434C11.5168 9.85901 12.2111 9.40704 12.9774 9.11865C13.708 8.83484 14.5427 8.64075 15.7652 8.5849C16.9899 8.52905 17.3811 8.51562 20.5 8.51562C23.6189 8.51562 24.0101 8.52905 25.2348 8.58521C26.4573 8.64075 27.292 8.83484 28.0226 9.11835C28.7889 9.40674 29.4832 9.85901 30.0569 10.4434C30.641 11.0172 31.0933 11.7111 31.3813 12.4774C31.6655 13.208 31.8596 14.0427 31.9154 15.2652C31.9713 16.4899 31.9844 16.8811 31.9844 20C31.9844 23.1189 31.9713 23.5101 31.9151 24.7348Z" fill="white"/>
        </g>
        <defs>
        <clipPath id="clip0_310_1437">
            <rect width="40" height="40" fill="white" transform="translate(0.5)"/>
        </clipPath>
        </defs>
    </symbol>

    <symbol id="vk" width="30" height="30" viewBox="0 0 30 30">
        <path d="M15.0059 0.435303C6.99801 0.435303 0.505859 6.92746 0.505859 14.9354C0.505859 22.9432 6.99801 29.4354 15.0059 29.4354C23.0138 29.4354 29.506 22.9432 29.506 14.9354C29.506 6.92746 23.0138 0.435303 15.0059 0.435303ZM20.5826 16.7943C20.5826 16.7943 21.8644 18.0606 22.1805 18.6483C22.1902 18.6599 22.1941 18.6725 22.197 18.6773C22.3255 18.8939 22.3555 19.0621 22.2927 19.1868C22.1863 19.3956 21.8238 19.498 21.7001 19.5077H19.4342C19.2776 19.5077 18.948 19.4661 18.5497 19.1916C18.2423 18.977 17.9407 18.6251 17.6459 18.2829C17.207 17.7716 16.8261 17.3308 16.4424 17.3308C16.3934 17.3308 16.3448 17.3386 16.2983 17.354C16.0083 17.4468 15.6371 17.8615 15.6371 18.9635C15.6371 19.3076 15.3655 19.5058 15.1731 19.5058H14.1359C13.7821 19.5058 11.9416 19.382 10.3098 17.6614C8.31365 15.554 6.51565 11.3287 6.50115 11.2891C6.38708 11.0155 6.62198 10.8695 6.87718 10.8695H9.16529C9.46979 10.8695 9.57032 11.0551 9.63896 11.2195C9.72112 11.4118 10.0198 12.1745 10.5109 13.032C11.3065 14.4308 11.7946 14.9992 12.1861 14.9992C12.2596 14.9992 12.3282 14.9798 12.3959 14.9441C12.9063 14.6608 12.8116 12.8406 12.7884 12.4626C12.7884 12.392 12.7874 11.6487 12.5254 11.2929C12.3389 11.0339 12.0199 10.9353 11.8265 10.8995C11.9046 10.7917 12.0073 10.7042 12.1262 10.6443C12.4771 10.4693 13.1083 10.4432 13.7357 10.4432H14.0837C14.7642 10.4529 14.9392 10.4964 15.1857 10.5583C15.6845 10.6772 15.6951 10.9991 15.6507 12.1001C15.6335 12.4607 15.6245 12.8217 15.6236 13.1828C15.6236 13.2736 15.6188 13.3703 15.6188 13.4728C15.6043 14.0335 15.5859 14.6695 15.9813 14.9305C16.0328 14.963 16.0924 14.9804 16.1533 14.9808C16.2916 14.9808 16.7043 14.9808 17.8257 13.0571C18.1714 12.4384 18.4718 11.7955 18.7247 11.1334C18.7469 11.0948 18.8136 10.9739 18.8919 10.9266C18.95 10.8971 19.0143 10.8821 19.0795 10.8831H21.7697C22.0626 10.8831 22.2627 10.9266 22.3014 11.0397C22.3681 11.2195 22.2888 11.7676 21.0611 13.4312C20.8543 13.7057 20.6716 13.9464 20.513 14.1543C19.3994 15.614 19.3994 15.6874 20.5826 16.7943Z" fill="white"/>
    </symbol>

    <symbol id="youtube" width="31" height="31" viewBox="0 0 31 31">
        <path d="M18.005 15.6743L14.495 14.0363C14.189 13.8953 13.937 14.0543 13.937 14.3933V17.4773C13.937 17.8163 14.189 17.9753 14.495 17.8343L18.0035 16.1963C18.311 16.0523 18.311 15.8183 18.0035 15.6743H18.005ZM15.5 0.935303C7.2155 0.935303 0.5 7.6508 0.5 15.9353C0.5 24.2198 7.2155 30.9353 15.5 30.9353C23.7845 30.9353 30.5 24.2198 30.5 15.9353C30.5 7.6508 23.7845 0.935303 15.5 0.935303ZM15.5 22.0298C7.8215 22.0298 7.688 21.3368 7.688 15.9353C7.688 10.5338 7.823 9.8408 15.5 9.8408C23.1785 9.8408 23.312 10.5338 23.312 15.9353C23.312 21.3368 23.177 22.0298 15.5 22.0298Z" fill="white"/>
    </symbol>

    <symbol id="whatsapp" width="21" height="20" viewBox="0 0 21 20">
        <path d="M10.5025 0H10.4975C4.98375 0 0.5 4.485 0.5 10C0.5 12.1875 1.205 14.215 2.40375 15.8612L1.1575 19.5763L5.00125 18.3475C6.5825 19.395 8.46875 20 10.5025 20C16.0162 20 20.5 15.5138 20.5 10C20.5 4.48625 16.0162 0 10.5025 0ZM16.3212 14.1213C16.08 14.8025 15.1225 15.3675 14.3587 15.5325C13.8363 15.6437 13.1537 15.7325 10.8562 14.78C7.9175 13.5625 6.025 10.5763 5.8775 10.3825C5.73625 10.1887 4.69 8.80125 4.69 7.36625C4.69 5.93125 5.41875 5.2325 5.7125 4.9325C5.95375 4.68625 6.3525 4.57375 6.735 4.57375C6.85875 4.57375 6.97 4.58 7.07 4.585C7.36375 4.5975 7.51125 4.615 7.705 5.07875C7.94625 5.66 8.53375 7.095 8.60375 7.2425C8.675 7.39 8.74625 7.59 8.64625 7.78375C8.5525 7.98375 8.47 8.0725 8.3225 8.2425C8.175 8.4125 8.035 8.5425 7.8875 8.725C7.7525 8.88375 7.6 9.05375 7.77 9.3475C7.94 9.635 8.5275 10.5937 9.3925 11.3637C10.5087 12.3575 11.4137 12.675 11.7375 12.81C11.9787 12.91 12.2662 12.8863 12.4425 12.6988C12.6663 12.4575 12.9425 12.0575 13.2238 11.6638C13.4237 11.3813 13.6763 11.3462 13.9412 11.4462C14.2113 11.54 15.64 12.2462 15.9338 12.3925C16.2275 12.54 16.4212 12.61 16.4925 12.7338C16.5625 12.8575 16.5625 13.4388 16.3212 14.1213Z" fill="white"/>
    </symbol>

    <symbol id="telegram" width="21" height="20" viewBox="0 0 21 20">
        <path d="M10.5 20C16.0242 20 20.5 15.5242 20.5 10C20.5 4.47583 16.0242 0 10.5 0C4.97583 0 0.5 4.47583 0.5 10C0.5 15.5242 4.97583 20 10.5 20ZM5.07583 9.78333L14.7175 6.06583C15.165 5.90417 15.5558 6.175 15.4108 6.85167L15.4117 6.85083L13.77 14.585C13.6483 15.1333 13.3225 15.2667 12.8667 15.0083L10.3667 13.1658L9.16083 14.3275C9.0275 14.4608 8.915 14.5733 8.65667 14.5733L8.83417 12.0292L13.4675 7.84333C13.6692 7.66583 13.4225 7.56583 13.1567 7.7425L7.43083 11.3475L4.9625 10.5775C4.42667 10.4075 4.415 10.0417 5.07583 9.78333Z" fill="white"/>
    </symbol>

    <symbol id="phone-top" width="39" height="40" viewBox="0 0 39 40">
        <path d="M16.5036 23.2188C12.6465 19.3597 8.95612 14.8874 10.7238 13.1197C13.251 10.5915 15.4555 9.03056 10.9724 3.45161C6.49132 -2.12441 3.50294 2.15974 1.05471 4.60991C-1.77279 7.43839 0.903591 17.982 11.3215 28.4028C21.7384 38.8217 32.2801 41.4912 35.1076 38.6598C37.5597 36.2106 41.8409 33.2359 36.2659 28.7538C30.6898 24.2698 29.1298 26.4723 26.5997 29.0054C24.832 30.7653 20.3617 27.0768 16.5026 23.2188H16.5036Z" fill="white"/>
    </symbol>

    <symbol id="fb-footer" width="41" height="40">
        <g clip-path="url(#a)"><path d="M20.502 0c-11.045 0-20 8.955-20 20s8.955 20 20 20 20-8.955 20-20-8.955-20-20-20zm4.737 13.821h-3.006c-.356 0-.752.468-.752 1.091v2.172h3.76l-.568 3.095H21.48v9.293h-3.547V20.18h-3.22v-3.096h3.219v-1.82c0-2.614 1.813-4.736 4.3-4.736h3.006v3.294z" fill="#fff"/></g><defs><clipPath id="a"><path fill="#fff" transform="translate(.5)" d="M0 0h40v40H0z"/></clipPath></defs>
    </symbol>

    <symbol id="ins-footer" width="41" height="40">
        <g clip-path="url(#a)" fill="#fff"><path d="M24.328 20a3.828 3.828 0 1 1-7.656 0 3.828 3.828 0 0 1 7.656 0z"/><path d="M29.452 13.227a3.558 3.558 0 0 0-.86-1.32 3.554 3.554 0 0 0-1.32-.86c-.404-.157-1.012-.344-2.132-.395-1.211-.055-1.574-.067-4.64-.067-3.067 0-3.43.012-4.642.067-1.12.051-1.727.238-2.132.395-.499.184-.95.478-1.32.86a3.56 3.56 0 0 0-.86 1.32c-.157.405-.344 1.013-.395 2.132-.055 1.211-.067 1.574-.067 4.641s.012 3.43.067 4.641c.051 1.12.238 1.728.395 2.132.185.5.478.95.86 1.32.37.382.82.676 1.32.86.405.157 1.013.344 2.132.395 1.211.056 1.574.067 4.641.067s3.43-.011 4.64-.067c1.12-.05 1.729-.238 2.133-.395a3.803 3.803 0 0 0 2.18-2.18c.157-.404.344-1.012.395-2.132.056-1.211.067-1.574.067-4.64 0-3.068-.011-3.43-.067-4.642-.05-1.12-.238-1.727-.395-2.132zm-8.953 12.67a5.897 5.897 0 1 1 0-11.794 5.897 5.897 0 0 1 0 11.794zm6.13-10.65a1.378 1.378 0 1 1 0-2.756 1.378 1.378 0 0 1 0 2.757z"/><path d="M20.5 0C9.456 0 .5 8.956.5 20s8.956 20 20 20 20-8.956 20-20-8.956-20-20-20zm11.415 24.735c-.055 1.222-.25 2.057-.534 2.788a5.872 5.872 0 0 1-3.358 3.358c-.73.284-1.566.478-2.788.534-1.225.056-1.616.07-4.735.07s-3.51-.014-4.735-.07c-1.222-.056-2.057-.25-2.787-.534a5.626 5.626 0 0 1-2.035-1.324 5.628 5.628 0 0 1-1.324-2.034c-.284-.73-.478-1.566-.534-2.788-.056-1.225-.07-1.616-.07-4.735s.014-3.51.07-4.735c.055-1.222.25-2.057.533-2.788.289-.766.741-1.46 1.325-2.034a5.625 5.625 0 0 1 2.034-1.324c.731-.284 1.566-.478 2.788-.534 1.225-.056 1.616-.07 4.735-.07s3.51.014 4.735.07c1.222.056 2.057.25 2.788.533a5.63 5.63 0 0 1 2.034 1.325 5.626 5.626 0 0 1 1.324 2.034c.285.731.479 1.566.534 2.788.056 1.225.07 1.616.07 4.735s-.014 3.51-.07 4.735z"/></g><defs><clipPath id="a"><path fill="#fff" transform="translate(.5)" d="M0 0h40v40H0z"/></clipPath></defs>
    </symbol>

    <symbol id="vk-footer" width="41" height="40">
        <g clip-path="url(#a)"><path d="M20.508 0c-11.045 0-20 8.955-20 20s8.955 20 20 20 20-8.955 20-20-8.955-20-20-20zM28.2 22.564s1.768 1.747 2.204 2.557c.013.016.019.034.023.04.177.3.218.531.132.703-.147.288-.647.43-.818.443h-3.125c-.216 0-.67-.058-1.22-.436-.424-.296-.84-.782-1.247-1.254-.605-.705-1.13-1.313-1.66-1.313a.632.632 0 0 0-.198.032c-.4.128-.912.7-.912 2.22 0 .475-.375.748-.64.748h-1.431c-.488 0-3.027-.17-5.277-2.544-2.754-2.907-5.234-8.735-5.254-8.79-.157-.377.167-.578.519-.578h3.156c.42 0 .559.256.653.483.114.265.525 1.317 1.203 2.5 1.097 1.93 1.77 2.713 2.31 2.713a.61.61 0 0 0 .29-.076c.704-.39.573-2.901.541-3.423 0-.097-.001-1.122-.363-1.613-.257-.357-.697-.493-.963-.543.107-.148.249-.27.413-.352.484-.241 1.354-.277 2.22-.277h.48c.938.013 1.18.073 1.52.159.688.164.703.608.641 2.126a33.05 33.05 0 0 0-.037 1.494c0 .125-.007.258-.007.4-.02.773-.045 1.65.5 2.01a.45.45 0 0 0 .238.07c.19 0 .76 0 2.306-2.654a20.27 20.27 0 0 0 1.24-2.653c.03-.053.123-.22.23-.285a.553.553 0 0 1 .26-.06h3.71c.404 0 .68.06.734.216.092.248-.018 1.004-1.711 3.298-.285.38-.537.711-.756.998-1.536 2.013-1.536 2.114.096 3.641z" fill="#fff"/></g><defs><clipPath id="a"><path fill="#fff" transform="translate(.5)" d="M0 0h40v40H0z"/></clipPath></defs>
    </symbol>

    <symbol id="youtube-footer" width="41" height="40">
        <g clip-path="url(#a)"><path d="m23.84 19.652-4.68-2.184c-.408-.188-.744.024-.744.476v4.112c0 .452.336.664.744.476l4.678-2.184c.41-.192.41-.504 0-.696h.002zM20.5 0C9.454 0 .5 8.954.5 20s8.954 20 20 20 20-8.954 20-20-8.954-20-20-20zm0 28.126c-10.238 0-10.416-.924-10.416-8.126 0-7.202.18-8.126 10.416-8.126 10.238 0 10.416.924 10.416 8.126 0 7.202-.18 8.126-10.416 8.126z" fill="#fff"/></g><defs><clipPath id="a"><path fill="#fff" transform="translate(.5)" d="M0 0h40v40H0z"/></clipPath></defs>
    </symbol>

    <symbol id="users-btn" width="44" height="44" viewBox="0 0 44 44">
        <circle cx="22" cy="22" r="22" fill="white"/>
        <path d="M24.6726 15.6968C25.6436 16.3056 26.3244 17.3358 26.4484 18.5317C26.8444 18.7167 27.2839 18.8231 27.7499 18.8231C29.451 18.8231 30.8298 17.4443 30.8298 15.7435C30.8298 14.0423 29.451 12.6636 27.7499 12.6636C26.065 12.6641 24.6983 14.0182 24.6726 15.6968ZM22.6549 22.0028C24.356 22.0028 25.7348 20.6238 25.7348 18.923C25.7348 17.2221 24.3557 15.8433 22.6549 15.8433C20.954 15.8433 19.5745 17.2224 19.5745 18.9232C19.5745 20.6241 20.954 22.0028 22.6549 22.0028ZM23.9613 22.2128H21.3479C19.1735 22.2128 17.4045 23.982 17.4045 26.1565V29.3525L17.4126 29.4025L17.6328 29.4714C19.7079 30.1198 21.5107 30.336 22.9945 30.336C25.8928 30.336 27.5727 29.5097 27.6762 29.457L27.882 29.353H27.904V26.1565C27.9048 23.982 26.1358 22.2128 23.9613 22.2128ZM29.0568 19.0333H26.4636C26.4356 20.0708 25.9927 21.0051 25.2921 21.6771C27.2249 22.2518 28.6391 24.0441 28.6391 26.1612V27.1461C31.1996 27.0522 32.675 26.3265 32.7723 26.2778L32.978 26.1735H33V22.9765C33 20.8023 31.231 19.0333 29.0568 19.0333ZM17.2507 18.8236C17.8532 18.8236 18.4137 18.6478 18.8886 18.3482C19.0396 17.3636 19.5674 16.5032 20.3214 15.9172C20.3245 15.8596 20.33 15.8024 20.33 15.7443C20.33 14.0431 18.951 12.6644 17.2507 12.6644C15.5493 12.6644 14.1708 14.0431 14.1708 15.7443C14.1708 17.4446 15.5493 18.8236 17.2507 18.8236ZM20.0166 21.6771C19.3195 21.0085 18.8781 20.0792 18.8459 19.048C18.7497 19.0409 18.6546 19.0333 18.5566 19.0333H15.9434C13.769 19.0333 12 20.8023 12 22.9765V26.173L12.0081 26.2222L12.2283 26.2917C13.893 26.8114 15.3787 27.0509 16.6691 27.1264V26.1612C16.6696 24.0441 18.0833 22.2523 20.0166 21.6771Z" fill="#FFAF3E"/>
    </symbol>
    
    <symbol id="cart" wwidth="44" height="44" viewBox="0 0 44 44">
        <circle cx="22" cy="22" r="22" fill="white"/>
        <path d="M7.49414 12.4797C7.49414 12.9773 7.90682 13.4021 8.39231 13.4021H12.4947L14.4366 26.7288C14.6915 28.4523 15.6018 29.5326 17.3618 29.5326H31.526C31.9993 29.5326 32.4119 29.1442 32.4119 28.6223C32.4119 28.1004 31.9993 27.7119 31.526 27.7119H17.5681C16.8763 27.7119 16.4515 27.2264 16.3422 26.4861L16.148 25.2117H31.5502C33.3222 25.2117 34.2325 24.1193 34.4875 22.3837L35.4584 15.963C35.4828 15.8053 35.5069 15.6111 35.5069 15.5018C35.5069 14.9193 35.0699 14.5187 34.4025 14.5187H14.5944L14.3517 12.9773C14.2303 12.0427 13.8905 11.5693 12.6525 11.5693H8.39231C7.90682 11.5693 7.49414 11.9942 7.49414 12.4797ZM16.3422 33.465C16.3422 34.5695 17.2161 35.4313 18.3206 35.4313C19.4129 35.4313 20.2868 34.5695 20.2868 33.465C20.2868 32.3726 19.4129 31.4988 18.3206 31.4988C17.2161 31.4988 16.3422 32.3726 16.3422 33.465ZM27.6906 33.465C27.6906 34.5695 28.5766 35.4313 29.6689 35.4313C30.7734 35.4313 31.6474 34.5695 31.6474 33.465C31.6474 32.3726 30.7734 31.4988 29.6689 31.4988C28.5766 31.4988 27.6906 32.3726 27.6906 33.465Z" fill="#FFAF3E"/>
    </symbol>

    <symbol id="certificate-1" width="119" height="119" viewBox="0 0 119 119">
        <circle opacity="0.1" cx="59.5" cy="59.5" r="50.5" fill="#FFAF3E"/>
        <circle opacity="0.2" cx="59.5" cy="59.5" r="59" stroke="#FFAF3E"/>
        <circle cx="59.5" cy="59.5" r="38.5" fill="#FFAF3E"/>
        <g clip-path="url(#clip0_302_253)">
        <path d="M82.7768 72.9435L74.7599 59.0572C74.5441 58.6835 74.0043 58.6966 73.801 59.0772C71.4763 63.4286 67.409 66.4618 62.729 67.5198C62.3704 67.6009 62.1946 68.008 62.3784 68.3264L69.4778 80.6229C70.1787 81.8368 71.9753 81.6681 72.446 80.3564L74.648 74.2214L81.0621 75.381C82.4354 75.6291 83.475 74.1528 82.7768 72.9435Z" fill="white"/>
        <path d="M55.2712 67.5199C50.5896 66.4614 46.5229 63.4266 44.1993 59.0772C43.9959 58.6965 43.4561 58.6835 43.2403 59.0572L35.2233 72.9435C34.5257 74.1518 35.5638 75.6292 36.9379 75.381L43.352 74.2213L45.554 80.3564C46.0247 81.6676 47.8212 81.8371 48.5222 80.6228L55.6216 68.3263C55.8055 68.0079 55.6298 67.6009 55.2712 67.5199Z" fill="white"/>
        <path d="M72.5776 56.5213V56.5212C74.3566 52.0279 73.7931 46.9536 71.0704 42.9473C65.2786 34.4248 52.7218 34.4271 46.932 42.9464C44.2087 46.9536 43.6448 52.0282 45.4237 56.5213C50.2957 68.8242 67.7287 68.7666 72.5776 56.5213ZM67.0248 50.7813L64.2042 53.5305L64.87 57.4126C65.1016 58.7629 63.6792 59.7712 62.4869 59.144L59.0006 57.3112L55.5143 59.1441C54.3119 59.7763 52.9014 58.7525 53.1312 57.4127L53.797 53.5306L50.9764 50.7814C50.0037 49.833 50.5415 48.1753 51.8866 47.9799L55.7845 47.4135L57.5276 43.8815C58.1288 42.6631 59.8717 42.6625 60.4733 43.8815L62.2164 47.4135L66.1142 47.9799C67.4588 48.1751 67.9981 49.8324 67.0248 50.7813Z" fill="white"/>
        </g>
        <defs>
        <clipPath id="clip0_302_253">
        <rect width="48" height="48" fill="white" transform="translate(35 35)"/>
        </clipPath>
        </defs>
    </symbol>

    <symbol id="certificate-2" width="119" height="119" viewBox="0 0 119 119">
        <circle opacity="0.1" cx="59.5" cy="59.5" r="50.5" fill="#FFAF3E"/>
        <circle opacity="0.2" cx="59.5" cy="59.5" r="59" stroke="#FFAF3E"/>
        <circle cx="59.5" cy="59.5" r="38.5" fill="#FFAF3E"/>
        <g clip-path="url(#clip0_302_1357)">
        <path d="M75.794 39.0132H48.7112C44.5675 39.0132 42.4857 41.0128 42.4857 45.0314V56.1164C43.021 56.0582 43.5564 56.0194 44.0719 56.0194C44.6071 56.0194 45.1424 56.0582 45.6778 56.1164V50.603C45.6778 48.817 46.6691 47.8852 48.4139 47.8852H76.0519C77.8165 47.8852 78.8077 48.817 78.8077 50.603V68.9099C78.8077 70.7154 77.8165 71.6277 76.0519 71.6277H56.4237C56.166 72.7343 55.7298 73.7826 55.1548 74.7533H75.794C79.9377 74.7533 82 72.7343 82 68.7351V45.0314C82 41.0323 79.9377 39.0132 75.794 39.0132ZM60.2899 54.8545H61.4597C62.1535 54.8545 62.3717 54.6604 62.3717 53.9809V52.8355C62.3717 52.1561 62.1535 51.9425 61.4597 51.9425H60.2899C59.5959 51.9425 59.3581 52.1561 59.3581 52.8355V53.9809C59.3581 54.6604 59.5959 54.8545 60.2899 54.8545ZM65.9206 54.8545H67.0903C67.7843 54.8545 68.0023 54.6604 68.0023 53.9809V52.8355C68.0023 52.1561 67.7843 51.9425 67.0903 51.9425H65.9206C65.2267 51.9425 64.9887 52.1561 64.9887 52.8355V53.9809C64.9887 54.6604 65.2267 54.8545 65.9206 54.8545ZM71.5513 54.8545H72.7211C73.4149 54.8545 73.633 54.6604 73.633 53.9809V52.8355C73.633 52.1561 73.4149 51.9425 72.7211 51.9425H71.5513C70.8574 51.9425 70.6195 52.1561 70.6195 52.8355V53.9809C70.6195 54.6604 70.8574 54.8545 71.5513 54.8545ZM54.6592 61.2027H55.8289C56.5229 61.2027 56.7409 61.0086 56.7409 60.3291V59.1837C56.7409 58.5043 56.5229 58.3101 55.8289 58.3101H54.6592C53.9653 58.3101 53.7273 58.5043 53.7273 59.1837V60.3291C53.7273 61.0086 53.9653 61.2027 54.6592 61.2027ZM60.2899 61.2027H61.4597C62.1535 61.2027 62.3717 61.0086 62.3717 60.3291V59.1837C62.3717 58.5043 62.1535 58.3101 61.4597 58.3101H60.2899C59.5959 58.3101 59.3581 58.5043 59.3581 59.1837V60.3291C59.3581 61.0086 59.5959 61.2027 60.2899 61.2027ZM65.9206 61.2027H67.0903C67.7843 61.2027 68.0023 61.0086 68.0023 60.3291V59.1837C68.0023 58.5043 67.7843 58.3101 67.0903 58.3101H65.9206C65.2267 58.3101 64.9887 58.5043 64.9887 59.1837V60.3291C64.9887 61.0086 65.2267 61.2027 65.9206 61.2027ZM71.5513 61.2027H72.7211C73.4149 61.2027 73.633 61.0086 73.633 60.3291V59.1837C73.633 58.5043 73.4149 58.3101 72.7211 58.3101H71.5513C70.8574 58.3101 70.6195 58.5043 70.6195 59.1837V60.3291C70.6195 61.0086 70.8574 61.2027 71.5513 61.2027ZM44.0719 78.403C49.5439 78.403 54.1437 73.938 54.1437 68.541C54.1437 63.1441 49.6034 58.679 44.0719 58.679C38.5601 58.679 34 63.1441 34 68.541C34 73.9767 38.5601 78.403 44.0719 78.403ZM44.0917 74.9475C43.3977 74.9475 42.7831 74.4815 42.7831 73.7632V69.7253H38.9963C38.3221 69.7253 37.767 69.1816 37.767 68.541C37.767 67.9004 38.3221 67.3568 38.9963 67.3568H42.7831V63.3382C42.7831 62.6005 43.3977 62.1346 44.0917 62.1346C44.7658 62.1346 45.3804 62.6005 45.3804 63.3382V67.3568H49.1672C49.8414 67.3568 50.3767 67.9004 50.3767 68.541C50.3767 69.1816 49.8414 69.7253 49.1672 69.7253H45.3804V73.7632C45.3804 74.4815 44.7658 74.9475 44.0917 74.9475ZM60.2899 67.5704H61.4597C62.1535 67.5704 62.3717 67.3568 62.3717 66.6773V65.5319C62.3717 64.8524 62.1535 64.6583 61.4597 64.6583H60.2899C59.5959 64.6583 59.3581 64.8524 59.3581 65.5319V66.6773C59.3581 67.3568 59.5959 67.5704 60.2899 67.5704ZM65.9206 67.5704H67.0903C67.7843 67.5704 68.0023 67.3568 68.0023 66.6773V65.5319C68.0023 64.8524 67.7843 64.6583 67.0903 64.6583H65.9206C65.2267 64.6583 64.9887 64.8524 64.9887 65.5319V66.6773C64.9887 67.3568 65.2267 67.5704 65.9206 67.5704Z" fill="white"/>
        <ellipse cx="44.4521" cy="67.2177" rx="8.90323" ry="8.71774" fill="white"/>
        <path d="M41.3701 73H39.4087V67.6299C39.4087 67.4818 39.4108 67.2998 39.415 67.084C39.4193 66.8639 39.4256 66.6396 39.4341 66.4111C39.4425 66.1784 39.451 65.9689 39.4595 65.7827C39.4129 65.8377 39.3177 65.9329 39.1738 66.0684C39.0342 66.1995 38.903 66.318 38.7803 66.4238L37.7139 67.2808L36.7681 66.1001L39.7578 63.7197H41.3701V73ZM50.3965 68.3599C50.3965 69.1089 50.3372 69.7775 50.2188 70.3657C50.1045 70.9539 49.9183 71.4533 49.6602 71.8638C49.4062 72.2743 49.0719 72.5874 48.6572 72.8032C48.2425 73.019 47.7389 73.127 47.1465 73.127C46.4017 73.127 45.7902 72.9386 45.312 72.562C44.8338 72.1812 44.4805 71.6353 44.252 70.9243C44.0234 70.2091 43.9092 69.3543 43.9092 68.3599C43.9092 67.3569 44.0129 66.5 44.2202 65.7891C44.4318 65.0739 44.7746 64.5259 45.2485 64.145C45.7225 63.7642 46.3551 63.5737 47.1465 63.5737C47.887 63.5737 48.4964 63.7642 48.9746 64.145C49.457 64.5216 49.8146 65.0675 50.0474 65.7827C50.2801 66.4937 50.3965 67.3527 50.3965 68.3599ZM45.8579 68.3599C45.8579 69.0666 45.896 69.6569 45.9722 70.1309C46.0526 70.6006 46.1859 70.9539 46.3721 71.1909C46.5583 71.4279 46.8164 71.5464 47.1465 71.5464C47.4723 71.5464 47.7284 71.43 47.9146 71.1973C48.105 70.9603 48.2404 70.6069 48.3208 70.1372C48.4012 69.6632 48.4414 69.0708 48.4414 68.3599C48.4414 67.6532 48.4012 67.0628 48.3208 66.5889C48.2404 66.1149 48.105 65.7594 47.9146 65.5225C47.7284 65.2812 47.4723 65.1606 47.1465 65.1606C46.8164 65.1606 46.5583 65.2812 46.3721 65.5225C46.1859 65.7594 46.0526 66.1149 45.9722 66.5889C45.896 67.0628 45.8579 67.6532 45.8579 68.3599Z" fill="#FFAF3E"/>
        </g>
        <defs>
        <clipPath id="clip0_302_1357">
        <rect width="48" height="47" fill="white" transform="translate(34 35)"/>
        </clipPath>
        </defs>
    </symbol>

    <symbol id="off1" width="114" height="114" viewBox="0 0 114 114">
        <circle opacity="0.1" cx="57" cy="57" r="57" fill="#466F82"/>
        <g clip-path="url(#clip0_301_1391)">
        <path d="M64.007 38.2494C66.9818 40.1145 69.0677 43.2707 69.4475 46.9344C70.6607 47.5012 72.0071 47.8272 73.4347 47.8272C78.6464 47.8272 82.8704 43.6031 82.8704 38.3923C82.8704 33.1806 78.6464 28.9565 73.4347 28.9565C68.2728 28.9581 64.0857 33.1068 64.007 38.2494ZM57.8255 57.5688C63.0371 57.5688 67.2612 53.3439 67.2612 48.1331C67.2612 42.9222 63.0363 38.6982 57.8255 38.6982C52.6146 38.6982 48.3881 42.9231 48.3881 48.1339C48.3881 53.3447 52.6146 57.5688 57.8255 57.5688ZM61.8279 58.2119H53.8214C47.1597 58.2119 41.7401 63.6323 41.7401 70.294V80.0854L41.765 80.2388L42.4394 80.45C48.7968 82.4364 54.32 83.0987 58.866 83.0987C67.7453 83.0987 72.8919 80.5672 73.2091 80.4058L73.8394 80.0871H73.9068V70.294C73.9092 63.6323 68.4896 58.2119 61.8279 58.2119ZM77.4388 48.4711H69.4941C69.4081 51.6498 68.0512 54.5122 65.9051 56.5708C71.8265 58.3316 76.159 63.8226 76.159 70.3085V73.3258C84.0033 73.0384 88.5237 70.8151 88.8215 70.6658L89.4518 70.3462H89.5193V60.5516C89.5193 53.8907 84.0997 48.4711 77.4388 48.4711ZM41.2688 47.8288C43.1147 47.8288 44.8321 47.29 46.2869 46.3723C46.7494 43.3558 48.3665 40.7199 50.6764 38.9246C50.686 38.748 50.7029 38.5729 50.7029 38.3947C50.7029 33.183 46.478 28.959 41.2688 28.959C36.0563 28.959 31.8331 33.183 31.8331 38.3947C31.8331 43.6039 36.0563 47.8288 41.2688 47.8288ZM49.7426 56.5708C47.6069 54.5226 46.2548 51.6755 46.1561 48.5161C45.8614 48.4944 45.5699 48.4711 45.2697 48.4711H37.2639C30.6022 48.4711 25.1826 53.8907 25.1826 60.5516V70.3446L25.2075 70.4956L25.8819 70.7083C30.982 72.3005 35.5336 73.0343 39.4871 73.2656V70.3085C39.4888 63.8226 43.8196 58.3332 49.7426 56.5708Z" fill="#466F82"/>
        </g>
        <defs>
        <clipPath id="clip0_301_1391">
        <rect width="64.3366" height="64.3366" fill="white" transform="translate(25.1826 23.8596)"/>
        </clipPath>
        </defs>
    </symbol>

    <symbol id="off2" width="114" height="114" viewBox="0 0 114 114">
        <circle opacity="0.1" cx="57" cy="57" r="57" fill="#466F82"/>
        <g clip-path="url(#clip0_301_9)">
        <path d="M62.5258 66.2734C62.5258 65.7518 62.1128 65.4324 61.608 65.5637C61.608 65.5637 59.2439 66.178 57.4992 66.178C55.7545 66.178 53.3904 65.5637 53.3904 65.5637C52.8857 65.4324 52.4727 65.7518 52.4727 66.2734V69.0234C52.4727 69.545 52.8995 69.9717 53.4209 69.9717H61.5775C62.0991 69.9717 62.5258 69.5448 62.5258 69.0234V66.2734Z" fill="#466F82"/>
        <path d="M71.916 30.8969C71.916 29.8494 71.0666 29 70.0191 29H44.9809C43.9334 29 43.084 29.8494 43.084 30.8969V46.5458C43.084 51.444 44.5408 55.9027 47.1861 59.1002C49.8488 62.3189 53.5117 64.0917 57.5 64.0917C61.4883 64.0917 65.1512 62.3191 67.8139 59.1002C70.4591 55.9027 71.916 51.444 71.916 46.5458V30.8969Z" fill="#466F82"/>
        <path d="M41.2788 50.3466C38.6831 49.3807 37.4878 47.1404 37.4878 43.4162V34.9436H40.9971V31.1499H35.5913C34.5436 31.1499 33.6943 31.9991 33.6943 33.0468V43.416C33.6943 49.7419 36.7244 53.5952 42.2958 54.4953C41.838 53.179 41.4953 51.7902 41.2788 50.3466Z" fill="#466F82"/>
        <path d="M44.9809 72.8171C43.9334 72.8171 43.084 73.6664 43.084 74.7141V84.1033C43.084 85.1508 43.9334 86.0003 44.9809 86.0003H70.0193C71.0668 86.0003 71.9162 85.1508 71.9162 84.1033V74.7141C71.9162 73.6664 71.0668 72.8171 70.0193 72.8171H44.9809Z" fill="#466F82"/>
        <path d="M79.4078 31.1499H74.0018V34.9436H77.5111V43.416C77.5111 47.1402 76.3158 49.3805 73.7201 50.3464C73.5036 51.79 73.161 53.179 72.7031 54.4953C78.2745 53.5952 81.3046 49.7419 81.3046 43.416V33.0468C81.3048 31.9991 80.4555 31.1499 79.4078 31.1499Z" fill="#466F82"/>
        </g>
        <defs>
        <clipPath id="clip0_301_9">
        <rect width="57" height="57" fill="white" transform="translate(29 29)"/>
        </clipPath>
        </defs>
    </symbol>

    <symbol id="off3" width="114" height="114" viewBox="0 0 114 114">
        <circle opacity="0.1" cx="57" cy="57" r="57" fill="#466F82"/>
        <g clip-path="url(#clip0_301_1831)">
        <path d="M77.6526 37.3475C72.2697 31.9646 65.1126 29 57.5 29C49.8874 29 42.7303 31.9646 37.3474 37.3475C31.9644 42.7304 29 49.8874 29 57.5C29 65.1126 31.9644 72.2697 37.3474 77.6525C42.7303 83.0353 49.8874 86 57.5 86C65.1126 86 72.2697 83.0354 77.6526 77.6525C83.0356 72.2696 86 65.1126 86 57.5C86 49.8874 83.0356 42.7303 77.6526 37.3475ZM57.5 80.406C44.8695 80.406 34.594 70.1304 34.594 57.5C34.594 57.4793 34.5947 57.4588 34.5948 57.4383C34.5948 57.4331 34.594 57.4281 34.594 57.4228C34.594 57.4141 34.5951 57.4056 34.5954 57.3969C34.6509 44.9178 44.7358 34.765 57.1887 34.598C57.2148 34.5968 57.2406 34.5941 57.267 34.5941C57.2828 34.5941 57.2982 34.596 57.3139 34.5965C57.376 34.596 57.4379 34.5941 57.5001 34.5941C70.1306 34.5941 80.4061 44.8697 80.4061 57.5001C80.4061 70.1305 70.1305 80.406 57.5 80.406Z" fill="#466F82"/>
        <path d="M74.899 58.876C73.9676 58.876 73.2126 58.1209 73.2126 57.1896C73.2126 56.2582 73.9676 55.5032 74.899 55.5032H76.9317C75.9769 46.1431 68.3859 38.7179 58.9531 38.0208V39.7903C58.9531 40.7217 58.1981 41.4767 57.2667 41.4767C56.3353 41.4767 55.5803 40.7217 55.5803 39.7903V38.0611C46.2871 38.9717 38.8845 46.422 38.047 55.7362H39.8674C40.7988 55.7362 41.5538 56.4912 41.5538 57.4226C41.5538 58.3539 40.7988 59.109 39.8674 59.109H38.0332C38.8086 68.5731 46.3595 76.1472 55.8134 76.9595V74.8217C55.8134 73.8903 56.5684 73.1353 57.4998 73.1353C58.4312 73.1353 59.1862 73.8903 59.1862 74.8217V76.9595C68.7175 76.1405 76.3144 68.4484 76.9839 58.876H74.899ZM64.3265 53.0582L58.6924 58.6924C58.3761 59.0087 57.9472 59.1863 57.4999 59.1863C57.0527 59.1863 56.6237 59.0087 56.3075 58.6924L46.5003 48.8852C45.8416 48.2266 45.8416 47.1589 46.5003 46.5003C47.1588 45.8417 48.2265 45.8417 48.8851 46.5003L57.5 55.1151L61.9418 50.6733C62.6003 50.0147 63.6681 50.0147 64.3267 50.6733C64.9851 51.3318 64.9851 52.3997 64.3265 53.0582Z" fill="#466F82"/>
        </g>
        <defs>
        <clipPath id="clip0_301_1831">
        <rect width="57" height="57" fill="white" transform="translate(29 29)"/>
        </clipPath>
        </defs>
    </symbol>

    <symbol id="off4" width="114" height="114" viewBox="0 0 114 114">
        <circle opacity="0.1" cx="57" cy="57" r="57" fill="#466F82"/>
        <path d="M75.3824 46.033H54.8176L50.7271 41.1712C50.5894 41.0058 50.3832 40.9131 50.1682 40.9198H33.5768C31.0436 40.9382 29 42.9969 29 45.5301V75.4327C29.0031 77.9745 31.0629 80.0343 33.6047 80.0374H75.3824C77.9242 80.0343 79.984 77.9745 79.9871 75.4327V50.6377C79.984 48.0959 77.9242 46.0361 75.3824 46.033Z" fill="#466F82"/>
        <path d="M81.4235 40.076H60.8532L56.7626 35.2142C56.625 35.0488 56.4188 34.956 56.2038 34.9627H39.6179C37.3194 34.9665 35.3759 36.6645 35.0635 38.9416H50.1908C50.9841 38.9396 51.7372 39.2897 52.2473 39.8972L55.7399 44.0492H75.3826C79.0156 44.0554 81.9594 46.9991 81.9655 50.6322V74.0357C84.269 73.7483 85.9984 71.7915 86.0002 69.4701V44.6751C85.9942 42.1463 83.9522 40.0944 81.4235 40.076Z" fill="#466F82"/>
    </symbol>

    <symbol id="calc" width="44" height="44" viewBox="0 0 44 44">
        <circle cx="22" cy="22" r="22" fill="white"/>
        <g clip-path="url(#clip0_301_679)">
        <path fill-rule="evenodd" clip-rule="evenodd" d="M28.7031 12C29.8077 12 30.7031 12.8954 30.7031 14V31C30.7031 32.1046 29.8077 33 28.7031 33H16.2969C15.1923 33 14.2969 32.1046 14.2969 31V14C14.2969 12.8954 15.1923 12 16.2969 12H28.7031ZM19.5469 28.7344C19.5469 28.1907 19.1062 27.75 18.5625 27.75C18.0188 27.75 17.5781 28.1907 17.5781 28.7344C17.5781 29.278 18.0188 29.7188 18.5625 29.7188C19.1062 29.7188 19.5469 29.278 19.5469 28.7344ZM23.4844 28.7344C23.4844 28.1907 23.0437 27.75 22.5 27.75C21.9563 27.75 21.5156 28.1907 21.5156 28.7344C21.5156 29.278 21.9563 29.7188 22.5 29.7188C23.0437 29.7188 23.4844 29.278 23.4844 28.7344ZM27.4219 28.7344C27.4219 28.1907 26.9812 27.75 26.4375 27.75C25.8938 27.75 25.4531 28.1907 25.4531 28.7344C25.4531 29.278 25.8938 29.7188 26.4375 29.7188C26.9812 29.7188 27.4219 29.278 27.4219 28.7344ZM19.5469 24.7969C19.5469 24.2532 19.1062 23.8125 18.5625 23.8125C18.0188 23.8125 17.5781 24.2532 17.5781 24.7969C17.5781 25.3405 18.0188 25.7812 18.5625 25.7812C19.1062 25.7812 19.5469 25.3405 19.5469 24.7969ZM23.4844 24.7969C23.4844 24.2532 23.0437 23.8125 22.5 23.8125C21.9563 23.8125 21.5156 24.2532 21.5156 24.7969C21.5156 25.3405 21.9563 25.7812 22.5 25.7812C23.0437 25.7812 23.4844 25.3405 23.4844 24.7969ZM27.4219 24.7969C27.4219 24.2532 26.9812 23.8125 26.4375 23.8125C25.8938 23.8125 25.4531 24.2532 25.4531 24.7969C25.4531 25.3405 25.8938 25.7812 26.4375 25.7812C26.9812 25.7812 27.4219 25.3405 27.4219 24.7969ZM19.5469 20.8594C19.5469 20.3157 19.1062 19.875 18.5625 19.875C18.0188 19.875 17.5781 20.3157 17.5781 20.8594C17.5781 21.403 18.0188 21.8438 18.5625 21.8438C19.1062 21.8438 19.5469 21.403 19.5469 20.8594ZM23.4844 20.8594C23.4844 20.3157 23.0437 19.875 22.5 19.875C21.9563 19.875 21.5156 20.3157 21.5156 20.8594C21.5156 21.403 21.9563 21.8438 22.5 21.8438C23.0437 21.8438 23.4844 21.403 23.4844 20.8594ZM27.4219 20.8594C27.4219 20.3157 26.9812 19.875 26.4375 19.875C25.8938 19.875 25.4531 20.3157 25.4531 20.8594C25.4531 21.403 25.8938 21.8438 26.4375 21.8438C26.9812 21.8438 27.4219 21.403 27.4219 20.8594ZM28.7344 15.9375C28.7344 14.8502 27.8529 13.9688 26.7656 13.9688H18.2344C17.1471 13.9688 16.2656 14.8502 16.2656 15.9375C16.2656 17.0248 17.1471 17.9062 18.2344 17.9062H26.7656C27.8529 17.9062 28.7344 17.0248 28.7344 15.9375Z" fill="#FFAF3E"/>
        </g>
        <defs>
        <clipPath id="clip0_301_679">
        <rect x="12" y="12" width="21" height="21" rx="2" fill="white"/>
        </clipPath>
        </defs>
    </symbol>

    <symbol id="img" width="44" height="44" viewBox="0 0 44 44">
         <circle cx="22" cy="22" r="22" fill="white"/>
        <path d="M14.8926 30.5903H30.1065C31.9434 30.5903 32.8663 29.6763 32.8663 27.8657V17.1343C32.8663 15.3237 31.9434 14.4097 30.1065 14.4097H14.8926C13.0645 14.4097 12.1328 15.3149 12.1328 17.1343V27.8657C12.1328 29.6851 13.0645 30.5903 14.8926 30.5903ZM26.7314 22.478C26.3359 22.1265 25.8877 21.9419 25.4131 21.9419C24.9209 21.9419 24.4902 22.1089 24.0859 22.4692L20.1133 26.02L18.4873 24.5434C18.1181 24.2182 17.7227 24.0425 17.3008 24.0425C16.9141 24.0425 16.5361 24.2095 16.1758 24.5347L13.5478 26.8989V17.2046C13.5478 16.2905 14.04 15.8247 14.919 15.8247H30.08C30.9502 15.8247 31.4511 16.2905 31.4511 17.2046V26.9077L26.7314 22.478ZM18.6806 22.5747C19.8145 22.5747 20.7461 21.6431 20.7461 20.5005C20.7461 19.3667 19.8145 18.4263 18.6806 18.4263C17.5381 18.4263 16.6065 19.3667 16.6065 20.5005C16.6065 21.6431 17.5381 22.5747 18.6806 22.5747Z" fill="#FFAF3E"/>
    </symbol>
    
    <symbol id="autumn" width="104" height="104" viewBox="0 0 104 104">
        <path d="M98.6026 35.121C97.2506 25.5634 89.9394 19.4066 80.413 18.6058C77.8234 18.3874 74.3394 18.9282 71.4378 20.1242C68.4114 11.2842 60.0394 5.2002 50.6898 5.2002C40.3626 5.2002 31.3874 12.6362 29.245 22.7138C26.3954 20.9978 22.4954 21.0082 21.9234 21.0082C13.7282 21.0082 6.7914 26.9362 5.4394 35.0898C5.2834 36.005 5.2002 36.9514 5.2002 37.9082V39.229C5.2002 50.5546 14.3626 59.7586 25.6258 59.7586H78.385C89.6378 59.769 98.8002 50.5546 98.8002 39.229V37.9082C98.8002 36.9722 98.7378 36.0362 98.6026 35.121ZM96.7618 39.229C96.7618 49.4314 88.5146 57.7306 78.3746 57.7306H25.6258C15.4858 57.7306 7.2386 49.4314 7.2386 39.229V37.9082C7.2386 37.0658 7.3114 36.2338 7.44659 35.433C8.6426 28.257 14.7266 23.0466 21.9234 23.0466C22.589 23.0466 23.2546 23.0882 23.8994 23.1818C25.865 23.4522 27.7578 24.1178 29.4634 25.1578C32.0218 26.7178 34.029 28.9954 35.2666 31.7514C35.4954 32.261 36.0986 32.4898 36.6082 32.261C37.1178 32.0322 37.3466 31.429 37.1178 30.9194C35.8074 28.0074 33.7378 25.5738 31.1066 23.8266C32.7914 14.3314 41.0802 7.249 50.6794 7.249C59.2802 7.249 66.945 12.9274 69.597 21.1434C65.957 23.3274 63.097 26.6658 61.5162 30.649C61.3082 31.169 61.5682 31.7618 62.0882 31.9698C62.6082 32.1778 63.201 31.9178 63.409 31.3978C64.917 27.5914 67.725 24.4298 71.3026 22.485C73.7882 21.133 76.6066 20.4154 79.4666 20.4154C88.0154 20.4154 95.3786 26.8634 96.585 35.4226C96.6994 36.2442 96.7618 37.0866 96.7618 37.929V39.229Z" fill="#FFAF3E"/>
        <path d="M77.4699 65.8008C76.9083 65.8008 76.4507 66.2584 76.4507 66.82V87.0272C76.4507 87.5888 76.9083 88.0464 77.4699 88.0464C78.0315 88.0464 78.4891 87.5888 78.4891 87.0272V66.82C78.4891 66.2584 78.0315 65.8008 77.4699 65.8008Z" fill="#FFAF3E"/>
        <path d="M77.4699 91.0518C76.9083 91.0518 76.4507 91.5094 76.4507 92.071V97.1254C76.4507 97.687 76.9083 98.1446 77.4699 98.1446C78.0315 98.1446 78.4891 97.687 78.4891 97.1254V92.071C78.4891 91.5094 78.0315 91.0518 77.4699 91.0518Z" fill="#FFAF3E"/>
        <path d="M67.2257 83.5642C67.7873 83.5642 68.2449 83.1066 68.2449 82.545V67.3923C68.2449 66.8307 67.7873 66.373 67.2257 66.373C66.6641 66.373 66.2065 66.8307 66.2065 67.3923V82.545C66.2065 83.1066 66.6641 83.5642 67.2257 83.5642Z" fill="#FFAF3E"/>
        <path d="M67.236 86.6631C66.6744 86.6631 66.2168 87.1207 66.2168 87.6823V97.7807C66.2168 98.3423 66.6744 98.7999 67.236 98.7999C67.7976 98.7999 68.2552 98.3423 68.2552 97.7807V87.6823C68.2552 87.1207 67.7976 86.6631 67.236 86.6631Z" fill="#FFAF3E"/>
        <path d="M57.1276 65.8008C56.566 65.8008 56.1084 66.2584 56.1084 66.82V87.0272C56.1084 87.5888 56.566 88.0464 57.1276 88.0464C57.6892 88.0464 58.1468 87.5888 58.1468 87.0272V66.82C58.1364 66.2584 57.6892 65.8008 57.1276 65.8008Z" fill="#FFAF3E"/>
        <path d="M57.1276 91.0518C56.566 91.0518 56.1084 91.5094 56.1084 92.071V97.1254C56.1084 97.687 56.566 98.1446 57.1276 98.1446C57.6892 98.1446 58.1468 97.687 58.1468 97.1254V92.071C58.1364 91.5094 57.6892 91.0518 57.1276 91.0518Z" fill="#FFAF3E"/>
        <path d="M46.8732 83.5642C47.4348 83.5642 47.8924 83.1066 47.8924 82.545V67.3923C47.8924 66.8307 47.4348 66.373 46.8732 66.373C46.3116 66.373 45.854 66.8307 45.854 67.3923V82.545C45.8644 83.1066 46.3116 83.5642 46.8732 83.5642Z" fill="#FFAF3E"/>
        <path d="M46.8937 86.6631C46.3321 86.6631 45.8745 87.1207 45.8745 87.6823V97.7807C45.8745 98.3423 46.3321 98.7999 46.8937 98.7999C47.4553 98.7999 47.9129 98.3423 47.9129 97.7807V87.6823C47.9025 87.1207 47.4553 86.6631 46.8937 86.6631Z" fill="#FFAF3E"/>
        <path d="M36.7746 65.8008C36.213 65.8008 35.7554 66.2584 35.7554 66.82V87.0272C35.7554 87.5888 36.213 88.0464 36.7746 88.0464C37.3362 88.0464 37.7938 87.5888 37.7938 87.0272V66.82C37.7938 66.2584 37.3362 65.8008 36.7746 65.8008Z" fill="#FFAF3E"/>
        <path d="M36.7746 91.0518C36.213 91.0518 35.7554 91.5094 35.7554 92.071V97.1254C35.7554 97.687 36.213 98.1446 36.7746 98.1446C37.3362 98.1446 37.7938 97.687 37.7938 97.1254V92.071C37.7938 91.5094 37.3362 91.0518 36.7746 91.0518Z" fill="#FFAF3E"/>
        <path d="M26.5304 83.5642C27.092 83.5642 27.5496 83.1066 27.5496 82.545V67.3923C27.5496 66.8307 27.092 66.373 26.5304 66.373C25.9688 66.373 25.5112 66.8307 25.5112 67.3923V82.545C25.5112 83.1066 25.9688 83.5642 26.5304 83.5642Z" fill="#FFAF3E"/>
        <path d="M26.5407 86.6631C25.9791 86.6631 25.5215 87.1207 25.5215 87.6823V97.7807C25.5215 98.3423 25.9791 98.7999 26.5407 98.7999C27.1023 98.7999 27.5599 98.3423 27.5599 97.7807V87.6823C27.5599 87.1207 27.1023 86.6631 26.5407 86.6631Z" fill="#FFAF3E"/>
    </symbol>

    <symbol id="winter" width="104" height="104" viewBox="0 0 104 104">
        <path d="M88.9783 58.124H61.8227C61.1756 58.124 60.6672 57.6156 60.6672 56.9684C60.6672 56.3213 61.1756 55.8129 61.8227 55.8129H88.9783C95.4725 55.8129 100.765 50.5204 100.765 44.0262C100.765 39.2422 97.8992 34.9667 93.4849 33.1409C92.9303 32.9098 92.6298 32.2858 92.8378 31.708C93.4849 29.836 93.7854 27.8484 93.7854 25.8609C93.7854 15.7613 85.5809 7.55688 75.4814 7.55688C69.2645 7.55688 63.5098 10.6769 60.1356 15.9C59.7889 16.4315 59.0725 16.5933 58.5409 16.2467C56.6458 15.0218 54.4272 14.3515 52.1392 14.3515C45.7374 14.3515 40.4449 19.5515 40.3525 25.9533C40.3525 26.3231 40.1676 26.6467 39.8903 26.8547C39.5898 27.0627 39.22 27.132 38.8734 27.0395C37.7872 26.716 36.6778 26.5542 35.5454 26.5542C31.524 26.5542 27.8263 28.5649 25.6307 31.9622C25.4689 32.2164 25.1916 32.4013 24.8912 32.4707C19.4138 33.5569 15.4156 38.4333 15.4156 44.0262C15.4156 46.0369 15.9472 48.0475 16.9178 49.7809C17.2183 50.3355 17.0334 51.052 16.4787 51.3524C15.924 51.6529 15.2076 51.468 14.9072 50.9133C13.7285 48.8102 13.1045 46.4298 13.1045 44.0031C13.1045 37.4627 17.6343 31.7773 23.9436 30.2982C26.5783 26.4849 30.8769 24.2431 35.5223 24.2431C36.4005 24.2431 37.2787 24.3124 38.1338 24.4742C38.9427 17.4715 44.9516 12.0173 52.1392 12.0173C54.4734 12.0173 56.7614 12.5951 58.8183 13.7044C62.7009 8.36577 68.8485 5.22266 75.4814 5.22266C86.8521 5.22266 96.0965 14.4671 96.0965 25.8378C96.0965 27.7329 95.8423 29.628 95.3338 31.4307C100.072 33.8111 103.076 38.6413 103.076 44.0262C103.076 51.7915 96.7436 58.124 88.9783 58.124Z" fill="#FFAF3E"/>
        <path d="M85.9739 28.38C85.3268 28.38 84.8184 27.8715 84.8184 27.2244C84.8184 20.7995 79.5953 15.5533 73.1473 15.5533C72.5001 15.5533 71.9917 15.0449 71.9917 14.3977C71.9917 13.7506 72.5001 13.2422 73.1473 13.2422C80.8664 13.2422 87.1295 19.5053 87.1295 27.2244C87.1295 27.8715 86.621 28.38 85.9739 28.38Z" fill="#FFAF3E"/>
        <path d="M55.3515 73.9325H11.3017C5.57014 73.9325 0.924805 69.264 0.924805 63.5556C0.924805 58.7947 4.20658 54.6116 8.80569 53.4791C10.747 50.7289 13.8901 49.1111 17.2644 49.1111C17.7959 49.1111 18.3275 49.1574 18.8359 49.2267C19.5986 44.2347 23.9204 40.3983 29.0972 40.3983C30.7381 40.3983 32.3097 40.768 33.7657 41.5076C36.6084 37.7636 40.9995 35.5449 45.7372 35.5449C54.0341 35.5449 60.7595 42.2934 60.7595 50.5671C60.7595 51.8614 60.5977 53.1556 60.2741 54.3805C63.6252 56.1831 65.7515 59.6729 65.7515 63.5325C65.7515 69.264 61.083 73.9325 55.3515 73.9325ZM17.2644 51.4223C14.5141 51.4223 11.9719 52.8089 10.4697 55.12C10.3079 55.3743 10.0306 55.5591 9.73014 55.6285C5.96303 56.3911 3.23592 59.7191 3.23592 63.5556C3.23592 68.016 6.86436 71.6214 11.3017 71.6214H55.3515C59.8119 71.6214 63.4172 67.9929 63.4172 63.5556C63.4172 60.2738 61.4528 57.3387 58.4253 56.0907C57.8706 55.8596 57.5701 55.2356 57.7781 54.6578C58.2172 53.3405 58.4484 51.9769 58.4484 50.5903C58.4484 43.5645 52.7399 37.8791 45.7372 37.8791C41.4155 37.8791 37.4172 40.0516 35.0599 43.68C34.7132 44.2116 33.9968 44.3734 33.4652 44.0267C32.171 43.1947 30.6457 42.7325 29.0972 42.7325C24.7061 42.7325 21.1008 46.2916 21.0315 50.6827C21.0315 51.0525 20.8466 51.376 20.5692 51.584C20.2688 51.792 19.899 51.8614 19.5524 51.7689C18.7897 51.5378 18.027 51.4223 17.2644 51.4223Z" fill="#FFAF3E"/>
        <path d="M71.0901 84.4016C70.443 84.4016 69.9346 83.8932 69.9346 83.2461V74.7181C69.9346 74.0709 70.443 73.5625 71.0901 73.5625C71.7372 73.5625 72.2457 74.0709 72.2457 74.7181V83.2461C72.2457 83.8932 71.7372 84.4016 71.0901 84.4016Z" fill="#FFAF3E"/>
        <path d="M74.7881 82.2749C74.5801 82.2749 74.3952 82.2286 74.2104 82.1131L66.8379 77.8606C66.2832 77.5371 66.0983 76.8437 66.4219 76.2891C66.7455 75.7344 67.4388 75.5495 67.9935 75.8731L75.3659 80.1255C75.9206 80.4491 76.1055 81.1424 75.7819 81.6971C75.5739 82.0669 75.181 82.2749 74.7881 82.2749Z" fill="#FFAF3E"/>
        <path d="M67.4157 82.2749C67.0228 82.2749 66.6299 82.0669 66.4219 81.6971C66.0983 81.1424 66.2832 80.426 66.8379 80.1255L74.2104 75.8731C74.765 75.5495 75.4815 75.7344 75.7819 76.2891C76.1055 76.8437 75.9206 77.5602 75.3659 77.8606L67.9935 82.1131C67.8086 82.2286 67.6006 82.2749 67.4157 82.2749Z" fill="#FFAF3E"/>
        <path d="M88.3772 75.2034C87.7301 75.2034 87.2217 74.6949 87.2217 74.0478V65.5198C87.2217 64.8727 87.7301 64.3643 88.3772 64.3643C89.0243 64.3643 89.5328 64.8727 89.5328 65.5198V74.0478C89.5328 74.6949 89.0243 75.2034 88.3772 75.2034Z" fill="#FFAF3E"/>
        <path d="M92.0752 73.0766C91.8672 73.0766 91.6823 73.0304 91.4975 72.9148L84.125 68.6624C83.5703 68.3388 83.3855 67.6455 83.709 67.0908C84.0326 66.5362 84.7259 66.3513 85.2806 66.6748L92.653 70.9273C93.2077 71.2508 93.3926 71.9442 93.069 72.4988C92.861 72.8686 92.4681 73.0766 92.0752 73.0766Z" fill="#FFAF3E"/>
        <path d="M84.7028 73.0766C84.3099 73.0766 83.917 72.8686 83.709 72.4988C83.3855 71.9442 83.5703 71.2277 84.125 70.9273L91.4975 66.6748C92.0521 66.3513 92.7686 66.5362 93.069 67.0908C93.3926 67.6455 93.2077 68.3619 92.653 68.6624L85.2806 72.9379C85.0957 73.0304 84.8877 73.0766 84.7028 73.0766Z" fill="#FFAF3E"/>
        <path d="M17.7727 87.5673C17.1256 87.5673 16.6172 87.0589 16.6172 86.4118V78.6233C16.6172 77.9762 17.1256 77.4678 17.7727 77.4678C18.4199 77.4678 18.9283 77.9762 18.9283 78.6233V86.4118C18.9283 87.0358 18.4199 87.5673 17.7727 87.5673Z" fill="#FFAF3E"/>
        <path d="M21.147 85.603C20.9621 85.603 20.7541 85.5568 20.5693 85.4412L13.8208 81.5354C13.2661 81.2119 13.0813 80.5185 13.4048 79.9639C13.7284 79.4092 14.4217 79.2243 14.9764 79.5479L21.7248 83.4537C22.2795 83.7772 22.4644 84.4705 22.1408 85.0252C21.9328 85.395 21.5399 85.603 21.147 85.603Z" fill="#FFAF3E"/>
        <path d="M14.3986 85.6033C14.0057 85.6033 13.6128 85.3953 13.4048 85.0255C13.0813 84.4709 13.2661 83.7544 13.8208 83.454L20.5693 79.5713C21.1239 79.2478 21.8173 79.4327 22.1408 79.9873C22.4644 80.542 22.2795 81.2584 21.7248 81.5589L14.9764 85.4647C14.7915 85.5571 14.6066 85.6033 14.3986 85.6033Z" fill="#FFAF3E"/>
        <path d="M32.7952 98.7763C32.1481 98.7763 31.6396 98.2679 31.6396 97.6208V89.8323C31.6396 89.1852 32.1481 88.6768 32.7952 88.6768C33.4423 88.6768 33.9508 89.1852 33.9508 89.8323V97.6208C33.9508 98.2448 33.4423 98.7763 32.7952 98.7763Z" fill="#FFAF3E"/>
        <path d="M36.169 96.812C35.961 96.812 35.7761 96.7658 35.5912 96.6502L28.8428 92.7444C28.2881 92.4209 28.1032 91.7275 28.4268 91.1729C28.7503 90.6182 29.4437 90.4333 29.9983 90.7569L36.7468 94.6395C37.3015 94.9631 37.4863 95.6564 37.1628 96.2111C36.9548 96.604 36.5619 96.812 36.169 96.812Z" fill="#FFAF3E"/>
        <path d="M29.4206 96.812C29.0277 96.812 28.6348 96.604 28.4268 96.2342C28.1032 95.6795 28.2881 94.9631 28.8428 94.6626L35.5912 90.7569C36.1459 90.4333 36.8392 90.6182 37.1628 91.1729C37.4863 91.7275 37.3015 92.444 36.7468 92.7444L29.9983 96.6502C29.8135 96.7658 29.6286 96.812 29.4206 96.812Z" fill="#FFAF3E"/>
        <path d="M40.8841 85.372C40.237 85.372 39.7285 84.8636 39.7285 84.2165V76.428C39.7285 75.7809 40.237 75.2725 40.8841 75.2725C41.5312 75.2725 42.0396 75.7809 42.0396 76.428V84.2165C42.0396 84.8405 41.5312 85.372 40.8841 85.372Z" fill="#FFAF3E"/>
        <path d="M44.2584 83.4077C44.0504 83.4077 43.8655 83.3615 43.6806 83.2459L36.9321 79.3401C36.3775 79.0166 36.1926 78.3232 36.5161 77.7686C36.8397 77.2139 37.533 77.029 38.0877 77.3526L44.8361 81.2352C45.3908 81.5588 45.5757 82.2521 45.2521 82.8068C45.0441 83.1997 44.6513 83.4077 44.2584 83.4077Z" fill="#FFAF3E"/>
        <path d="M37.5099 83.4077C37.117 83.4077 36.7241 83.1997 36.5161 82.8299C36.1926 82.2752 36.3775 81.5588 36.9321 81.2583L43.6806 77.3526C44.2353 77.029 44.9286 77.2139 45.2521 77.7686C45.5757 78.3232 45.3908 79.0397 44.8361 79.3401L38.0877 83.2459C37.9028 83.3615 37.7179 83.4077 37.5099 83.4077Z" fill="#FFAF3E"/>
        <path d="M40.8841 85.372C40.237 85.372 39.7285 84.8636 39.7285 84.2165V76.428C39.7285 75.7809 40.237 75.2725 40.8841 75.2725C41.5312 75.2725 42.0396 75.7809 42.0396 76.428V84.2165C42.0396 84.8405 41.5312 85.372 40.8841 85.372Z" fill="#FFAF3E"/>
        <path d="M44.2584 83.4077C44.0504 83.4077 43.8655 83.3615 43.6806 83.2459L36.9321 79.3401C36.3775 79.0166 36.1926 78.3232 36.5161 77.7686C36.8397 77.2139 37.533 77.029 38.0877 77.3526L44.8361 81.2352C45.3908 81.5588 45.5757 82.2521 45.2521 82.8068C45.0441 83.1997 44.6513 83.4077 44.2584 83.4077Z" fill="#FFAF3E"/>
        <path d="M37.5099 83.4077C37.117 83.4077 36.7241 83.1997 36.5161 82.8299C36.1926 82.2752 36.3775 81.5588 36.9321 81.2583L43.6806 77.3526C44.2353 77.029 44.9286 77.2139 45.2521 77.7686C45.5757 78.3232 45.3908 79.0397 44.8361 79.3401L38.0877 83.2459C37.9028 83.3615 37.7179 83.4077 37.5099 83.4077Z" fill="#FFAF3E"/>
        <path d="M54.5193 94.8476C53.8722 94.8476 53.3638 94.3392 53.3638 93.692V85.9036C53.3638 85.2565 53.8722 84.748 54.5193 84.748C55.1664 84.748 55.6749 85.2565 55.6749 85.9036V93.692C55.6749 94.316 55.1664 94.8476 54.5193 94.8476Z" fill="#FFAF3E"/>
        <path d="M57.8936 92.8833C57.6856 92.8833 57.5007 92.837 57.3158 92.7215L50.5674 88.8157C50.0127 88.4922 49.8278 87.7988 50.1514 87.2442C50.475 86.6895 51.1683 86.5046 51.723 86.8282L58.4714 90.7108C59.0261 91.0344 59.211 91.7277 58.8874 92.2824C58.6794 92.6753 58.2865 92.8833 57.8936 92.8833Z" fill="#FFAF3E"/>
        <path d="M51.1452 92.8833C50.7523 92.8833 50.3594 92.6753 50.1514 92.3055C49.8278 91.7508 50.0127 91.0344 50.5674 90.7339L57.3158 86.8282C57.8705 86.5046 58.587 86.6895 58.8874 87.2442C59.1878 87.7988 59.0261 88.5153 58.4714 88.8157L51.723 92.7215C51.5381 92.837 51.3532 92.8833 51.1452 92.8833Z" fill="#FFAF3E"/>
        <path d="M74.3948 70.1191C73.7477 70.1191 73.2393 69.6106 73.2393 68.9635V61.1751C73.2393 60.528 73.7477 60.0195 74.3948 60.0195C75.0419 60.0195 75.5504 60.528 75.5504 61.1751V68.9635C75.5504 69.5875 75.0419 70.1191 74.3948 70.1191Z" fill="#FFAF3E"/>
        <path d="M77.7696 68.1538C77.5616 68.1538 77.3767 68.1076 77.1918 67.992L70.4434 64.0862C69.8887 63.7627 69.7038 63.0693 70.0274 62.5147C70.3509 61.96 71.0443 61.7751 71.5989 62.0987L78.3474 66.0044C78.902 66.328 79.0869 67.0213 78.7634 67.576C78.5554 67.9458 78.1625 68.1538 77.7696 68.1538Z" fill="#FFAF3E"/>
        <path d="M71.0211 68.1538C70.6283 68.1538 70.2354 67.9458 70.0274 67.576C69.7038 67.0213 69.8887 66.3049 70.4434 66.0044L77.1918 62.0987C77.7465 61.7751 78.4629 61.96 78.7634 62.5147C79.0869 63.0693 78.902 63.7858 78.3474 64.0862L71.5989 67.992C71.414 68.1076 71.2291 68.1538 71.0211 68.1538Z" fill="#FFAF3E"/>
        <path d="M82.4837 95.7724C81.8366 95.7724 81.3281 95.264 81.3281 94.6168V86.8284C81.3281 86.1813 81.8366 85.6729 82.4837 85.6729C83.1308 85.6729 83.6392 86.1813 83.6392 86.8284V94.6168C83.6392 95.2408 83.1308 95.7724 82.4837 95.7724Z" fill="#FFAF3E"/>
        <path d="M85.8585 93.8071C85.6505 93.8071 85.4656 93.7609 85.2807 93.6453L78.5322 89.7395C77.9776 89.416 77.7927 88.7226 78.1162 88.168C78.4398 87.6133 79.1331 87.4284 79.6878 87.752L86.4362 91.6578C86.9909 91.9813 87.1758 92.6746 86.8522 93.2293C86.6442 93.5991 86.2514 93.8071 85.8585 93.8071Z" fill="#FFAF3E"/>
        <path d="M79.11 93.8071C78.7171 93.8071 78.3242 93.5991 78.1162 93.2293C77.7927 92.6746 77.9776 91.9582 78.5322 91.6578L85.2807 87.752C85.8354 87.4284 86.5518 87.6133 86.8522 88.168C87.1758 88.7226 86.9909 89.4391 86.4362 89.7395L79.6878 93.6453C79.5029 93.7609 79.318 93.8071 79.11 93.8071Z" fill="#FFAF3E"/>
    </symbol>

    <symbol id="spring" width="104" height="104" viewBox="0 0 104 104">
        <path d="M89.4749 21.8305L87.1772 24.1283C87.0225 24.2783 86.8992 24.4576 86.8145 24.6557C86.7298 24.8538 86.6853 25.0668 86.6836 25.2823C86.682 25.4978 86.7232 25.7114 86.8049 25.9108C86.8866 26.1102 87.0071 26.2913 87.1595 26.4437C87.3119 26.5961 87.493 26.7166 87.6924 26.7983C87.8918 26.88 88.1054 26.9213 88.3209 26.9196C88.5364 26.918 88.7494 26.8736 88.9475 26.7888C89.1456 26.7041 89.3249 26.5808 89.4749 26.4262L91.7729 24.1283C91.9275 23.9782 92.0508 23.7989 92.1355 23.6008C92.2202 23.4027 92.2647 23.1897 92.2663 22.9742C92.268 22.7587 92.2267 22.5451 92.145 22.3457C92.0633 22.1463 91.9428 21.9652 91.7904 21.8128C91.638 21.6605 91.4569 21.5399 91.2575 21.4582C91.0581 21.3765 90.8444 21.3353 90.629 21.337C90.4135 21.3386 90.2005 21.3831 90.0024 21.4678C89.8043 21.5526 89.625 21.6758 89.4749 21.8305Z" fill="#FFAF3E"/>
        <path d="M64.7816 19.8102C64.8933 20.2265 65.1659 20.5813 65.5392 20.7966C65.9125 21.012 66.3561 21.0702 66.7724 20.9584C67.1887 20.8467 67.5435 20.5742 67.7588 20.2009C67.9742 19.8275 68.0324 19.3839 67.9206 18.9677L67.0787 15.8286C66.967 15.4124 66.6944 15.0576 66.3211 14.8423C65.9477 14.627 65.5042 14.5688 65.0879 14.6806C64.6717 14.7923 64.3169 15.0649 64.1016 15.4382C63.8863 15.8116 63.8281 16.2551 63.9399 16.6714L64.7816 19.8102Z" fill="#FFAF3E"/>
        <path d="M46.7036 36.2042L49.8427 37.0461C50.2589 37.1578 50.7025 37.0996 51.0759 36.8843C51.4492 36.669 51.7217 36.3141 51.8334 35.8979C51.9452 35.4816 51.887 35.038 51.6716 34.6647C51.4563 34.2913 51.1015 34.0188 50.6852 33.9071L47.5464 33.0653C47.3403 33.01 47.1253 32.9958 46.9137 33.0236C46.7021 33.0513 46.4981 33.1205 46.3132 33.2271C45.9399 33.4424 45.6673 33.7972 45.5556 34.2134C45.5002 34.4195 45.486 34.6345 45.5138 34.8461C45.5415 35.0577 45.6107 35.2617 45.7173 35.4466C45.8239 35.6314 45.9659 35.7935 46.1351 35.9235C46.3044 36.0535 46.4975 36.1489 46.7036 36.2042Z" fill="#FFAF3E"/>
        <path d="M97.774 46.5238L94.6342 45.6827C94.4268 45.6234 94.2097 45.606 93.9955 45.6315C93.7814 45.657 93.5744 45.7248 93.3867 45.8311C93.1991 45.9374 93.0344 46.08 92.9024 46.2506C92.7704 46.4211 92.6737 46.6163 92.6179 46.8246C92.562 47.0329 92.5483 47.2503 92.5773 47.464C92.6064 47.6777 92.6777 47.8835 92.7871 48.0694C92.8965 48.2553 93.0418 48.4175 93.2145 48.5466C93.3873 48.6758 93.584 48.7692 93.7932 48.8216L96.9329 49.6627C97.1402 49.7218 97.3572 49.739 97.5713 49.7134C97.7853 49.6879 97.9921 49.6199 98.1797 49.5136C98.3672 49.4074 98.5317 49.2648 98.6637 49.0943C98.7956 48.9238 98.8922 48.7288 98.948 48.5205C99.0038 48.3123 99.0176 48.0951 98.9887 47.8814C98.9597 47.6678 98.8885 47.4621 98.7792 47.2763C98.6699 47.0905 98.5248 46.9282 98.3522 46.799C98.1796 46.6698 97.9831 46.5763 97.774 46.5238Z" fill="#FFAF3E"/>
        <path d="M77.7065 20.9584C77.9126 21.0141 78.1277 21.0286 78.3394 21.001C78.5512 20.9734 78.7554 20.9042 78.9403 20.7974C79.1252 20.6907 79.2872 20.5484 79.4169 20.3788C79.5467 20.2093 79.6417 20.0157 79.6965 19.8094L80.5376 16.6705C80.6401 16.2573 80.5763 15.8204 80.36 15.4537C80.1437 15.087 79.7922 14.8199 79.381 14.7097C78.9698 14.5995 78.5317 14.6551 78.1611 14.8645C77.7904 15.0738 77.5167 15.4203 77.3989 15.8294L76.5578 18.9684C76.4463 19.3846 76.5047 19.8281 76.7201 20.2013C76.9355 20.5744 77.2903 20.8468 77.7065 20.9584Z" fill="#FFAF3E"/>
        <path d="M55.0029 26.4258C55.309 26.7242 55.7202 26.89 56.1476 26.8873C56.575 26.8846 56.9841 26.7136 57.2864 26.4114C57.5886 26.1091 57.7596 25.7 57.7623 25.2726C57.765 24.8452 57.5992 24.434 57.3008 24.1279L55.0029 21.8302C54.6964 21.5342 54.286 21.3704 53.8599 21.3741C53.4338 21.3778 53.0263 21.5487 52.725 21.85C52.4237 22.1513 52.2528 22.5588 52.2491 22.9849C52.2454 23.411 52.4092 23.8215 52.7052 24.1279L55.0029 26.4258Z" fill="#FFAF3E"/>
        <path d="M89.4746 56.3019C89.1681 56.0059 88.7577 55.8421 88.3316 55.8458C87.9055 55.8495 87.4979 56.0204 87.1967 56.3217C86.8954 56.6229 86.7245 57.0305 86.7208 57.4566C86.7171 57.8827 86.8809 58.2931 87.1769 58.5996L89.4746 60.8975C89.6248 61.0516 89.8041 61.1742 90.002 61.2585C90.2 61.3427 90.4127 61.3867 90.6278 61.3881C90.843 61.3895 91.0562 61.3481 91.2552 61.2664C91.4542 61.1847 91.6351 61.0643 91.7872 60.9122C91.9393 60.7601 92.0597 60.5792 92.1414 60.3802C92.2231 60.1812 92.2645 59.968 92.2631 59.7528C92.2617 59.5377 92.2177 59.325 92.1335 59.127C92.0492 58.9291 91.9266 58.7498 91.7725 58.5996L89.4746 56.3019Z" fill="#FFAF3E"/>
        <path d="M94.2129 37.1025C94.3551 37.1024 94.4968 37.0835 94.6341 37.0463L97.7739 36.2043C98.184 36.0874 98.5318 35.8139 98.7421 35.4429C98.9524 35.0718 99.0084 34.633 98.898 34.221C98.7876 33.809 98.5197 33.457 98.152 33.2408C97.7844 33.0246 97.3465 32.9617 96.9328 33.0655L93.7931 33.9072C93.4119 34.0088 93.0806 34.2456 92.8611 34.5735C92.6416 34.9014 92.5489 35.2979 92.6003 35.6891C92.6517 36.0803 92.8436 36.4395 93.1404 36.6995C93.4371 36.9596 93.8183 37.1028 94.2129 37.1025Z" fill="#FFAF3E"/>
        <path d="M90.1143 41.3633C90.1143 36.6225 88.2311 32.076 84.8788 28.7237C81.5266 25.3715 76.98 23.4883 72.2393 23.4883C67.4986 23.4883 62.952 25.3715 59.5998 28.7237C56.2476 32.076 54.3643 36.6225 54.3643 41.3633C54.3643 41.6711 54.391 41.9831 54.4119 42.2941C51.5678 41.199 48.5474 40.6331 45.4998 40.6246C41.6553 40.6335 37.8636 41.5203 34.4138 43.2171C30.9641 44.9139 27.9473 47.3761 25.5935 50.4158C25.1754 50.388 24.7714 50.3746 24.3748 50.3746C21.4504 50.3741 18.5634 51.0315 15.9275 52.2979C13.2916 53.5643 10.9743 55.4073 9.14708 57.6906C7.31989 59.9738 6.02963 62.6388 5.37182 65.4882C4.71401 68.3376 4.70549 71.2984 5.3469 74.1516C5.98832 77.0047 7.26323 79.6771 9.07726 81.9708C10.8913 84.2645 13.198 86.1208 15.8266 87.4024C18.4552 88.6839 21.3383 89.3578 24.2626 89.3742C27.1869 89.3907 30.0775 88.7491 32.7203 87.4972C36.5888 89.7898 41.0029 90.9995 45.4998 90.9995C49.9966 90.9995 54.4107 89.7898 58.2793 87.4972C62.3507 89.4351 66.9684 89.9002 71.3446 88.8132C75.7207 87.7261 79.5841 85.1543 82.2754 81.5364C84.9668 77.9186 86.3194 73.479 86.1025 68.9751C85.8856 64.4711 84.1126 60.1821 81.086 56.8396C83.8275 55.2916 86.1082 53.0428 87.6946 50.3233C89.2811 47.6039 90.1161 44.5116 90.1143 41.3633ZM57.6143 41.3633C57.6054 38.747 58.2986 36.1762 59.6215 33.919C60.9444 31.6617 62.8486 29.8007 65.1355 28.5299C67.4225 27.2591 70.0085 26.625 72.6239 26.6938C75.2393 26.7626 77.7884 27.5318 80.0053 28.9211C82.2223 30.3104 84.026 32.269 85.2284 34.5927C86.4307 36.9164 86.9877 39.52 86.8413 42.1322C86.6949 44.7445 85.8504 47.2696 84.3959 49.4443C82.9414 51.6191 80.9301 53.3638 78.5718 54.4967C75.1619 51.8264 70.9558 50.3752 66.6248 50.3746C66.2281 50.3746 65.8241 50.388 65.4068 50.4158C63.3488 47.7809 60.7879 45.5809 57.8728 43.9435C57.7101 43.0928 57.6236 42.2293 57.6143 41.3633ZM66.6248 86.1246C63.9534 86.1232 61.3235 85.4643 58.9671 84.2059C58.7122 84.0685 58.4251 84.0021 58.1358 84.0135C57.8465 84.0249 57.5655 84.1138 57.3223 84.2709C53.7973 86.5418 49.6929 87.7494 45.4998 87.7494C41.3066 87.7494 37.2022 86.5418 33.6772 84.2709C33.4338 84.1144 33.1529 84.0258 32.8637 84.0144C32.5745 84.0029 32.2875 84.0691 32.0324 84.2059C29.8539 85.3703 27.4386 86.0227 24.9701 86.1136C22.5015 86.2044 20.0448 85.7313 17.7866 84.7301C15.5284 83.729 13.5281 82.2262 11.9378 80.336C10.3476 78.4458 9.20918 76.2179 8.60917 73.8217C8.00915 71.4255 7.96332 68.9241 8.47515 66.5075C8.98698 64.0909 10.043 61.8228 11.563 59.8756C13.0829 57.9284 15.0268 56.3534 17.2468 55.2702C19.4668 54.187 21.9046 53.6242 24.3748 53.6246C24.9764 53.6268 25.5774 53.662 26.1751 53.73C26.4618 53.761 26.7515 53.7153 27.0148 53.5979C27.2781 53.4804 27.5056 53.2952 27.674 53.0612C29.6982 50.2203 32.3722 47.9043 35.4729 46.3063C38.5737 44.7083 42.0115 43.8746 45.4998 43.8746C48.9881 43.8746 52.4259 44.7083 55.5266 46.3063C58.6274 47.9043 61.3013 50.2203 63.3255 53.0612C63.4942 53.2949 63.7217 53.4799 63.9849 53.5974C64.2482 53.7149 64.5378 53.7606 64.8244 53.73C65.4222 53.662 66.0232 53.6268 66.6248 53.6246C70.9345 53.6246 75.0678 55.3366 78.1152 58.3841C81.1627 61.4315 82.8748 65.5648 82.8748 69.8746C82.8748 74.1843 81.1627 78.3176 78.1152 81.365C75.0678 84.4125 70.9345 86.1246 66.6248 86.1246Z" fill="#FFAF3E"/>
    </symbol>

    <symbol id="summer" width="82" height="82" viewBox="0 0 82 82">
        <g clip-path="url(#clip0_53_1755)">
        <path d="M76.4032 20.5556C75.9902 19.8453 75.0793 19.6043 74.369 20.0173L67.1035 24.2171C66.3931 24.6301 66.1521 25.541 66.5651 26.2513C66.9781 26.9616 67.889 27.2027 68.5993 26.7897L75.8648 22.5898C76.5752 22.1766 76.8162 21.2659 76.4032 20.5556Z" fill="#FFAF3E"/>
        <path d="M75.8648 59.4183L68.5993 55.2184C67.889 54.8054 66.9781 55.0465 66.5651 55.7568C66.1521 56.4671 66.3931 57.378 67.1035 57.791L74.369 61.9908C75.0793 62.4038 75.9902 62.1628 76.4032 61.4525C76.8162 60.742 76.5752 59.8313 75.8648 59.4183Z" fill="#FFAF3E"/>
        <path d="M41.115 70.3987C40.291 70.3375 39.5737 70.9558 39.5125 71.7797C39.5069 71.8535 39.5069 71.9274 39.5125 72.0012V80.3927C39.4513 81.2167 40.0695 81.934 40.8935 81.9952C41.7174 82.0564 42.4347 81.4382 42.496 80.6142C42.5015 80.5405 42.5015 80.4665 42.496 80.3927V72.0012C42.557 71.1775 41.9387 70.4599 41.115 70.3987Z" fill="#FFAF3E"/>
        <path d="M14.8966 24.2171L7.63105 20.0173C6.92073 19.6043 6.00986 19.8453 5.59686 20.5556C5.18386 21.2659 5.42488 22.1768 6.1352 22.5898L13.4007 26.7897C14.1111 27.2027 15.0219 26.9616 15.4349 26.2513C15.8479 25.5408 15.6069 24.6301 14.8966 24.2171Z" fill="#FFAF3E"/>
        <path d="M41.1149 0.00418262C40.291 -0.0570484 39.5737 0.56122 39.5125 1.38517C39.5069 1.45893 39.5069 1.5329 39.5125 1.60667V9.99819C39.517 10.8178 40.1805 11.4813 41.0001 11.4858C41.8263 11.4858 42.4959 10.8162 42.4959 9.98997V1.60687C42.557 0.782926 41.9387 0.0654136 41.1149 0.00418262Z" fill="#FFAF3E"/>
        <path d="M26.7814 13.4012L22.5898 6.13569C22.1768 5.42537 21.2659 5.18435 20.5556 5.59735C19.8453 6.01035 19.6043 6.92121 20.0173 7.63153L24.2089 14.8971C24.6219 15.6074 25.5328 15.8484 26.2431 15.4354C26.9534 15.0222 27.1944 14.1115 26.7814 13.4012Z" fill="#FFAF3E"/>
        <path d="M41.2216 27.7268C41.1479 27.7213 41.0739 27.7213 41.0001 27.7268C33.6693 27.7268 27.7266 33.6695 27.7266 41.0004C27.7266 41.8266 28.3962 42.4962 29.2224 42.4962C30.0453 42.4917 30.71 41.8233 30.71 41.0004C30.7055 35.3219 35.3052 30.7148 40.9837 30.7103C40.9892 30.7103 40.9946 30.7103 41.0001 30.7103C41.8241 30.7715 42.5414 30.1532 42.6026 29.3293C42.6638 28.5054 42.0456 27.7878 41.2216 27.7268Z" fill="#FFAF3E"/>
        <path d="M81.7742 40.8852C81.7193 40.1465 81.1321 39.559 80.3932 39.5042H72.0017C71.1777 39.443 70.4604 40.0612 70.3992 40.8852C70.338 41.7091 70.9562 42.4264 71.7802 42.4877C71.854 42.4932 71.9281 42.4932 72.0019 42.4877H80.3934C81.2172 42.4266 81.8354 41.7091 81.7742 40.8852Z" fill="#FFAF3E"/>
        <path d="M10.2199 39.5129C10.1461 39.5074 10.0721 39.5074 9.99837 39.5129H1.60685C0.7829 39.5742 0.164631 40.2917 0.225862 41.1154C0.280724 41.8541 0.867966 42.4416 1.60685 42.4964H9.99837C10.8223 42.5577 11.5396 41.9394 11.6009 41.1154C11.6621 40.2915 11.0438 39.574 10.2199 39.5129Z" fill="#FFAF3E"/>
        <path d="M41.0061 19.0469C28.882 19.0452 19.0521 28.8724 19.0503 40.9965C19.0495 46.8211 21.3635 52.4073 25.4826 56.5252C29.5939 60.6468 35.1785 62.9598 41 62.9524C53.1241 62.954 62.9541 53.1269 62.9558 41.0027C62.9574 28.8786 53.1303 19.0485 41.0061 19.0469ZM54.4132 54.4376C47.0053 61.8455 34.9946 61.8455 27.5867 54.4376C24.0232 50.874 22.0241 46.0391 22.0307 40.9996C22.0235 35.9672 24.0232 31.1396 27.5867 27.5863V27.611C34.9946 20.2031 47.0053 20.2031 54.4132 27.611C61.8214 35.0189 61.8214 47.0296 54.4132 54.4376Z" fill="#FFAF3E"/>
        <path d="M61.9869 74.3756C61.9857 74.3733 61.9845 74.371 61.983 74.369L57.7832 67.1035C57.3702 66.3931 56.4593 66.1521 55.749 66.5651C55.0387 66.9781 54.7976 67.889 55.2106 68.5993L59.4105 75.8648C59.8219 76.5743 60.7301 76.817 61.4406 76.4073C62.1525 75.997 62.3973 75.0873 61.9869 74.3756Z" fill="#FFAF3E"/>
        <path d="M61.4941 5.59735C60.7837 5.18435 59.8729 5.42537 59.4599 6.13569L55.26 13.4012C54.8441 14.1099 55.0817 15.0214 55.7901 15.437C55.7916 15.4379 55.7928 15.4387 55.7942 15.4395C56.5039 15.8533 57.4148 15.6135 57.8286 14.9036C57.8299 14.9014 57.8313 14.8991 57.8325 14.8971L62.0324 7.63153C62.4454 6.92101 62.2044 6.01035 61.4941 5.59735Z" fill="#FFAF3E"/>
        <path d="M26.2513 66.5651C25.541 66.1521 24.6301 66.3931 24.2171 67.1035L20.0173 74.369C19.6043 75.0793 19.8453 75.9902 20.5556 76.4032C21.2659 76.8162 22.1768 76.5752 22.5898 75.8648L26.7897 68.5993C27.2027 67.8888 26.9616 66.9781 26.2513 66.5651Z" fill="#FFAF3E"/>
        <path d="M15.4349 55.749C15.0219 55.0387 14.1111 54.7976 13.4007 55.2106L6.1352 59.4105C5.42488 59.8235 5.18386 60.7344 5.59686 61.4447C6.00986 62.155 6.92073 62.396 7.63105 61.983L14.8966 57.7832C15.6069 57.3699 15.8479 56.4593 15.4349 55.749Z" fill="#FFAF3E"/>
        </g>
        <defs>
        <clipPath id="clip0_53_1755">
        <rect width="82" height="82" fill="white"/>
        </clipPath>
        </defs>
    </symbol>
</svg>


