<svg width="21" height="20" viewBox="0 0 21 20" fill="none" xmlns="http://www.w3.org/2000/svg">
<path d="M10.5 20C16.0242 20 20.5 15.5242 20.5 10C20.5 4.47583 16.0242 0 10.5 0C4.97583 0 0.5 4.47583 0.5 10C0.5 15.5242 4.97583 20 10.5 20ZM5.07583 9.78333L14.7175 6.06583C15.165 5.90417 15.5558 6.175 15.4108 6.85167L15.4117 6.85083L13.77 14.585C13.6483 15.1333 13.3225 15.2667 12.8667 15.0083L10.3667 13.1658L9.16083 14.3275C9.0275 14.4608 8.915 14.5733 8.65667 14.5733L8.83417 12.0292L13.4675 7.84333C13.6692 7.66583 13.4225 7.56583 13.1567 7.7425L7.43083 11.3475L4.9625 10.5775C4.42667 10.4075 4.415 10.0417 5.07583 9.78333Z" fill="white"/>
</svg>
