<svg width="41" height="40" fill="none" xmlns="http://www.w3.org/2000/svg">
<g clip-path="url(#a)"><path d="M20.508 0c-11.045 0-20 8.955-20 20s8.955 20 20 20 20-8.955 20-20-8.955-20-20-20zM28.2 22.564s1.768 1.747 2.204 2.557c.013.016.019.034.023.04.177.3.218.531.132.703-.147.288-.647.43-.818.443h-3.125c-.216 0-.67-.058-1.22-.436-.424-.296-.84-.782-1.247-1.254-.605-.705-1.13-1.313-1.66-1.313a.632.632 0 0 0-.198.032c-.4.128-.912.7-.912 2.22 0 .475-.375.748-.64.748h-1.431c-.488 0-3.027-.17-5.277-2.544-2.754-2.907-5.234-8.735-5.254-8.79-.157-.377.167-.578.519-.578h3.156c.42 0 .559.256.653.483.114.265.525 1.317 1.203 2.5 1.097 1.93 1.77 2.713 2.31 2.713a.61.61 0 0 0 .29-.076c.704-.39.573-2.901.541-3.423 0-.097-.001-1.122-.363-1.613-.257-.357-.697-.493-.963-.543.107-.148.249-.27.413-.352.484-.241 1.354-.277 2.22-.277h.48c.938.013 1.18.073 1.52.159.688.164.703.608.641 2.126a33.05 33.05 0 0 0-.037 1.494c0 .125-.007.258-.007.4-.02.773-.045 1.65.5 2.01a.45.45 0 0 0 .238.07c.19 0 .76 0 2.306-2.654a20.27 20.27 0 0 0 1.24-2.653c.03-.053.123-.22.23-.285a.553.553 0 0 1 .26-.06h3.71c.404 0 .68.06.734.216.092.248-.018 1.004-1.711 3.298-.285.38-.537.711-.756.998-1.536 2.013-1.536 2.114.096 3.641z" fill="#fff"/></g><defs><clipPath id="a"><path fill="#fff" transform="translate(.5)" d="M0 0h40v40H0z"/></clipPath></defs></svg>