<svg width="31" height="31" viewBox="0 0 31 31" fill="none" xmlns="http://www.w3.org/2000/svg">
<path d="M18.005 15.6743L14.495 14.0363C14.189 13.8953 13.937 14.0543 13.937 14.3933V17.4773C13.937 17.8163 14.189 17.9753 14.495 17.8343L18.0035 16.1963C18.311 16.0523 18.311 15.8183 18.0035 15.6743H18.005ZM15.5 0.935303C7.2155 0.935303 0.5 7.6508 0.5 15.9353C0.5 24.2198 7.2155 30.9353 15.5 30.9353C23.7845 30.9353 30.5 24.2198 30.5 15.9353C30.5 7.6508 23.7845 0.935303 15.5 0.935303ZM15.5 22.0298C7.8215 22.0298 7.688 21.3368 7.688 15.9353C7.688 10.5338 7.823 9.8408 15.5 9.8408C23.1785 9.8408 23.312 10.5338 23.312 15.9353C23.312 21.3368 23.177 22.0298 15.5 22.0298Z" fill="white"/>
</svg>
