<svg width="41" height="40" fill="none" xmlns="http://www.w3.org/2000/svg"><g clip-path="url(#a)"><path d="m23.84 19.652-4.68-2.184c-.408-.188-.744.024-.744.476v4.112c0 .452.336.664.744.476l4.678-2.184c.41-.192.41-.504 0-.696h.002zM20.5 0C9.454 0 .5 8.954.5 20s8.954 20 20 20 20-8.954 20-20-8.954-20-20-20zm0 28.126c-10.238 0-10.416-.924-10.416-8.126 0-7.202.18-8.126 10.416-8.126 10.238 0 10.416.924 10.416 8.126 0 7.202-.18 8.126-10.416 8.126z" fill="#fff"/></g><defs><clipPath id="a"><path fill="#fff" transform="translate(.5)" d="M0 0h40v40H0z"/></clipPath></defs></svg>