<svg width="41" height="40" viewBox="0 0 41 40" fill="none" xmlns="http://www.w3.org/2000/svg">
<g clip-path="url(#clip0_320_231)">
<path d="M23.84 19.652L19.16 17.468C18.752 17.28 18.416 17.492 18.416 17.944V22.056C18.416 22.508 18.752 22.72 19.16 22.532L23.838 20.348C24.248 20.156 24.248 19.844 23.838 19.652H23.84ZM20.5 0C9.454 0 0.5 8.954 0.5 20C0.5 31.046 9.454 40 20.5 40C31.546 40 40.5 31.046 40.5 20C40.5 8.954 31.546 0 20.5 0ZM20.5 28.126C10.262 28.126 10.084 27.202 10.084 20C10.084 12.798 10.264 11.874 20.5 11.874C30.738 11.874 30.916 12.798 30.916 20C30.916 27.202 30.736 28.126 20.5 28.126Z" fill="white"/>
</g>
<defs>
<clipPath id="clip0_320_231">
<rect width="40" height="40" fill="white" transform="translate(0.5)"/>
</clipPath>
</defs>
</svg>
