<svg width="120" height="119" viewBox="0 0 120 119" fill="none" xmlns="http://www.w3.org/2000/svg">
<circle opacity="0.1" cx="60" cy="59.5" r="50.5" fill="#FFAF3E"/>
<circle opacity="0.2" cx="60" cy="59.5" r="59" stroke="#FFAF3E"/>
<circle cx="60" cy="59.5" r="38.5" fill="#FFAF3E"/>
<g clip-path="url(#clip0_302_1325)">
<path d="M45.75 79.25H57.575V62.75H45.75V79.25ZM64.4225 51.75C66.2459 51.75 67.9945 51.0257 69.2839 49.7364C70.5732 48.4471 71.2975 46.6984 71.2975 44.875C71.2975 43.0516 70.5732 41.303 69.2839 40.0136C67.9945 38.7243 66.2459 38 64.4225 38C63.5035 37.9988 62.5938 38.1832 61.7479 38.5424C60.902 38.9016 60.1374 39.428 59.5 40.09C58.8626 39.428 58.098 38.9016 57.2521 38.5424C56.4062 38.1832 55.4965 37.9988 54.5775 38C52.7541 38 51.0055 38.7243 49.7161 40.0136C48.4268 41.303 47.7025 43.0516 47.7025 44.875C47.7025 46.6984 48.4268 48.4471 49.7161 49.7364C51.0055 51.0257 52.7541 51.75 54.5775 51.75H43V60H57.575V51.75H61.425V60H76V51.75H64.4225ZM57.5475 44.875V47.9H54.5775C53.9828 47.905 53.3999 47.7346 52.9015 47.4102C52.4032 47.0857 52.0115 46.6215 51.7755 46.0757C51.5394 45.5299 51.4695 44.9266 51.5745 44.3412C51.6795 43.7559 51.9546 43.2144 52.3656 42.7846C52.7766 42.3548 53.3051 42.0556 53.8852 41.9245C54.4652 41.7934 55.0711 41.8362 55.6269 42.0475C56.1828 42.2589 56.6641 42.6293 57.0105 43.1127C57.357 43.596 57.5534 44.1707 57.575 44.765C57.575 44.765 57.5475 44.8475 57.5475 44.875ZM61.425 44.875C61.425 44.2756 61.6032 43.6896 61.9368 43.1916C62.2704 42.6935 62.7445 42.3059 63.2988 42.0777C63.8532 41.8496 64.4628 41.7913 65.0503 41.9103C65.6379 42.0293 66.1768 42.3201 66.5987 42.7459C67.0207 43.1717 67.3066 43.7133 67.4202 44.3019C67.5338 44.8905 67.4699 45.4996 67.2368 46.0518C67.0036 46.6041 66.6116 47.0746 66.1105 47.4036C65.6095 47.7327 65.0219 47.9055 64.4225 47.9H61.4525V44.875C61.4525 44.875 61.425 44.7925 61.425 44.765V44.875ZM61.425 79.25H73.25V62.75H61.425V79.25Z" fill="white"/>
</g>
<defs>
<clipPath id="clip0_302_1325">
<rect width="44" height="44" fill="white" transform="translate(37.5 38)"/>
</clipPath>
</defs>
</svg>
