<svg width="104" height="104" viewBox="0 0 104 104" fill="none" xmlns="http://www.w3.org/2000/svg">
<path d="M89.4749 21.8305L87.1772 24.1283C87.0225 24.2783 86.8992 24.4576 86.8145 24.6557C86.7298 24.8538 86.6853 25.0668 86.6836 25.2823C86.682 25.4978 86.7232 25.7114 86.8049 25.9108C86.8866 26.1102 87.0071 26.2913 87.1595 26.4437C87.3119 26.5961 87.493 26.7166 87.6924 26.7983C87.8918 26.88 88.1054 26.9213 88.3209 26.9196C88.5364 26.918 88.7494 26.8736 88.9475 26.7888C89.1456 26.7041 89.3249 26.5808 89.4749 26.4262L91.7729 24.1283C91.9275 23.9782 92.0508 23.7989 92.1355 23.6008C92.2202 23.4027 92.2647 23.1897 92.2663 22.9742C92.268 22.7587 92.2267 22.5451 92.145 22.3457C92.0633 22.1463 91.9428 21.9652 91.7904 21.8128C91.638 21.6605 91.4569 21.5399 91.2575 21.4582C91.0581 21.3765 90.8444 21.3353 90.629 21.337C90.4135 21.3386 90.2005 21.3831 90.0024 21.4678C89.8043 21.5526 89.625 21.6758 89.4749 21.8305Z" fill="#FFAF3E"/>
<path d="M64.7816 19.8102C64.8933 20.2265 65.1659 20.5813 65.5392 20.7966C65.9125 21.012 66.3561 21.0702 66.7724 20.9584C67.1887 20.8467 67.5435 20.5742 67.7588 20.2009C67.9742 19.8275 68.0324 19.3839 67.9206 18.9677L67.0787 15.8286C66.967 15.4124 66.6944 15.0576 66.3211 14.8423C65.9477 14.627 65.5042 14.5688 65.0879 14.6806C64.6717 14.7923 64.3169 15.0649 64.1016 15.4382C63.8863 15.8116 63.8281 16.2551 63.9399 16.6714L64.7816 19.8102Z" fill="#FFAF3E"/>
<path d="M46.7036 36.2042L49.8427 37.0461C50.2589 37.1578 50.7025 37.0996 51.0759 36.8843C51.4492 36.669 51.7217 36.3141 51.8334 35.8979C51.9452 35.4816 51.887 35.038 51.6716 34.6647C51.4563 34.2913 51.1015 34.0188 50.6852 33.9071L47.5464 33.0653C47.3403 33.01 47.1253 32.9958 46.9137 33.0236C46.7021 33.0513 46.4981 33.1205 46.3132 33.2271C45.9399 33.4424 45.6673 33.7972 45.5556 34.2134C45.5002 34.4195 45.486 34.6345 45.5138 34.8461C45.5415 35.0577 45.6107 35.2617 45.7173 35.4466C45.8239 35.6314 45.9659 35.7935 46.1351 35.9235C46.3044 36.0535 46.4975 36.1489 46.7036 36.2042Z" fill="#FFAF3E"/>
<path d="M97.774 46.5238L94.6342 45.6827C94.4268 45.6234 94.2097 45.606 93.9955 45.6315C93.7814 45.657 93.5744 45.7248 93.3867 45.8311C93.1991 45.9374 93.0344 46.08 92.9024 46.2506C92.7704 46.4211 92.6737 46.6163 92.6179 46.8246C92.562 47.0329 92.5483 47.2503 92.5773 47.464C92.6064 47.6777 92.6777 47.8835 92.7871 48.0694C92.8965 48.2553 93.0418 48.4175 93.2145 48.5466C93.3873 48.6758 93.584 48.7692 93.7932 48.8216L96.9329 49.6627C97.1402 49.7218 97.3572 49.739 97.5713 49.7134C97.7853 49.6879 97.9921 49.6199 98.1797 49.5136C98.3672 49.4074 98.5317 49.2648 98.6637 49.0943C98.7956 48.9238 98.8922 48.7288 98.948 48.5205C99.0038 48.3123 99.0176 48.0951 98.9887 47.8814C98.9597 47.6678 98.8885 47.4621 98.7792 47.2763C98.6699 47.0905 98.5248 46.9282 98.3522 46.799C98.1796 46.6698 97.9831 46.5763 97.774 46.5238Z" fill="#FFAF3E"/>
<path d="M77.7065 20.9584C77.9126 21.0141 78.1277 21.0286 78.3394 21.001C78.5512 20.9734 78.7554 20.9042 78.9403 20.7974C79.1252 20.6907 79.2872 20.5484 79.4169 20.3788C79.5467 20.2093 79.6417 20.0157 79.6965 19.8094L80.5376 16.6705C80.6401 16.2573 80.5763 15.8204 80.36 15.4537C80.1437 15.087 79.7922 14.8199 79.381 14.7097C78.9698 14.5995 78.5317 14.6551 78.1611 14.8645C77.7904 15.0738 77.5167 15.4203 77.3989 15.8294L76.5578 18.9684C76.4463 19.3846 76.5047 19.8281 76.7201 20.2013C76.9355 20.5744 77.2903 20.8468 77.7065 20.9584Z" fill="#FFAF3E"/>
<path d="M55.0029 26.4258C55.309 26.7242 55.7202 26.89 56.1476 26.8873C56.575 26.8846 56.9841 26.7136 57.2864 26.4114C57.5886 26.1091 57.7596 25.7 57.7623 25.2726C57.765 24.8452 57.5992 24.434 57.3008 24.1279L55.0029 21.8302C54.6964 21.5342 54.286 21.3704 53.8599 21.3741C53.4338 21.3778 53.0263 21.5487 52.725 21.85C52.4237 22.1513 52.2528 22.5588 52.2491 22.9849C52.2454 23.411 52.4092 23.8215 52.7052 24.1279L55.0029 26.4258Z" fill="#FFAF3E"/>
<path d="M89.4746 56.3019C89.1681 56.0059 88.7577 55.8421 88.3316 55.8458C87.9055 55.8495 87.4979 56.0204 87.1967 56.3217C86.8954 56.6229 86.7245 57.0305 86.7208 57.4566C86.7171 57.8827 86.8809 58.2931 87.1769 58.5996L89.4746 60.8975C89.6248 61.0516 89.8041 61.1742 90.002 61.2585C90.2 61.3427 90.4127 61.3867 90.6278 61.3881C90.843 61.3895 91.0562 61.3481 91.2552 61.2664C91.4542 61.1847 91.6351 61.0643 91.7872 60.9122C91.9393 60.7601 92.0597 60.5792 92.1414 60.3802C92.2231 60.1812 92.2645 59.968 92.2631 59.7528C92.2617 59.5377 92.2177 59.325 92.1335 59.127C92.0492 58.9291 91.9266 58.7498 91.7725 58.5996L89.4746 56.3019Z" fill="#FFAF3E"/>
<path d="M94.2129 37.1025C94.3551 37.1024 94.4968 37.0835 94.6341 37.0463L97.7739 36.2043C98.184 36.0874 98.5318 35.8139 98.7421 35.4429C98.9524 35.0718 99.0084 34.633 98.898 34.221C98.7876 33.809 98.5197 33.457 98.152 33.2408C97.7844 33.0246 97.3465 32.9617 96.9328 33.0655L93.7931 33.9072C93.4119 34.0088 93.0806 34.2456 92.8611 34.5735C92.6416 34.9014 92.5489 35.2979 92.6003 35.6891C92.6517 36.0803 92.8436 36.4395 93.1404 36.6995C93.4371 36.9596 93.8183 37.1028 94.2129 37.1025Z" fill="#FFAF3E"/>
<path d="M90.1143 41.3633C90.1143 36.6225 88.2311 32.076 84.8788 28.7237C81.5266 25.3715 76.98 23.4883 72.2393 23.4883C67.4986 23.4883 62.952 25.3715 59.5998 28.7237C56.2476 32.076 54.3643 36.6225 54.3643 41.3633C54.3643 41.6711 54.391 41.9831 54.4119 42.2941C51.5678 41.199 48.5474 40.6331 45.4998 40.6246C41.6553 40.6335 37.8636 41.5203 34.4138 43.2171C30.9641 44.9139 27.9473 47.3761 25.5935 50.4158C25.1754 50.388 24.7714 50.3746 24.3748 50.3746C21.4504 50.3741 18.5634 51.0315 15.9275 52.2979C13.2916 53.5643 10.9743 55.4073 9.14708 57.6906C7.31989 59.9738 6.02963 62.6388 5.37182 65.4882C4.71401 68.3376 4.70549 71.2984 5.3469 74.1516C5.98832 77.0047 7.26323 79.6771 9.07726 81.9708C10.8913 84.2645 13.198 86.1208 15.8266 87.4024C18.4552 88.6839 21.3383 89.3578 24.2626 89.3742C27.1869 89.3907 30.0775 88.7491 32.7203 87.4972C36.5888 89.7898 41.0029 90.9995 45.4998 90.9995C49.9966 90.9995 54.4107 89.7898 58.2793 87.4972C62.3507 89.4351 66.9684 89.9002 71.3446 88.8132C75.7207 87.7261 79.5841 85.1543 82.2754 81.5364C84.9668 77.9186 86.3194 73.479 86.1025 68.9751C85.8856 64.4711 84.1126 60.1821 81.086 56.8396C83.8275 55.2916 86.1082 53.0428 87.6946 50.3233C89.2811 47.6039 90.1161 44.5116 90.1143 41.3633ZM57.6143 41.3633C57.6054 38.747 58.2986 36.1762 59.6215 33.919C60.9444 31.6617 62.8486 29.8007 65.1355 28.5299C67.4225 27.2591 70.0085 26.625 72.6239 26.6938C75.2393 26.7626 77.7884 27.5318 80.0053 28.9211C82.2223 30.3104 84.026 32.269 85.2284 34.5927C86.4307 36.9164 86.9877 39.52 86.8413 42.1322C86.6949 44.7445 85.8504 47.2696 84.3959 49.4443C82.9414 51.6191 80.9301 53.3638 78.5718 54.4967C75.1619 51.8264 70.9558 50.3752 66.6248 50.3746C66.2281 50.3746 65.8241 50.388 65.4068 50.4158C63.3488 47.7809 60.7879 45.5809 57.8728 43.9435C57.7101 43.0928 57.6236 42.2293 57.6143 41.3633ZM66.6248 86.1246C63.9534 86.1232 61.3235 85.4643 58.9671 84.2059C58.7122 84.0685 58.4251 84.0021 58.1358 84.0135C57.8465 84.0249 57.5655 84.1138 57.3223 84.2709C53.7973 86.5418 49.6929 87.7494 45.4998 87.7494C41.3066 87.7494 37.2022 86.5418 33.6772 84.2709C33.4338 84.1144 33.1529 84.0258 32.8637 84.0144C32.5745 84.0029 32.2875 84.0691 32.0324 84.2059C29.8539 85.3703 27.4386 86.0227 24.9701 86.1136C22.5015 86.2044 20.0448 85.7313 17.7866 84.7301C15.5284 83.729 13.5281 82.2262 11.9378 80.336C10.3476 78.4458 9.20918 76.2179 8.60917 73.8217C8.00915 71.4255 7.96332 68.9241 8.47515 66.5075C8.98698 64.0909 10.043 61.8228 11.563 59.8756C13.0829 57.9284 15.0268 56.3534 17.2468 55.2702C19.4668 54.187 21.9046 53.6242 24.3748 53.6246C24.9764 53.6268 25.5774 53.662 26.1751 53.73C26.4618 53.761 26.7515 53.7153 27.0148 53.5979C27.2781 53.4804 27.5056 53.2952 27.674 53.0612C29.6982 50.2203 32.3722 47.9043 35.4729 46.3063C38.5737 44.7083 42.0115 43.8746 45.4998 43.8746C48.9881 43.8746 52.4259 44.7083 55.5266 46.3063C58.6274 47.9043 61.3013 50.2203 63.3255 53.0612C63.4942 53.2949 63.7217 53.4799 63.9849 53.5974C64.2482 53.7149 64.5378 53.7606 64.8244 53.73C65.4222 53.662 66.0232 53.6268 66.6248 53.6246C70.9345 53.6246 75.0678 55.3366 78.1152 58.3841C81.1627 61.4315 82.8748 65.5648 82.8748 69.8746C82.8748 74.1843 81.1627 78.3176 78.1152 81.365C75.0678 84.4125 70.9345 86.1246 66.6248 86.1246Z" fill="#FFAF3E"/>
</svg>
