<svg width="30" height="30" viewBox="0 0 30 30" fill="none" xmlns="http://www.w3.org/2000/svg">
<g clip-path="url(#clip0_310_2599)">
<path d="M15.002 0.435303C6.99411 0.435303 0.501953 6.92746 0.501953 14.9354C0.501953 22.9432 6.99411 29.4354 15.002 29.4354C23.0099 29.4354 29.5021 22.9432 29.5021 14.9354C29.5021 6.92746 23.0099 0.435303 15.002 0.435303ZM18.4366 10.4558H16.2567C15.9986 10.4558 15.7115 10.7951 15.7115 11.2465V12.8212H18.4375L18.0257 15.0649H15.7115V21.8026H13.1402V15.0649H10.8057V12.8203H13.1392V11.5008C13.1392 9.6061 14.4539 8.06716 16.2567 8.06716H18.4366V10.4548V10.4558Z" fill="white"/>
</g>
<defs>
<clipPath id="clip0_310_2599">
<rect width="29" height="29" fill="white" transform="translate(0.5 0.435303)"/>
</clipPath>
</defs>
</svg>
