<svg width="44" height="44" viewBox="0 0 44 44" fill="none" xmlns="http://www.w3.org/2000/svg">
<circle cx="22" cy="22" r="22" fill="white"/>
<path d="M27.277 30.5179L26.9556 31.8316C25.9915 32.2121 25.2214 32.5018 24.6479 32.7009C24.0738 32.9006 23.4068 33 22.6468 33C21.4796 33 20.5718 32.7141 19.9243 32.1462C19.2768 31.576 18.953 30.8535 18.953 29.977C18.953 29.6377 18.9765 29.2887 19.0254 28.9331C19.0746 28.5772 19.153 28.1762 19.2601 27.7281L20.465 23.4635C20.5722 23.0552 20.6633 22.6683 20.7363 22.3024C20.8103 21.9388 20.846 21.6042 20.846 21.303C20.846 20.7584 20.7332 20.3775 20.5087 20.1633C20.2842 19.9498 19.8559 19.8413 19.22 19.8413C18.9085 19.8413 18.5884 19.8912 18.262 19.9877C17.9343 20.0846 17.6541 20.1782 17.4189 20.2651L17.7411 18.9504C18.5304 18.629 19.2849 18.3539 20.0066 18.1255C20.7282 17.8964 21.4101 17.7818 22.0551 17.7818C23.2142 17.7818 24.1087 18.062 24.7368 18.6222C25.3649 19.1829 25.6788 19.9098 25.6788 20.8054C25.6788 20.9907 25.6582 21.3173 25.6139 21.784C25.5706 22.2517 25.49 22.6802 25.3725 23.07L24.1728 27.3175C24.0744 27.6586 23.986 28.0486 23.9091 28.4875C23.8298 28.9235 23.7918 29.2566 23.7918 29.48C23.7918 30.044 23.9176 30.4291 24.1697 30.6338C24.4236 30.8385 24.8611 30.9403 25.4824 30.9403C25.774 30.9403 26.1059 30.8886 26.4747 30.7869C26.8424 30.6853 27.1106 30.596 27.277 30.5179ZM27.5812 12.6859C27.5812 13.426 27.3023 14.058 26.7418 14.5777C26.1828 15.0992 25.5092 15.3601 24.7211 15.3601C23.9306 15.3601 23.2553 15.0992 22.6898 14.5777C22.1254 14.0578 21.8426 13.426 21.8426 12.6859C21.8426 11.9474 22.1254 11.3143 22.6898 10.7881C23.2542 10.2626 23.9308 10 24.7211 10C25.5089 10 26.1828 10.2632 26.7418 10.7881C27.3027 11.3143 27.5812 11.9476 27.5812 12.6859Z" fill="#FFAF3E"/>
</svg>
