<svg width="114" height="114" viewBox="0 0 114 114" fill="none" xmlns="http://www.w3.org/2000/svg">
<circle opacity="0.1" cx="57" cy="57" r="57" fill="#466F82"/>
<g clip-path="url(#clip0_301_9)">
<path d="M62.5258 66.2734C62.5258 65.7518 62.1128 65.4324 61.608 65.5637C61.608 65.5637 59.2439 66.178 57.4992 66.178C55.7545 66.178 53.3904 65.5637 53.3904 65.5637C52.8857 65.4324 52.4727 65.7518 52.4727 66.2734V69.0234C52.4727 69.545 52.8995 69.9717 53.4209 69.9717H61.5775C62.0991 69.9717 62.5258 69.5448 62.5258 69.0234V66.2734Z" fill="#466F82"/>
<path d="M71.916 30.8969C71.916 29.8494 71.0666 29 70.0191 29H44.9809C43.9334 29 43.084 29.8494 43.084 30.8969V46.5458C43.084 51.444 44.5408 55.9027 47.1861 59.1002C49.8488 62.3189 53.5117 64.0917 57.5 64.0917C61.4883 64.0917 65.1512 62.3191 67.8139 59.1002C70.4591 55.9027 71.916 51.444 71.916 46.5458V30.8969Z" fill="#466F82"/>
<path d="M41.2788 50.3466C38.6831 49.3807 37.4878 47.1404 37.4878 43.4162V34.9436H40.9971V31.1499H35.5913C34.5436 31.1499 33.6943 31.9991 33.6943 33.0468V43.416C33.6943 49.7419 36.7244 53.5952 42.2958 54.4953C41.838 53.179 41.4953 51.7902 41.2788 50.3466Z" fill="#466F82"/>
<path d="M44.9809 72.8171C43.9334 72.8171 43.084 73.6664 43.084 74.7141V84.1033C43.084 85.1508 43.9334 86.0003 44.9809 86.0003H70.0193C71.0668 86.0003 71.9162 85.1508 71.9162 84.1033V74.7141C71.9162 73.6664 71.0668 72.8171 70.0193 72.8171H44.9809Z" fill="#466F82"/>
<path d="M79.4078 31.1499H74.0018V34.9436H77.5111V43.416C77.5111 47.1402 76.3158 49.3805 73.7201 50.3464C73.5036 51.79 73.161 53.179 72.7031 54.4953C78.2745 53.5952 81.3046 49.7419 81.3046 43.416V33.0468C81.3048 31.9991 80.4555 31.1499 79.4078 31.1499Z" fill="#466F82"/>
</g>
<defs>
<clipPath id="clip0_301_9">
<rect width="57" height="57" fill="white" transform="translate(29 29)"/>
</clipPath>
</defs>
</svg>
