<svg width="114" height="114" viewBox="0 0 114 114" fill="none" xmlns="http://www.w3.org/2000/svg">
<circle opacity="0.1" cx="57" cy="57" r="57" fill="#466F82"/>
<g clip-path="url(#clip0_301_1831)">
<path d="M77.6526 37.3475C72.2697 31.9646 65.1126 29 57.5 29C49.8874 29 42.7303 31.9646 37.3474 37.3475C31.9644 42.7304 29 49.8874 29 57.5C29 65.1126 31.9644 72.2697 37.3474 77.6525C42.7303 83.0353 49.8874 86 57.5 86C65.1126 86 72.2697 83.0354 77.6526 77.6525C83.0356 72.2696 86 65.1126 86 57.5C86 49.8874 83.0356 42.7303 77.6526 37.3475ZM57.5 80.406C44.8695 80.406 34.594 70.1304 34.594 57.5C34.594 57.4793 34.5947 57.4588 34.5948 57.4383C34.5948 57.4331 34.594 57.4281 34.594 57.4228C34.594 57.4141 34.5951 57.4056 34.5954 57.3969C34.6509 44.9178 44.7358 34.765 57.1887 34.598C57.2148 34.5968 57.2406 34.5941 57.267 34.5941C57.2828 34.5941 57.2982 34.596 57.3139 34.5965C57.376 34.596 57.4379 34.5941 57.5001 34.5941C70.1306 34.5941 80.4061 44.8697 80.4061 57.5001C80.4061 70.1305 70.1305 80.406 57.5 80.406Z" fill="#466F82"/>
<path d="M74.899 58.876C73.9676 58.876 73.2126 58.1209 73.2126 57.1896C73.2126 56.2582 73.9676 55.5032 74.899 55.5032H76.9317C75.9769 46.1431 68.3859 38.7179 58.9531 38.0208V39.7903C58.9531 40.7217 58.1981 41.4767 57.2667 41.4767C56.3353 41.4767 55.5803 40.7217 55.5803 39.7903V38.0611C46.2871 38.9717 38.8845 46.422 38.047 55.7362H39.8674C40.7988 55.7362 41.5538 56.4912 41.5538 57.4226C41.5538 58.3539 40.7988 59.109 39.8674 59.109H38.0332C38.8086 68.5731 46.3595 76.1472 55.8134 76.9595V74.8217C55.8134 73.8903 56.5684 73.1353 57.4998 73.1353C58.4312 73.1353 59.1862 73.8903 59.1862 74.8217V76.9595C68.7175 76.1405 76.3144 68.4484 76.9839 58.876H74.899ZM64.3265 53.0582L58.6924 58.6924C58.3761 59.0087 57.9472 59.1863 57.4999 59.1863C57.0527 59.1863 56.6237 59.0087 56.3075 58.6924L46.5003 48.8852C45.8416 48.2266 45.8416 47.1589 46.5003 46.5003C47.1588 45.8417 48.2265 45.8417 48.8851 46.5003L57.5 55.1151L61.9418 50.6733C62.6003 50.0147 63.6681 50.0147 64.3267 50.6733C64.9851 51.3318 64.9851 52.3997 64.3265 53.0582Z" fill="#466F82"/>
</g>
<defs>
<clipPath id="clip0_301_1831">
<rect width="57" height="57" fill="white" transform="translate(29 29)"/>
</clipPath>
</defs>
</svg>
