<svg width="114" height="114" viewBox="0 0 114 114" fill="none" xmlns="http://www.w3.org/2000/svg">
<circle opacity="0.1" cx="57" cy="57" r="57" fill="#466F82"/>
<path d="M75.3824 46.033H54.8176L50.7271 41.1712C50.5894 41.0058 50.3832 40.9131 50.1682 40.9198H33.5768C31.0436 40.9382 29 42.9969 29 45.5301V75.4327C29.0031 77.9745 31.0629 80.0343 33.6047 80.0374H75.3824C77.9242 80.0343 79.984 77.9745 79.9871 75.4327V50.6377C79.984 48.0959 77.9242 46.0361 75.3824 46.033Z" fill="#466F82"/>
<path d="M81.4235 40.076H60.8532L56.7626 35.2142C56.625 35.0488 56.4188 34.956 56.2038 34.9627H39.6179C37.3194 34.9665 35.3759 36.6645 35.0635 38.9416H50.1908C50.9841 38.9396 51.7372 39.2897 52.2473 39.8972L55.7399 44.0492H75.3826C79.0156 44.0554 81.9594 46.9991 81.9655 50.6322V74.0357C84.269 73.7483 85.9984 71.7915 86.0002 69.4701V44.6751C85.9942 42.1463 83.9522 40.0944 81.4235 40.076Z" fill="#466F82"/>

</svg>
