<svg display="none" xmlns="http://www.w3.org/2000/svg">
    <symbol id="facebook" viewBox="0 0 30 30" width="30" height="30">
    <g clip-path="url(#clip0_310_2599)">
        <path d="M15.002 0.435303C6.99411 0.435303 0.501953 6.92746 0.501953 14.9354C0.501953 22.9432 6.99411 29.4354 15.002 29.4354C23.0099 29.4354 29.5021 22.9432 29.5021 14.9354C29.5021 6.92746 23.0099 0.435303 15.002 0.435303ZM18.4366 10.4558H16.2567C15.9986 10.4558 15.7115 10.7951 15.7115 11.2465V12.8212H18.4375L18.0257 15.0649H15.7115V21.8026H13.1402V15.0649H10.8057V12.8203H13.1392V11.5008C13.1392 9.6061 14.4539 8.06716 16.2567 8.06716H18.4366V10.4548V10.4558Z" fill="white"/>
    </g>
    <defs>
    <clipPath id="clip0_310_2599">
        <rect width="29" height="29" fill="white" transform="translate(0.5 0.435303)"/>
    </clipPath>
    </defs>
    </symbol>

    <symbol id="instagram" viewBox="0 0 41 40" width="30" height="30">
    <g clip-path="url(#clip0_310_1437)">
        <path d="M24.3281 20C24.3281 22.1143 22.6143 23.8281 20.5 23.8281C18.3857 23.8281 16.6719 22.1143 16.6719 20C16.6719 17.8857 18.3857 16.1719 20.5 16.1719C22.6143 16.1719 24.3281 17.8857 24.3281 20Z" fill="white"/>
        <path d="M29.4519 13.2269C29.2679 12.7282 28.9743 12.2769 28.5928 11.9064C28.2224 11.5249 27.7713 11.2313 27.2723 11.0473C26.8677 10.8901 26.2598 10.7031 25.1401 10.6521C23.9288 10.5969 23.5657 10.585 20.4993 10.585C17.4326 10.585 17.0694 10.5966 15.8585 10.6518C14.7388 10.7031 14.1306 10.8901 13.7262 11.0473C13.2272 11.2313 12.7759 11.5249 12.4057 11.9064C12.0242 12.2769 11.7307 12.7279 11.5463 13.2269C11.3892 13.6315 11.2021 14.2397 11.1511 15.3594C11.0959 16.5704 11.084 16.9335 11.084 20.0002C11.084 23.0667 11.0959 23.4298 11.1511 24.6411C11.2021 25.7607 11.3892 26.3687 11.5463 26.7733C11.7307 27.2723 12.0239 27.7233 12.4054 28.0938C12.7759 28.4753 13.2269 28.7689 13.7259 28.9529C14.1306 29.1104 14.7388 29.2974 15.8585 29.3484C17.0694 29.4036 17.4323 29.4152 20.499 29.4152C23.566 29.4152 23.9291 29.4036 25.1398 29.3484C26.2595 29.2974 26.8677 29.1104 27.2723 28.9529C28.2739 28.5665 29.0656 27.7749 29.4519 26.7733C29.6091 26.3687 29.7961 25.7607 29.8474 24.6411C29.9026 23.4298 29.9142 23.0667 29.9142 20.0002C29.9142 16.9335 29.9026 16.5704 29.8474 15.3594C29.7964 14.2397 29.6094 13.6315 29.4519 13.2269ZM20.4993 25.8972C17.2421 25.8972 14.6017 23.2571 14.6017 19.9999C14.6017 16.7428 17.2421 14.1027 20.4993 14.1027C23.7561 14.1027 26.3965 16.7428 26.3965 19.9999C26.3965 23.2571 23.7561 25.8972 20.4993 25.8972ZM26.6296 15.2477C25.8685 15.2477 25.2515 14.6307 25.2515 13.8696C25.2515 13.1085 25.8685 12.4914 26.6296 12.4914C27.3907 12.4914 28.0078 13.1085 28.0078 13.8696C28.0075 14.6307 27.3907 15.2477 26.6296 15.2477Z" fill="white"/>
        <path d="M20.5 0C9.45599 0 0.5 8.95599 0.5 20C0.5 31.044 9.45599 40 20.5 40C31.544 40 40.5 31.044 40.5 20C40.5 8.95599 31.544 0 20.5 0ZM31.9151 24.7348C31.8596 25.9573 31.6652 26.792 31.3813 27.5226C30.7847 29.0652 29.5652 30.2847 28.0226 30.8813C27.2923 31.1652 26.4573 31.3593 25.2351 31.4151C24.0104 31.4709 23.6192 31.4844 20.5003 31.4844C17.3811 31.4844 16.9902 31.4709 15.7652 31.4151C14.543 31.3593 13.708 31.1652 12.9777 30.8813C12.2111 30.593 11.5172 30.141 10.9434 29.5566C10.3593 28.9832 9.90735 28.2889 9.61896 27.5226C9.33514 26.7923 9.14075 25.9573 9.08521 24.7351C9.02875 23.5101 9.01562 23.1189 9.01562 20C9.01562 16.8811 9.02875 16.4899 9.0849 15.2652C9.14044 14.0427 9.33453 13.208 9.61835 12.4774C9.90674 11.7111 10.359 11.0168 10.9434 10.4434C11.5168 9.85901 12.2111 9.40704 12.9774 9.11865C13.708 8.83484 14.5427 8.64075 15.7652 8.5849C16.9899 8.52905 17.3811 8.51562 20.5 8.51562C23.6189 8.51562 24.0101 8.52905 25.2348 8.58521C26.4573 8.64075 27.292 8.83484 28.0226 9.11835C28.7889 9.40674 29.4832 9.85901 30.0569 10.4434C30.641 11.0172 31.0933 11.7111 31.3813 12.4774C31.6655 13.208 31.8596 14.0427 31.9154 15.2652C31.9713 16.4899 31.9844 16.8811 31.9844 20C31.9844 23.1189 31.9713 23.5101 31.9151 24.7348Z" fill="white"/>
    </g>
    <defs>
        <clipPath id="clip0_310_1437">
            <rect width="40" height="40" fill="white" transform="translate(0.5)"/>
        </clipPath>
    </defs>
    </symbol>

    <symbol id="vk" width="30" height="30" viewBox="0 0 30 30">
        <path d="M15.0059 0.435303C6.99801 0.435303 0.505859 6.92746 0.505859 14.9354C0.505859 22.9432 6.99801 29.4354 15.0059 29.4354C23.0138 29.4354 29.506 22.9432 29.506 14.9354C29.506 6.92746 23.0138 0.435303 15.0059 0.435303ZM20.5826 16.7943C20.5826 16.7943 21.8644 18.0606 22.1805 18.6483C22.1902 18.6599 22.1941 18.6725 22.197 18.6773C22.3255 18.8939 22.3555 19.0621 22.2927 19.1868C22.1863 19.3956 21.8238 19.498 21.7001 19.5077H19.4342C19.2776 19.5077 18.948 19.4661 18.5497 19.1916C18.2423 18.977 17.9407 18.6251 17.6459 18.2829C17.207 17.7716 16.8261 17.3308 16.4424 17.3308C16.3934 17.3308 16.3448 17.3386 16.2983 17.354C16.0083 17.4468 15.6371 17.8615 15.6371 18.9635C15.6371 19.3076 15.3655 19.5058 15.1731 19.5058H14.1359C13.7821 19.5058 11.9416 19.382 10.3098 17.6614C8.31365 15.554 6.51565 11.3287 6.50115 11.2891C6.38708 11.0155 6.62198 10.8695 6.87718 10.8695H9.16529C9.46979 10.8695 9.57032 11.0551 9.63896 11.2195C9.72112 11.4118 10.0198 12.1745 10.5109 13.032C11.3065 14.4308 11.7946 14.9992 12.1861 14.9992C12.2596 14.9992 12.3282 14.9798 12.3959 14.9441C12.9063 14.6608 12.8116 12.8406 12.7884 12.4626C12.7884 12.392 12.7874 11.6487 12.5254 11.2929C12.3389 11.0339 12.0199 10.9353 11.8265 10.8995C11.9046 10.7917 12.0073 10.7042 12.1262 10.6443C12.4771 10.4693 13.1083 10.4432 13.7357 10.4432H14.0837C14.7642 10.4529 14.9392 10.4964 15.1857 10.5583C15.6845 10.6772 15.6951 10.9991 15.6507 12.1001C15.6335 12.4607 15.6245 12.8217 15.6236 13.1828C15.6236 13.2736 15.6188 13.3703 15.6188 13.4728C15.6043 14.0335 15.5859 14.6695 15.9813 14.9305C16.0328 14.963 16.0924 14.9804 16.1533 14.9808C16.2916 14.9808 16.7043 14.9808 17.8257 13.0571C18.1714 12.4384 18.4718 11.7955 18.7247 11.1334C18.7469 11.0948 18.8136 10.9739 18.8919 10.9266C18.95 10.8971 19.0143 10.8821 19.0795 10.8831H21.7697C22.0626 10.8831 22.2627 10.9266 22.3014 11.0397C22.3681 11.2195 22.2888 11.7676 21.0611 13.4312C20.8543 13.7057 20.6716 13.9464 20.513 14.1543C19.3994 15.614 19.3994 15.6874 20.5826 16.7943Z" fill="white"/>
    </symbol>

    <symbol id="youtube" width="31" height="31" viewBox="0 0 31 31">
    <path d="M18.005 15.6743L14.495 14.0363C14.189 13.8953 13.937 14.0543 13.937 14.3933V17.4773C13.937 17.8163 14.189 17.9753 14.495 17.8343L18.0035 16.1963C18.311 16.0523 18.311 15.8183 18.0035 15.6743H18.005ZM15.5 0.935303C7.2155 0.935303 0.5 7.6508 0.5 15.9353C0.5 24.2198 7.2155 30.9353 15.5 30.9353C23.7845 30.9353 30.5 24.2198 30.5 15.9353C30.5 7.6508 23.7845 0.935303 15.5 0.935303ZM15.5 22.0298C7.8215 22.0298 7.688 21.3368 7.688 15.9353C7.688 10.5338 7.823 9.8408 15.5 9.8408C23.1785 9.8408 23.312 10.5338 23.312 15.9353C23.312 21.3368 23.177 22.0298 15.5 22.0298Z" fill="white"/>
    </symbol>

    <symbol id="whatsapp" width="21" height="20" viewBox="0 0 21 20">
        <path d="M10.5025 0H10.4975C4.98375 0 0.5 4.485 0.5 10C0.5 12.1875 1.205 14.215 2.40375 15.8612L1.1575 19.5763L5.00125 18.3475C6.5825 19.395 8.46875 20 10.5025 20C16.0162 20 20.5 15.5138 20.5 10C20.5 4.48625 16.0162 0 10.5025 0ZM16.3212 14.1213C16.08 14.8025 15.1225 15.3675 14.3587 15.5325C13.8363 15.6437 13.1537 15.7325 10.8562 14.78C7.9175 13.5625 6.025 10.5763 5.8775 10.3825C5.73625 10.1887 4.69 8.80125 4.69 7.36625C4.69 5.93125 5.41875 5.2325 5.7125 4.9325C5.95375 4.68625 6.3525 4.57375 6.735 4.57375C6.85875 4.57375 6.97 4.58 7.07 4.585C7.36375 4.5975 7.51125 4.615 7.705 5.07875C7.94625 5.66 8.53375 7.095 8.60375 7.2425C8.675 7.39 8.74625 7.59 8.64625 7.78375C8.5525 7.98375 8.47 8.0725 8.3225 8.2425C8.175 8.4125 8.035 8.5425 7.8875 8.725C7.7525 8.88375 7.6 9.05375 7.77 9.3475C7.94 9.635 8.5275 10.5937 9.3925 11.3637C10.5087 12.3575 11.4137 12.675 11.7375 12.81C11.9787 12.91 12.2662 12.8863 12.4425 12.6988C12.6663 12.4575 12.9425 12.0575 13.2238 11.6638C13.4237 11.3813 13.6763 11.3462 13.9412 11.4462C14.2113 11.54 15.64 12.2462 15.9338 12.3925C16.2275 12.54 16.4212 12.61 16.4925 12.7338C16.5625 12.8575 16.5625 13.4388 16.3212 14.1213Z" fill="white"/>
    </symbol>

    <symbol id="telegram" width="21" height="20" viewBox="0 0 21 20">
        <path d="M10.5 20C16.0242 20 20.5 15.5242 20.5 10C20.5 4.47583 16.0242 0 10.5 0C4.97583 0 0.5 4.47583 0.5 10C0.5 15.5242 4.97583 20 10.5 20ZM5.07583 9.78333L14.7175 6.06583C15.165 5.90417 15.5558 6.175 15.4108 6.85167L15.4117 6.85083L13.77 14.585C13.6483 15.1333 13.3225 15.2667 12.8667 15.0083L10.3667 13.1658L9.16083 14.3275C9.0275 14.4608 8.915 14.5733 8.65667 14.5733L8.83417 12.0292L13.4675 7.84333C13.6692 7.66583 13.4225 7.56583 13.1567 7.7425L7.43083 11.3475L4.9625 10.5775C4.42667 10.4075 4.415 10.0417 5.07583 9.78333Z" fill="white"/>
    </symbol>

    <symbol id="phone-top" width="39" height="40" viewBox="0 0 39 40">
        <path d="M16.5036 23.2188C12.6465 19.3597 8.95612 14.8874 10.7238 13.1197C13.251 10.5915 15.4555 9.03056 10.9724 3.45161C6.49132 -2.12441 3.50294 2.15974 1.05471 4.60991C-1.77279 7.43839 0.903591 17.982 11.3215 28.4028C21.7384 38.8217 32.2801 41.4912 35.1076 38.6598C37.5597 36.2106 41.8409 33.2359 36.2659 28.7538C30.6898 24.2698 29.1298 26.4723 26.5997 29.0054C24.832 30.7653 20.3617 27.0768 16.5026 23.2188H16.5036Z" fill="white"/>
    </symbol>

    <symbol id="fb-footer" width="41" height="40">
        <g clip-path="url(#a)"><path d="M20.502 0c-11.045 0-20 8.955-20 20s8.955 20 20 20 20-8.955 20-20-8.955-20-20-20zm4.737 13.821h-3.006c-.356 0-.752.468-.752 1.091v2.172h3.76l-.568 3.095H21.48v9.293h-3.547V20.18h-3.22v-3.096h3.219v-1.82c0-2.614 1.813-4.736 4.3-4.736h3.006v3.294z" fill="#fff"/></g><defs><clipPath id="a"><path fill="#fff" transform="translate(.5)" d="M0 0h40v40H0z"/></clipPath></defs>
    </symbol>

    <symbol id="ins-footer" width="41" height="40">
        <g clip-path="url(#a)" fill="#fff"><path d="M24.328 20a3.828 3.828 0 1 1-7.656 0 3.828 3.828 0 0 1 7.656 0z"/><path d="M29.452 13.227a3.558 3.558 0 0 0-.86-1.32 3.554 3.554 0 0 0-1.32-.86c-.404-.157-1.012-.344-2.132-.395-1.211-.055-1.574-.067-4.64-.067-3.067 0-3.43.012-4.642.067-1.12.051-1.727.238-2.132.395-.499.184-.95.478-1.32.86a3.56 3.56 0 0 0-.86 1.32c-.157.405-.344 1.013-.395 2.132-.055 1.211-.067 1.574-.067 4.641s.012 3.43.067 4.641c.051 1.12.238 1.728.395 2.132.185.5.478.95.86 1.32.37.382.82.676 1.32.86.405.157 1.013.344 2.132.395 1.211.056 1.574.067 4.641.067s3.43-.011 4.64-.067c1.12-.05 1.729-.238 2.133-.395a3.803 3.803 0 0 0 2.18-2.18c.157-.404.344-1.012.395-2.132.056-1.211.067-1.574.067-4.64 0-3.068-.011-3.43-.067-4.642-.05-1.12-.238-1.727-.395-2.132zm-8.953 12.67a5.897 5.897 0 1 1 0-11.794 5.897 5.897 0 0 1 0 11.794zm6.13-10.65a1.378 1.378 0 1 1 0-2.756 1.378 1.378 0 0 1 0 2.757z"/><path d="M20.5 0C9.456 0 .5 8.956.5 20s8.956 20 20 20 20-8.956 20-20-8.956-20-20-20zm11.415 24.735c-.055 1.222-.25 2.057-.534 2.788a5.872 5.872 0 0 1-3.358 3.358c-.73.284-1.566.478-2.788.534-1.225.056-1.616.07-4.735.07s-3.51-.014-4.735-.07c-1.222-.056-2.057-.25-2.787-.534a5.626 5.626 0 0 1-2.035-1.324 5.628 5.628 0 0 1-1.324-2.034c-.284-.73-.478-1.566-.534-2.788-.056-1.225-.07-1.616-.07-4.735s.014-3.51.07-4.735c.055-1.222.25-2.057.533-2.788.289-.766.741-1.46 1.325-2.034a5.625 5.625 0 0 1 2.034-1.324c.731-.284 1.566-.478 2.788-.534 1.225-.056 1.616-.07 4.735-.07s3.51.014 4.735.07c1.222.056 2.057.25 2.788.533a5.63 5.63 0 0 1 2.034 1.325 5.626 5.626 0 0 1 1.324 2.034c.285.731.479 1.566.534 2.788.056 1.225.07 1.616.07 4.735s-.014 3.51-.07 4.735z"/></g><defs><clipPath id="a"><path fill="#fff" transform="translate(.5)" d="M0 0h40v40H0z"/></clipPath></defs>
    </symbol>

    <symbol id="vk-footer" width="41" height="40">
        <g clip-path="url(#a)"><path d="M20.508 0c-11.045 0-20 8.955-20 20s8.955 20 20 20 20-8.955 20-20-8.955-20-20-20zM28.2 22.564s1.768 1.747 2.204 2.557c.013.016.019.034.023.04.177.3.218.531.132.703-.147.288-.647.43-.818.443h-3.125c-.216 0-.67-.058-1.22-.436-.424-.296-.84-.782-1.247-1.254-.605-.705-1.13-1.313-1.66-1.313a.632.632 0 0 0-.198.032c-.4.128-.912.7-.912 2.22 0 .475-.375.748-.64.748h-1.431c-.488 0-3.027-.17-5.277-2.544-2.754-2.907-5.234-8.735-5.254-8.79-.157-.377.167-.578.519-.578h3.156c.42 0 .559.256.653.483.114.265.525 1.317 1.203 2.5 1.097 1.93 1.77 2.713 2.31 2.713a.61.61 0 0 0 .29-.076c.704-.39.573-2.901.541-3.423 0-.097-.001-1.122-.363-1.613-.257-.357-.697-.493-.963-.543.107-.148.249-.27.413-.352.484-.241 1.354-.277 2.22-.277h.48c.938.013 1.18.073 1.52.159.688.164.703.608.641 2.126a33.05 33.05 0 0 0-.037 1.494c0 .125-.007.258-.007.4-.02.773-.045 1.65.5 2.01a.45.45 0 0 0 .238.07c.19 0 .76 0 2.306-2.654a20.27 20.27 0 0 0 1.24-2.653c.03-.053.123-.22.23-.285a.553.553 0 0 1 .26-.06h3.71c.404 0 .68.06.734.216.092.248-.018 1.004-1.711 3.298-.285.38-.537.711-.756.998-1.536 2.013-1.536 2.114.096 3.641z" fill="#fff"/></g><defs><clipPath id="a"><path fill="#fff" transform="translate(.5)" d="M0 0h40v40H0z"/></clipPath></defs>
    </symbol>

    <symbol id="youtube-footer" width="41" height="40">
        <g clip-path="url(#a)"><path d="m23.84 19.652-4.68-2.184c-.408-.188-.744.024-.744.476v4.112c0 .452.336.664.744.476l4.678-2.184c.41-.192.41-.504 0-.696h.002zM20.5 0C9.454 0 .5 8.954.5 20s8.954 20 20 20 20-8.954 20-20-8.954-20-20-20zm0 28.126c-10.238 0-10.416-.924-10.416-8.126 0-7.202.18-8.126 10.416-8.126 10.238 0 10.416.924 10.416 8.126 0 7.202-.18 8.126-10.416 8.126z" fill="#fff"/></g><defs><clipPath id="a"><path fill="#fff" transform="translate(.5)" d="M0 0h40v40H0z"/></clipPath></defs>
    </symbol>

    <symbol id="users-btn" width="44" height="44" viewBox="0 0 44 44">
        <circle cx="22" cy="22" r="22" fill="white"/>
        <path d="M24.6726 15.6968C25.6436 16.3056 26.3244 17.3358 26.4484 18.5317C26.8444 18.7167 27.2839 18.8231 27.7499 18.8231C29.451 18.8231 30.8298 17.4443 30.8298 15.7435C30.8298 14.0423 29.451 12.6636 27.7499 12.6636C26.065 12.6641 24.6983 14.0182 24.6726 15.6968ZM22.6549 22.0028C24.356 22.0028 25.7348 20.6238 25.7348 18.923C25.7348 17.2221 24.3557 15.8433 22.6549 15.8433C20.954 15.8433 19.5745 17.2224 19.5745 18.9232C19.5745 20.6241 20.954 22.0028 22.6549 22.0028ZM23.9613 22.2128H21.3479C19.1735 22.2128 17.4045 23.982 17.4045 26.1565V29.3525L17.4126 29.4025L17.6328 29.4714C19.7079 30.1198 21.5107 30.336 22.9945 30.336C25.8928 30.336 27.5727 29.5097 27.6762 29.457L27.882 29.353H27.904V26.1565C27.9048 23.982 26.1358 22.2128 23.9613 22.2128ZM29.0568 19.0333H26.4636C26.4356 20.0708 25.9927 21.0051 25.2921 21.6771C27.2249 22.2518 28.6391 24.0441 28.6391 26.1612V27.1461C31.1996 27.0522 32.675 26.3265 32.7723 26.2778L32.978 26.1735H33V22.9765C33 20.8023 31.231 19.0333 29.0568 19.0333ZM17.2507 18.8236C17.8532 18.8236 18.4137 18.6478 18.8886 18.3482C19.0396 17.3636 19.5674 16.5032 20.3214 15.9172C20.3245 15.8596 20.33 15.8024 20.33 15.7443C20.33 14.0431 18.951 12.6644 17.2507 12.6644C15.5493 12.6644 14.1708 14.0431 14.1708 15.7443C14.1708 17.4446 15.5493 18.8236 17.2507 18.8236ZM20.0166 21.6771C19.3195 21.0085 18.8781 20.0792 18.8459 19.048C18.7497 19.0409 18.6546 19.0333 18.5566 19.0333H15.9434C13.769 19.0333 12 20.8023 12 22.9765V26.173L12.0081 26.2222L12.2283 26.2917C13.893 26.8114 15.3787 27.0509 16.6691 27.1264V26.1612C16.6696 24.0441 18.0833 22.2523 20.0166 21.6771Z" fill="#FFAF3E"/>
    </symbol>
    
    <symbol id="cart" wwidth="44" height="44" viewBox="0 0 44 44">
        <circle cx="22" cy="22" r="22" fill="white"/>
        <path d="M7.49414 12.4797C7.49414 12.9773 7.90682 13.4021 8.39231 13.4021H12.4947L14.4366 26.7288C14.6915 28.4523 15.6018 29.5326 17.3618 29.5326H31.526C31.9993 29.5326 32.4119 29.1442 32.4119 28.6223C32.4119 28.1004 31.9993 27.7119 31.526 27.7119H17.5681C16.8763 27.7119 16.4515 27.2264 16.3422 26.4861L16.148 25.2117H31.5502C33.3222 25.2117 34.2325 24.1193 34.4875 22.3837L35.4584 15.963C35.4828 15.8053 35.5069 15.6111 35.5069 15.5018C35.5069 14.9193 35.0699 14.5187 34.4025 14.5187H14.5944L14.3517 12.9773C14.2303 12.0427 13.8905 11.5693 12.6525 11.5693H8.39231C7.90682 11.5693 7.49414 11.9942 7.49414 12.4797ZM16.3422 33.465C16.3422 34.5695 17.2161 35.4313 18.3206 35.4313C19.4129 35.4313 20.2868 34.5695 20.2868 33.465C20.2868 32.3726 19.4129 31.4988 18.3206 31.4988C17.2161 31.4988 16.3422 32.3726 16.3422 33.465ZM27.6906 33.465C27.6906 34.5695 28.5766 35.4313 29.6689 35.4313C30.7734 35.4313 31.6474 34.5695 31.6474 33.465C31.6474 32.3726 30.7734 31.4988 29.6689 31.4988C28.5766 31.4988 27.6906 32.3726 27.6906 33.465Z" fill="#FFAF3E"/>
    </symbol>

    <symbol id="certificate-1" width="119" height="119" viewBox="0 0 119 119">
    <circle opacity="0.1" cx="59.5" cy="59.5" r="50.5" fill="#FFAF3E"/>
<circle opacity="0.2" cx="59.5" cy="59.5" r="59" stroke="#FFAF3E"/>
<circle cx="59.5" cy="59.5" r="38.5" fill="#FFAF3E"/>
<g clip-path="url(#clip0_302_253)">
<path d="M82.7768 72.9435L74.7599 59.0572C74.5441 58.6835 74.0043 58.6966 73.801 59.0772C71.4763 63.4286 67.409 66.4618 62.729 67.5198C62.3704 67.6009 62.1946 68.008 62.3784 68.3264L69.4778 80.6229C70.1787 81.8368 71.9753 81.6681 72.446 80.3564L74.648 74.2214L81.0621 75.381C82.4354 75.6291 83.475 74.1528 82.7768 72.9435Z" fill="white"/>
<path d="M55.2712 67.5199C50.5896 66.4614 46.5229 63.4266 44.1993 59.0772C43.9959 58.6965 43.4561 58.6835 43.2403 59.0572L35.2233 72.9435C34.5257 74.1518 35.5638 75.6292 36.9379 75.381L43.352 74.2213L45.554 80.3564C46.0247 81.6676 47.8212 81.8371 48.5222 80.6228L55.6216 68.3263C55.8055 68.0079 55.6298 67.6009 55.2712 67.5199Z" fill="white"/>
<path d="M72.5776 56.5213V56.5212C74.3566 52.0279 73.7931 46.9536 71.0704 42.9473C65.2786 34.4248 52.7218 34.4271 46.932 42.9464C44.2087 46.9536 43.6448 52.0282 45.4237 56.5213C50.2957 68.8242 67.7287 68.7666 72.5776 56.5213ZM67.0248 50.7813L64.2042 53.5305L64.87 57.4126C65.1016 58.7629 63.6792 59.7712 62.4869 59.144L59.0006 57.3112L55.5143 59.1441C54.3119 59.7763 52.9014 58.7525 53.1312 57.4127L53.797 53.5306L50.9764 50.7814C50.0037 49.833 50.5415 48.1753 51.8866 47.9799L55.7845 47.4135L57.5276 43.8815C58.1288 42.6631 59.8717 42.6625 60.4733 43.8815L62.2164 47.4135L66.1142 47.9799C67.4588 48.1751 67.9981 49.8324 67.0248 50.7813Z" fill="white"/>
</g>
<defs>
<clipPath id="clip0_302_253">
<rect width="48" height="48" fill="white" transform="translate(35 35)"/>
</clipPath>
</defs>
    </symbol>

    <symbol id="certificate-2" width="119" height="119" viewBox="0 0 119 119">
    <circle opacity="0.1" cx="59.5" cy="59.5" r="50.5" fill="#FFAF3E"/>
<circle opacity="0.2" cx="59.5" cy="59.5" r="59" stroke="#FFAF3E"/>
<circle cx="59.5" cy="59.5" r="38.5" fill="#FFAF3E"/>
<g clip-path="url(#clip0_302_1357)">
<path d="M75.794 39.0132H48.7112C44.5675 39.0132 42.4857 41.0128 42.4857 45.0314V56.1164C43.021 56.0582 43.5564 56.0194 44.0719 56.0194C44.6071 56.0194 45.1424 56.0582 45.6778 56.1164V50.603C45.6778 48.817 46.6691 47.8852 48.4139 47.8852H76.0519C77.8165 47.8852 78.8077 48.817 78.8077 50.603V68.9099C78.8077 70.7154 77.8165 71.6277 76.0519 71.6277H56.4237C56.166 72.7343 55.7298 73.7826 55.1548 74.7533H75.794C79.9377 74.7533 82 72.7343 82 68.7351V45.0314C82 41.0323 79.9377 39.0132 75.794 39.0132ZM60.2899 54.8545H61.4597C62.1535 54.8545 62.3717 54.6604 62.3717 53.9809V52.8355C62.3717 52.1561 62.1535 51.9425 61.4597 51.9425H60.2899C59.5959 51.9425 59.3581 52.1561 59.3581 52.8355V53.9809C59.3581 54.6604 59.5959 54.8545 60.2899 54.8545ZM65.9206 54.8545H67.0903C67.7843 54.8545 68.0023 54.6604 68.0023 53.9809V52.8355C68.0023 52.1561 67.7843 51.9425 67.0903 51.9425H65.9206C65.2267 51.9425 64.9887 52.1561 64.9887 52.8355V53.9809C64.9887 54.6604 65.2267 54.8545 65.9206 54.8545ZM71.5513 54.8545H72.7211C73.4149 54.8545 73.633 54.6604 73.633 53.9809V52.8355C73.633 52.1561 73.4149 51.9425 72.7211 51.9425H71.5513C70.8574 51.9425 70.6195 52.1561 70.6195 52.8355V53.9809C70.6195 54.6604 70.8574 54.8545 71.5513 54.8545ZM54.6592 61.2027H55.8289C56.5229 61.2027 56.7409 61.0086 56.7409 60.3291V59.1837C56.7409 58.5043 56.5229 58.3101 55.8289 58.3101H54.6592C53.9653 58.3101 53.7273 58.5043 53.7273 59.1837V60.3291C53.7273 61.0086 53.9653 61.2027 54.6592 61.2027ZM60.2899 61.2027H61.4597C62.1535 61.2027 62.3717 61.0086 62.3717 60.3291V59.1837C62.3717 58.5043 62.1535 58.3101 61.4597 58.3101H60.2899C59.5959 58.3101 59.3581 58.5043 59.3581 59.1837V60.3291C59.3581 61.0086 59.5959 61.2027 60.2899 61.2027ZM65.9206 61.2027H67.0903C67.7843 61.2027 68.0023 61.0086 68.0023 60.3291V59.1837C68.0023 58.5043 67.7843 58.3101 67.0903 58.3101H65.9206C65.2267 58.3101 64.9887 58.5043 64.9887 59.1837V60.3291C64.9887 61.0086 65.2267 61.2027 65.9206 61.2027ZM71.5513 61.2027H72.7211C73.4149 61.2027 73.633 61.0086 73.633 60.3291V59.1837C73.633 58.5043 73.4149 58.3101 72.7211 58.3101H71.5513C70.8574 58.3101 70.6195 58.5043 70.6195 59.1837V60.3291C70.6195 61.0086 70.8574 61.2027 71.5513 61.2027ZM44.0719 78.403C49.5439 78.403 54.1437 73.938 54.1437 68.541C54.1437 63.1441 49.6034 58.679 44.0719 58.679C38.5601 58.679 34 63.1441 34 68.541C34 73.9767 38.5601 78.403 44.0719 78.403ZM44.0917 74.9475C43.3977 74.9475 42.7831 74.4815 42.7831 73.7632V69.7253H38.9963C38.3221 69.7253 37.767 69.1816 37.767 68.541C37.767 67.9004 38.3221 67.3568 38.9963 67.3568H42.7831V63.3382C42.7831 62.6005 43.3977 62.1346 44.0917 62.1346C44.7658 62.1346 45.3804 62.6005 45.3804 63.3382V67.3568H49.1672C49.8414 67.3568 50.3767 67.9004 50.3767 68.541C50.3767 69.1816 49.8414 69.7253 49.1672 69.7253H45.3804V73.7632C45.3804 74.4815 44.7658 74.9475 44.0917 74.9475ZM60.2899 67.5704H61.4597C62.1535 67.5704 62.3717 67.3568 62.3717 66.6773V65.5319C62.3717 64.8524 62.1535 64.6583 61.4597 64.6583H60.2899C59.5959 64.6583 59.3581 64.8524 59.3581 65.5319V66.6773C59.3581 67.3568 59.5959 67.5704 60.2899 67.5704ZM65.9206 67.5704H67.0903C67.7843 67.5704 68.0023 67.3568 68.0023 66.6773V65.5319C68.0023 64.8524 67.7843 64.6583 67.0903 64.6583H65.9206C65.2267 64.6583 64.9887 64.8524 64.9887 65.5319V66.6773C64.9887 67.3568 65.2267 67.5704 65.9206 67.5704Z" fill="white"/>
<ellipse cx="44.4521" cy="67.2177" rx="8.90323" ry="8.71774" fill="white"/>
<path d="M41.3701 73H39.4087V67.6299C39.4087 67.4818 39.4108 67.2998 39.415 67.084C39.4193 66.8639 39.4256 66.6396 39.4341 66.4111C39.4425 66.1784 39.451 65.9689 39.4595 65.7827C39.4129 65.8377 39.3177 65.9329 39.1738 66.0684C39.0342 66.1995 38.903 66.318 38.7803 66.4238L37.7139 67.2808L36.7681 66.1001L39.7578 63.7197H41.3701V73ZM50.3965 68.3599C50.3965 69.1089 50.3372 69.7775 50.2188 70.3657C50.1045 70.9539 49.9183 71.4533 49.6602 71.8638C49.4062 72.2743 49.0719 72.5874 48.6572 72.8032C48.2425 73.019 47.7389 73.127 47.1465 73.127C46.4017 73.127 45.7902 72.9386 45.312 72.562C44.8338 72.1812 44.4805 71.6353 44.252 70.9243C44.0234 70.2091 43.9092 69.3543 43.9092 68.3599C43.9092 67.3569 44.0129 66.5 44.2202 65.7891C44.4318 65.0739 44.7746 64.5259 45.2485 64.145C45.7225 63.7642 46.3551 63.5737 47.1465 63.5737C47.887 63.5737 48.4964 63.7642 48.9746 64.145C49.457 64.5216 49.8146 65.0675 50.0474 65.7827C50.2801 66.4937 50.3965 67.3527 50.3965 68.3599ZM45.8579 68.3599C45.8579 69.0666 45.896 69.6569 45.9722 70.1309C46.0526 70.6006 46.1859 70.9539 46.3721 71.1909C46.5583 71.4279 46.8164 71.5464 47.1465 71.5464C47.4723 71.5464 47.7284 71.43 47.9146 71.1973C48.105 70.9603 48.2404 70.6069 48.3208 70.1372C48.4012 69.6632 48.4414 69.0708 48.4414 68.3599C48.4414 67.6532 48.4012 67.0628 48.3208 66.5889C48.2404 66.1149 48.105 65.7594 47.9146 65.5225C47.7284 65.2812 47.4723 65.1606 47.1465 65.1606C46.8164 65.1606 46.5583 65.2812 46.3721 65.5225C46.1859 65.7594 46.0526 66.1149 45.9722 66.5889C45.896 67.0628 45.8579 67.6532 45.8579 68.3599Z" fill="#FFAF3E"/>
</g>
<defs>
<clipPath id="clip0_302_1357">
<rect width="48" height="47" fill="white" transform="translate(34 35)"/>
</clipPath>
</defs></symbol>
</svg>


