<svg width="165" height="126" viewBox="0 0 165 126" fill="none" xmlns="http://www.w3.org/2000/svg">
<g clip-path="url(#clip0_735_6195)">
<path d="M139.133 120.484C139.133 106.259 125.3 99.0193 111.828 93.2053C98.4003 87.4165 94.112 82.5399 94.112 72.0897C94.112 65.826 98.2106 67.8653 100.007 56.3765C100.766 51.6138 104.384 56.3005 105.079 45.4262C105.079 41.0941 103.1 40.0174 103.1 40.0174C103.1 40.0174 104.105 33.6017 104.498 28.6616C104.902 23.4872 101.98 12.4481 89.944 9.05973C87.8441 6.90004 86.421 3.47367 92.8976 0.0409708C78.7299 -0.617703 75.4346 6.80504 67.889 12.2645C61.4692 17.0524 59.7362 24.6335 60.0461 28.6679C60.4572 33.608 61.4566 40.0237 61.4566 40.0237C61.4566 40.0237 59.4706 41.1004 59.4706 45.4325C60.1663 56.3132 63.7968 51.6201 64.5495 56.3829C66.3457 67.8717 70.4506 65.8323 70.4506 72.0961C70.4506 82.5462 69.1097 86.0928 55.6757 91.8816C42.1973 97.6893 38.0039 107 38.0735 120.484C38.0925 124.518 38.0039 126 38.0039 126H139.203C139.203 126 139.133 124.518 139.133 120.484ZM155.192 83.9775C148.013 81.0832 145.041 77.6315 145.041 70.8927C145.041 66.833 147.684 68.1567 148.848 60.7403C149.335 57.6749 151.675 60.6896 152.124 53.6785C152.124 50.8855 150.847 50.1888 150.847 50.1888C150.847 50.1888 151.498 46.0342 151.751 42.8484C152.067 38.8774 149.449 28.6173 137.406 28.6173C125.37 28.6173 122.745 38.8774 123.055 42.8484C123.32 46.0278 123.966 50.1888 123.966 50.1888C123.966 50.1888 122.688 50.8791 122.688 53.6785C123.137 60.6896 125.477 57.6749 125.964 60.7403C127.128 68.163 129.772 66.8393 129.772 70.8927C129.772 77.6315 127.002 80.7855 118.33 84.5221C117.894 84.7058 117.571 84.9528 117.173 85.1681C127.545 89.6775 143.902 97.4613 147.773 113.333H164.502C164.502 113.333 164.502 101.262 164.502 98.652C164.502 92.3186 162.776 87.0365 155.192 83.9775Z" fill="#FFAF3E"/>
<path d="M9.815 85.0975C16.9938 82.2031 19.9665 78.7515 19.9665 72.0128C19.9665 67.9531 17.3227 69.2767 16.1589 61.8603C15.6719 58.7949 13.3317 61.8096 12.8826 54.7985C12.8826 52.0055 14.1603 51.3088 14.1603 51.3088C14.1603 51.3088 13.5088 47.1542 13.2558 43.9685C12.9396 39.9974 15.5581 29.7373 27.6006 29.7373C39.6369 29.7373 42.2618 39.9974 41.9518 43.9685C41.6862 47.1479 41.0411 51.3088 41.0411 51.3088C41.0411 51.3088 42.3187 51.9992 42.3187 54.7985C41.8696 61.8096 39.5294 58.7949 39.0424 61.8603C37.8786 69.2831 35.2348 67.9594 35.2348 72.0128C35.2348 78.7515 38.0051 80.9124 46.6765 84.649C47.113 84.8327 47.4355 85.0797 47.834 85.2951C37.4611 89.8044 31.0509 98.5814 27.18 114.453H0.504826C0.504826 114.453 0.504826 102.381 0.504826 99.772C0.504826 93.4386 2.23152 88.1565 9.815 85.0975Z" fill="#FFAF3E"/>
</g>
<defs>
<clipPath id="clip0_735_6195">
<rect width="164" height="126" fill="white" transform="translate(0.5)"/>
</clipPath>
</defs>
</svg>
