<svg width="30" height="30" viewBox="0 0 30 30" fill="none" xmlns="http://www.w3.org/2000/svg">
<path d="M15.0059 0.435303C6.99801 0.435303 0.505859 6.92746 0.505859 14.9354C0.505859 22.9432 6.99801 29.4354 15.0059 29.4354C23.0138 29.4354 29.506 22.9432 29.506 14.9354C29.506 6.92746 23.0138 0.435303 15.0059 0.435303ZM20.5826 16.7943C20.5826 16.7943 21.8644 18.0606 22.1805 18.6483C22.1902 18.6599 22.1941 18.6725 22.197 18.6773C22.3255 18.8939 22.3555 19.0621 22.2927 19.1868C22.1863 19.3956 21.8238 19.498 21.7001 19.5077H19.4342C19.2776 19.5077 18.948 19.4661 18.5497 19.1916C18.2423 18.977 17.9407 18.6251 17.6459 18.2829C17.207 17.7716 16.8261 17.3308 16.4424 17.3308C16.3934 17.3308 16.3448 17.3386 16.2983 17.354C16.0083 17.4468 15.6371 17.8615 15.6371 18.9635C15.6371 19.3076 15.3655 19.5058 15.1731 19.5058H14.1359C13.7821 19.5058 11.9416 19.382 10.3098 17.6614C8.31365 15.554 6.51565 11.3287 6.50115 11.2891C6.38708 11.0155 6.62198 10.8695 6.87718 10.8695H9.16529C9.46979 10.8695 9.57032 11.0551 9.63896 11.2195C9.72112 11.4118 10.0198 12.1745 10.5109 13.032C11.3065 14.4308 11.7946 14.9992 12.1861 14.9992C12.2596 14.9992 12.3282 14.9798 12.3959 14.9441C12.9063 14.6608 12.8116 12.8406 12.7884 12.4626C12.7884 12.392 12.7874 11.6487 12.5254 11.2929C12.3389 11.0339 12.0199 10.9353 11.8265 10.8995C11.9046 10.7917 12.0073 10.7042 12.1262 10.6443C12.4771 10.4693 13.1083 10.4432 13.7357 10.4432H14.0837C14.7642 10.4529 14.9392 10.4964 15.1857 10.5583C15.6845 10.6772 15.6951 10.9991 15.6507 12.1001C15.6335 12.4607 15.6245 12.8217 15.6236 13.1828C15.6236 13.2736 15.6188 13.3703 15.6188 13.4728C15.6043 14.0335 15.5859 14.6695 15.9813 14.9305C16.0328 14.963 16.0924 14.9804 16.1533 14.9808C16.2916 14.9808 16.7043 14.9808 17.8257 13.0571C18.1714 12.4384 18.4718 11.7955 18.7247 11.1334C18.7469 11.0948 18.8136 10.9739 18.8919 10.9266C18.95 10.8971 19.0143 10.8821 19.0795 10.8831H21.7697C22.0626 10.8831 22.2627 10.9266 22.3014 11.0397C22.3681 11.2195 22.2888 11.7676 21.0611 13.4312C20.8543 13.7057 20.6716 13.9464 20.513 14.1543C19.3994 15.614 19.3994 15.6874 20.5826 16.7943Z" fill="white"/>
</svg>
