<svg width="41" height="40" viewBox="0 0 41 40" fill="none" xmlns="http://www.w3.org/2000/svg">
<g clip-path="url(#clip0_320_229)">
<path d="M20.5079 0C9.46251 0 0.507812 8.9547 0.507812 20.0001C0.507812 31.0454 9.46251 40.0001 20.5079 40.0001C31.5533 40.0001 40.5079 31.0454 40.5079 20.0001C40.5079 8.9547 31.5533 0 20.5079 0ZM28.1999 22.5641C28.1999 22.5641 29.9679 24.3107 30.4039 25.1214C30.4172 25.1374 30.4226 25.1548 30.4266 25.1614C30.6039 25.4601 30.6452 25.6921 30.5586 25.8641C30.4119 26.1521 29.9119 26.2934 29.7412 26.3068H26.6159C26.3999 26.3068 25.9452 26.2494 25.3959 25.8708C24.9719 25.5748 24.5559 25.0894 24.1492 24.6174C23.5439 23.9121 23.0186 23.3041 22.4892 23.3041C22.4217 23.3041 22.3546 23.3149 22.2906 23.3361C21.8906 23.4641 21.3786 24.0361 21.3786 25.5561C21.3786 26.0308 21.0039 26.3041 20.7385 26.3041H19.3079C18.8199 26.3041 16.2812 26.1334 14.0305 23.7601C11.2772 20.8534 8.79717 15.0254 8.77717 14.9707C8.61984 14.5934 8.94384 14.392 9.29584 14.392H12.4519C12.8719 14.392 13.0105 14.6481 13.1052 14.8747C13.2185 15.1401 13.6305 16.1921 14.3079 17.3747C15.4052 19.3041 16.0785 20.0881 16.6185 20.0881C16.7199 20.0881 16.8145 20.0614 16.9079 20.0121C17.6119 19.6214 17.4812 17.1107 17.4492 16.5894C17.4492 16.4921 17.4479 15.4667 17.0865 14.9761C16.8292 14.6187 16.3892 14.4827 16.1225 14.4334C16.2301 14.2847 16.3719 14.1639 16.5359 14.0814C17.0199 13.84 17.8905 13.804 18.7559 13.804H19.2359C20.1745 13.8174 20.4159 13.8774 20.7559 13.9627C21.4439 14.1267 21.4586 14.5707 21.3972 16.0894C21.3735 16.5868 21.3611 17.0847 21.3599 17.5827C21.3599 17.7081 21.3532 17.8414 21.3532 17.9827C21.3332 18.7561 21.3079 19.6334 21.8532 19.9934C21.9243 20.0382 22.0065 20.0622 22.0906 20.0627C22.2812 20.0627 22.8506 20.0627 24.3972 17.4094C24.874 16.556 25.2884 15.6692 25.6372 14.7561C25.6679 14.7027 25.7599 14.536 25.8679 14.4707C25.948 14.43 26.0368 14.4094 26.1266 14.4107H29.8372C30.2412 14.4107 30.5173 14.4707 30.5706 14.6267C30.6626 14.8747 30.5532 15.6307 28.8599 17.9254C28.5746 18.3041 28.3226 18.6361 28.1039 18.9227C26.5679 20.9361 26.5679 21.0374 28.1999 22.5641Z" fill="white"/>
</g>
<defs>
<clipPath id="clip0_320_229">
<rect width="40" height="40" fill="white" transform="translate(0.5)"/>
</clipPath>
</defs>
</svg>
