<svg width="170" height="132" viewBox="0 0 170 132" fill="none" xmlns="http://www.w3.org/2000/svg">
<g clip-path="url(#clip0_735_6267)">
<path d="M13.1582 98.306H43.2345H103.492C112.056 98.306 130.818 101.198 131.106 87.6102C131.11 87.4082 131.048 87.2021 130.933 87.0359L126.094 80.0433C125.868 79.7173 125.471 79.5573 125.081 79.6322C121.746 80.2744 116.655 80.9974 108.827 79.5062C100.882 77.9929 94.1073 69.7586 92.1864 65.2544C92.0203 64.8649 91.6478 64.5988 91.2242 64.5988H63.6079C61.7859 64.2676 58.1418 62.1143 58.1418 56.1513C58.1418 50.1884 61.7859 48.035 63.6079 47.7038H90.4412C90.4412 46.383 91.5839 44.2852 92.4456 42.9479C92.7126 42.5336 92.6627 41.9844 92.3076 41.6426L80.0864 29.8739C79.716 29.5173 79.2069 29.3169 78.6928 29.3224C54.6168 29.5808 52.5235 41.3147 48.2559 51.3477C46.7216 47.2897 31.734 48.6149 25.8164 51.3477C18.9119 54.5363 11.0485 69.0296 13.1582 74.2472C8.9388 75.0202 0.5 78.943 0.5 87.2911C0.5 95.6393 8.9388 98.1128 13.1582 98.306Z" fill="#FFAF3E"/>
<path d="M70.1059 91.6239H68.746L69.6226 90.7759C69.8579 90.5484 69.8655 90.1718 69.6397 89.9348C69.4139 89.6978 69.0402 89.6901 68.8049 89.9176L67.0409 91.6239H66.1976V91.2443C66.1976 90.9158 65.9333 90.6494 65.6072 90.6494C65.2811 90.6494 65.0168 90.9158 65.0168 91.2443V91.6239H63.0523C62.9911 91.3695 62.8922 91.1299 62.761 90.912L66.1474 87.4999L67.9482 87.2267C68.2706 87.1777 68.4928 86.8747 68.4442 86.5498C68.3957 86.225 68.0948 86.0013 67.7724 86.0501L66.5372 86.2375L66.719 85.0213C66.7675 84.6964 66.5455 84.3934 66.223 84.3445C65.9006 84.2957 65.5998 84.5193 65.5513 84.8442L65.2745 86.697L61.9291 90.0677C61.7084 89.9303 61.4651 89.8269 61.2063 89.7637V87.7959H61.583C61.9091 87.7959 62.1734 87.5296 62.1734 87.2011C62.1734 86.8725 61.9091 86.6062 61.583 86.6062H61.2063V85.7821L62.9026 83.9761C63.1267 83.7375 63.1165 83.361 62.8796 83.1351C62.6428 82.9093 62.2691 82.9197 62.045 83.1583L61.2063 84.0512V82.6681C61.2063 82.3396 60.942 82.0732 60.6159 82.0732C60.2898 82.0732 60.0255 82.3396 60.0255 82.6681V84.0384L59.1838 83.1551C58.958 82.9181 58.5843 82.9105 58.349 83.138C58.1138 83.3655 58.1062 83.7421 58.332 83.9791L60.0254 85.7565V86.6062H59.6487C59.3226 86.6062 59.0583 86.8725 59.0583 87.2011C59.0583 87.5296 59.3226 87.7959 59.6487 87.7959H60.0254V89.7637C59.8082 89.8167 59.6018 89.898 59.4107 90.004L56.0789 86.6469L55.8021 84.7941C55.7535 84.4693 55.4527 84.2456 55.1303 84.2944C54.8079 84.3434 54.5859 84.6464 54.6344 84.9712L54.8162 86.1875L53.5809 86.0001C53.2585 85.9513 52.9577 86.1749 52.9092 86.4998C52.8607 86.8247 53.0827 87.1277 53.4051 87.1766L55.206 87.4498L58.5376 90.8067C58.373 91.0519 58.2506 91.3279 58.1794 91.6238H56.2382V91.2442C56.2382 90.9157 55.9738 90.6493 55.6478 90.6493C55.3217 90.6493 55.0574 90.9157 55.0574 91.2442V91.6238H54.2395L52.447 89.9147C52.2103 89.6888 51.8366 89.6992 51.6124 89.9378C51.3883 90.1764 51.3986 90.5529 51.6354 90.7788L52.5215 91.6238H51.149C50.8229 91.6239 50.5586 91.8902 50.5586 92.2188C50.5586 92.5473 50.8229 92.8136 51.149 92.8136H52.509L51.6324 93.6615C51.3971 93.8891 51.3895 94.2657 51.6153 94.5026C51.7312 94.6244 51.8862 94.6856 52.0413 94.6856C52.1884 94.6856 52.3356 94.6305 52.4501 94.5198L54.2142 92.8136H55.0574V93.1931C55.0574 93.5217 55.3218 93.7881 55.6478 93.7881C55.9739 93.7881 56.2382 93.5217 56.2382 93.1931V92.8136H58.1795C58.2422 93.0743 58.3449 93.3194 58.4812 93.5418L55.149 96.8992L53.3102 97.1781C52.9878 97.2271 52.7658 97.5301 52.8143 97.855C52.8584 98.1499 53.1101 98.3613 53.3974 98.3613C53.4266 98.3613 53.4563 98.3592 53.486 98.3547L54.6931 98.1715L54.5071 99.4162C54.4586 99.7411 54.6806 100.044 55.0031 100.093C55.0329 100.097 55.0625 100.1 55.0917 100.1C55.3789 100.1 55.6308 99.8882 55.6748 99.5933L55.946 97.7788L59.3192 94.38C59.5354 94.5122 59.7732 94.6118 60.0256 94.6735V96.6411H59.6489C59.3228 96.6411 59.0585 96.9075 59.0585 97.236C59.0585 97.5646 59.3228 97.8309 59.6489 97.8309H60.0256V98.6551L58.3293 100.461C58.1052 100.7 58.1155 101.076 58.3523 101.302C58.4664 101.411 58.6123 101.465 58.758 101.465C58.9146 101.465 59.0708 101.402 59.1869 101.279L60.0256 100.386V101.769C60.0256 102.098 60.29 102.364 60.616 102.364C60.9421 102.364 61.2064 102.098 61.2064 101.769V100.399L62.048 101.282C62.2738 101.519 62.6476 101.527 62.8827 101.299C63.1181 101.072 63.1256 100.695 62.8998 100.458L61.2064 98.6806V97.8308H61.5831C61.9092 97.8308 62.1735 97.5645 62.1735 97.236C62.1735 96.9075 61.9092 96.6411 61.5831 96.6411H61.2064V94.6735C61.5001 94.6017 61.7739 94.4784 62.0172 94.3125L65.4077 97.7287L65.6788 99.5432C65.723 99.8382 65.9747 100.05 66.262 100.05C66.2912 100.05 66.3209 100.047 66.3507 100.043C66.6731 99.994 66.8951 99.691 66.8466 99.3661L66.6606 98.1215L67.8676 98.3046C67.8975 98.3092 67.9271 98.3113 67.9563 98.3113C68.2435 98.3113 68.4953 98.0999 68.5394 97.8049C68.588 97.48 68.3659 97.177 68.0435 97.1281L66.2047 96.8491L62.8139 93.4328C62.9192 93.2403 62.9998 93.0323 63.0525 92.8135H65.0171V93.1931C65.0171 93.5216 65.2814 93.788 65.6074 93.788C65.9335 93.788 66.1978 93.5216 66.1978 93.1931V92.8135H67.0157L68.8082 94.5227C68.9223 94.6316 69.0682 94.6855 69.2139 94.6855C69.3704 94.6855 69.5267 94.6232 69.6428 94.4995C69.8669 94.2609 69.8567 93.8845 69.6199 93.6586L68.7337 92.8135H70.1062C70.4323 92.8135 70.6967 92.5472 70.6967 92.2186C70.6964 91.8903 70.4321 91.6239 70.1059 91.6239ZM60.6158 93.5552C59.9157 93.5552 59.3409 93.0058 59.2929 92.3125C59.2977 92.2818 59.301 92.2507 59.301 92.2188C59.301 92.1867 59.2977 92.1556 59.2929 92.125C59.3409 91.4315 59.9157 90.882 60.6158 90.882C61.3473 90.882 61.9424 91.4816 61.9424 92.2186C61.9424 92.9556 61.3473 93.5552 60.6158 93.5552Z" fill="white"/>
<path d="M97.033 89.4764H95.4011L96.453 88.4588C96.7354 88.1858 96.7445 87.7339 96.4735 87.4495C96.2026 87.165 95.7541 87.1559 95.4718 87.4289L93.3549 89.4764H92.343V89.0208C92.343 88.6266 92.0257 88.307 91.6345 88.307C91.2432 88.307 90.926 88.6266 90.926 89.0208V89.4764H88.5686C88.4952 89.1711 88.3765 88.8836 88.2191 88.6221L92.2827 84.5276L94.4437 84.1997C94.8307 84.141 95.0972 83.7774 95.0389 83.3875C94.9807 82.9977 94.6197 82.7293 94.2328 82.7879L92.7505 83.0128L92.9686 81.5533C93.0268 81.1634 92.7604 80.7998 92.3735 80.7411C91.9866 80.6825 91.6256 80.9509 91.5674 81.3408L91.2351 83.5641L87.2208 87.6089C86.956 87.4442 86.664 87.32 86.3534 87.2441V84.8829H86.8055C87.1967 84.8829 87.514 84.5632 87.514 84.169C87.514 83.7748 87.1967 83.4551 86.8055 83.4551H86.3534V82.4662L88.3889 80.299C88.6579 80.0127 88.6455 79.5609 88.3614 79.2899C88.0773 79.0189 87.6289 79.0313 87.3598 79.3177L86.3534 80.3891V78.7295C86.3534 78.3353 86.0362 78.0156 85.6449 78.0156C85.2536 78.0156 84.9365 78.3353 84.9365 78.7295V80.3739L83.9264 79.3139C83.6554 79.0295 83.207 79.0203 82.9247 79.2933C82.6424 79.5663 82.6333 80.0182 82.9043 80.3026L84.9364 82.4356V83.4551H84.4843C84.093 83.4551 83.7758 83.7748 83.7758 84.169C83.7758 84.5632 84.093 84.8829 84.4843 84.8829H84.9364V87.2441C84.6757 87.3078 84.428 87.4053 84.1987 87.5325L80.2005 83.5041L79.8683 81.2807C79.8101 80.8908 79.4492 80.6225 79.0623 80.6811C78.6753 80.7398 78.4089 81.1034 78.4672 81.4932L78.6853 82.9527L77.203 82.7278C76.8161 82.6693 76.4551 82.9376 76.3969 83.3275C76.3387 83.7173 76.6051 84.081 76.992 84.1396L79.153 84.4675L83.1509 88.4958C82.9534 88.7901 82.8065 89.1212 82.7211 89.4763H80.3917V89.0207C80.3917 88.6265 80.0745 88.3069 79.6832 88.3069C79.2919 88.3069 78.9747 88.6265 78.9747 89.0207V89.4763H77.9932L75.8423 87.4253C75.5582 87.1543 75.1097 87.1668 74.8407 87.4531C74.5718 87.7394 74.5841 88.1913 74.8683 88.4622L75.9317 89.4763H74.2847C73.8934 89.4764 73.5762 89.796 73.5762 90.1903C73.5762 90.5845 73.8934 90.9041 74.2847 90.9041H75.9166L74.8647 91.9216C74.5824 92.1946 74.5733 92.6465 74.8442 92.931C74.9833 93.0769 75.1692 93.1504 75.3554 93.1504C75.5319 93.1504 75.7086 93.0843 75.846 92.9515L77.9629 90.904H78.9748V91.3595C78.9748 91.7538 79.292 92.0734 79.6833 92.0734C80.0745 92.0734 80.3917 91.7538 80.3917 91.3595V90.904H82.7212C82.7965 91.2169 82.9198 91.5111 83.0833 91.7778L79.0847 95.8068L76.8781 96.1415C76.4912 96.2002 76.2248 96.5639 76.283 96.9537C76.3359 97.3076 76.638 97.5614 76.9827 97.5614C77.0178 97.5614 77.0534 97.5587 77.0891 97.5533L78.5376 97.3336L78.3144 98.8271C78.2562 99.217 78.5226 99.5806 78.9095 99.6393C78.9453 99.6447 78.9808 99.6473 79.0159 99.6473C79.3606 99.6473 79.6628 99.3935 79.7156 99.0397L80.041 96.8622L84.0889 92.7837C84.3484 92.9423 84.6337 93.0619 84.9366 93.1359V95.4971H84.4845C84.0932 95.4971 83.776 95.8167 83.776 96.211C83.776 96.6052 84.0932 96.9248 84.4845 96.9248H84.9366V97.9138L82.901 100.081C82.6321 100.367 82.6444 100.819 82.9286 101.09C83.0656 101.221 83.2407 101.286 83.4155 101.286C83.6034 101.286 83.7908 101.211 83.9301 101.062L84.9366 99.991V101.65C84.9366 102.045 85.2538 102.364 85.6451 102.364C86.0364 102.364 86.3536 102.045 86.3536 101.65V100.006L87.3635 101.066C87.6344 101.351 88.0829 101.36 88.3652 101.087C88.6474 100.814 88.6566 100.362 88.3857 100.077L86.3536 97.9444V96.9248H86.8056C87.1968 96.9248 87.5141 96.6051 87.5141 96.211C87.5141 95.8167 87.1968 95.497 86.8056 95.497H86.3536V93.1359C86.7059 93.0498 87.0346 92.9017 87.3265 92.7028L91.3952 96.8022L91.7205 98.9796C91.7734 99.3335 92.0755 99.5873 92.4203 99.5873C92.4553 99.5873 92.4908 99.5847 92.5266 99.5792C92.9135 99.5206 93.18 99.1569 93.1217 98.7671L92.8986 97.2736L94.347 97.4933C94.3828 97.4987 94.4183 97.5014 94.4535 97.5014C94.7981 97.5014 95.1002 97.2475 95.1531 96.8936C95.2113 96.5038 94.945 96.1401 94.558 96.0815L92.3514 95.7468L88.2826 91.6471C88.4089 91.416 88.5056 91.1666 88.5688 90.9039H90.9263V91.3594C90.9263 91.7537 91.2435 92.0734 91.6348 92.0734C92.026 92.0734 92.3433 91.7537 92.3433 91.3594V90.9039H93.3248L95.4756 92.955C95.6127 93.0856 95.7878 93.1504 95.9626 93.1504C96.1504 93.1504 96.3379 93.0755 96.4773 92.9272C96.7462 92.6409 96.7339 92.1891 96.4497 91.918L95.3863 90.9039H97.0333C97.4246 90.9039 97.7418 90.5843 97.7418 90.1901C97.7415 89.796 97.4244 89.4764 97.033 89.4764ZM85.6448 91.794C84.8047 91.794 84.115 91.1347 84.0573 90.3027C84.0631 90.2659 84.067 90.2286 84.067 90.1903C84.067 90.1518 84.0631 90.1145 84.0573 90.0777C84.1149 89.2455 84.8047 88.5861 85.6448 88.5861C86.5225 88.5861 87.2367 89.3057 87.2367 90.1901C87.2367 91.0745 86.5225 91.794 85.6448 91.794Z" fill="white"/>
<path d="M86.0464 116.383H84.2979L85.4251 115.293C85.7275 115 85.7372 114.516 85.4469 114.211C85.1566 113.906 84.6761 113.897 84.3736 114.189L82.1056 116.383H81.0213V115.895C81.0213 115.472 80.6814 115.13 80.2622 115.13C79.843 115.13 79.5032 115.472 79.5032 115.895V116.383H76.9774C76.8987 116.056 76.7715 115.748 76.6029 115.468L80.9568 111.081L83.2721 110.729C83.6868 110.666 83.9722 110.277 83.9098 109.859C83.8474 109.441 83.4607 109.154 83.0461 109.217L81.458 109.458L81.6917 107.894C81.7541 107.476 81.4685 107.087 81.054 107.024C80.6395 106.961 80.2527 107.248 80.1904 107.666L79.8344 110.048L75.5333 114.382C75.2496 114.206 74.9367 114.072 74.604 113.991V111.461H75.0883C75.5075 111.461 75.8474 111.119 75.8474 110.696C75.8474 110.274 75.5075 109.932 75.0883 109.932H74.604V108.872L76.7849 106.55C77.0731 106.243 77.0598 105.759 76.7553 105.469C76.4509 105.178 75.9705 105.192 75.6823 105.499L74.604 106.647V104.868C74.604 104.446 74.2641 104.104 73.8449 104.104C73.4256 104.104 73.0857 104.446 73.0857 104.868V106.63L72.0036 105.495C71.7133 105.19 71.2327 105.18 70.9303 105.472C70.6279 105.765 70.6181 106.249 70.9085 106.554L73.0856 108.839V109.932H72.6013C72.1821 109.932 71.8423 110.274 71.8423 110.696C71.8423 111.119 72.1821 111.461 72.6013 111.461H73.0856V113.991C72.8064 114.059 72.541 114.164 72.2952 114.3L68.0116 109.984L67.6557 107.602C67.5933 107.184 67.2065 106.897 66.792 106.959C66.3775 107.022 66.092 107.412 66.1544 107.83L66.3881 109.393L64.7999 109.152C64.3854 109.09 63.9986 109.377 63.9363 109.795C63.8739 110.213 64.1593 110.602 64.5739 110.665L66.8893 111.016L71.1727 115.332C70.9611 115.647 70.8037 116.002 70.7122 116.383H68.2164V115.895C68.2164 115.472 67.8765 115.13 67.4573 115.13C67.0381 115.13 66.6982 115.472 66.6982 115.895V116.383H65.6466L63.342 114.185C63.0376 113.895 62.5572 113.908 62.269 114.215C61.9808 114.522 61.994 115.006 62.2985 115.296L63.4378 116.383H61.6732C61.2539 116.383 60.9141 116.725 60.9141 117.148C60.9141 117.57 61.2539 117.913 61.6732 117.913H63.4217L62.2946 119.003C61.9921 119.295 61.9824 119.78 62.2727 120.084C62.4217 120.241 62.6209 120.319 62.8204 120.319C63.0095 120.319 63.1988 120.249 63.346 120.106L65.6141 117.913H66.6983V118.401C66.6983 118.823 67.0382 119.165 67.4574 119.165C67.8766 119.165 68.2165 118.823 68.2165 118.401V117.913H70.7124C70.793 118.248 70.9251 118.563 71.1003 118.849L66.8161 123.165L64.4519 123.524C64.0373 123.587 63.7519 123.977 63.8143 124.394C63.871 124.773 64.1946 125.045 64.5639 125.045C64.6015 125.045 64.6397 125.043 64.6779 125.037L66.2299 124.801L65.9908 126.402C65.9284 126.819 66.2138 127.209 66.6284 127.272C66.6667 127.278 66.7047 127.28 66.7424 127.28C67.1116 127.28 67.4354 127.008 67.4921 126.629L67.8407 124.296L72.1777 119.926C72.4557 120.096 72.7614 120.225 73.0859 120.304V122.834H72.6015C72.1823 122.834 71.8425 123.176 71.8425 123.598C71.8425 124.021 72.1823 124.363 72.6015 124.363H73.0859V125.423L70.905 127.745C70.6168 128.052 70.63 128.536 70.9345 128.826C71.0813 128.966 71.2688 129.036 71.4562 129.036C71.6574 129.036 71.8584 128.955 72.0076 128.796L73.0859 127.649V129.427C73.0859 129.849 73.4258 130.191 73.8451 130.191C74.2643 130.191 74.6042 129.849 74.6042 129.427V127.665L75.6862 128.8C75.9765 129.105 76.457 129.115 76.7594 128.823C77.0619 128.53 77.0717 128.046 76.7814 127.741L74.6041 125.456V124.363H75.0885C75.5077 124.363 75.8476 124.021 75.8476 123.598C75.8476 123.176 75.5077 122.834 75.0885 122.834H74.6041V120.304C74.9817 120.212 75.3338 120.053 75.6466 119.84L80.0058 124.232L80.3545 126.565C80.4111 126.944 80.7348 127.216 81.1041 127.216C81.1417 127.216 81.1798 127.213 81.2181 127.207C81.6327 127.145 81.9182 126.755 81.8557 126.337L81.6166 124.737L83.1686 124.972C83.2069 124.978 83.2449 124.981 83.2826 124.981C83.6518 124.981 83.9756 124.709 84.0322 124.33C84.0946 123.912 83.8092 123.523 83.3946 123.46L81.0304 123.101L76.671 118.709C76.8062 118.461 76.9099 118.194 76.9776 117.912H79.5035V118.4C79.5035 118.823 79.8433 119.165 80.2625 119.165C80.6817 119.165 81.0216 118.823 81.0216 118.4V117.912H82.0733L84.3778 120.11C84.5246 120.25 84.7122 120.319 84.8994 120.319C85.1007 120.319 85.3016 120.239 85.4509 120.08C85.739 119.773 85.7259 119.289 85.4214 118.999L84.2821 117.912H86.0467C86.4659 117.912 86.8058 117.57 86.8058 117.148C86.8055 116.725 86.4657 116.383 86.0464 116.383ZM73.8448 118.866C72.9446 118.866 72.2056 118.16 72.1439 117.268C72.15 117.229 72.1542 117.189 72.1542 117.148C72.1542 117.107 72.15 117.067 72.1439 117.027C72.2056 116.136 72.9446 115.429 73.8448 115.429C74.7852 115.429 75.5503 116.2 75.5503 117.148C75.5503 118.095 74.7852 118.866 73.8448 118.866Z" fill="#FFAF3E"/>
<path d="M23.016 111.983C24.217 109.512 23.191 106.539 20.7244 105.343C18.2578 104.147 15.2847 105.18 14.0837 107.651L23.016 111.983ZM7.44972 121.3C6.24876 123.771 7.27476 126.744 9.74135 127.94C12.2079 129.136 15.1811 128.103 16.382 125.632L7.44972 121.3ZM14.0837 107.651L7.44972 121.3L16.382 125.632L23.016 111.983L14.0837 107.651Z" fill="#FFAF3E"/>
<path d="M53.1976 109.747C54.3986 107.276 53.3727 104.303 50.906 103.107C48.4394 101.91 45.4663 102.943 44.2653 105.414L53.1976 109.747ZM37.6314 119.063C36.4304 121.534 37.4564 124.507 39.923 125.704C42.3896 126.9 45.3627 125.867 46.5637 123.396L37.6314 119.063ZM44.2653 105.414L37.6314 119.063L46.5637 123.396L53.1976 109.747L44.2653 105.414Z" fill="#FFAF3E"/>
<path d="M37.6644 115.546C38.8654 113.075 37.8395 110.102 35.3728 108.905C32.9062 107.709 29.9331 108.742 28.7321 111.213L37.6644 115.546ZM22.0982 124.862C20.8972 127.333 21.9232 130.306 24.3898 131.503C26.8564 132.699 29.8295 131.666 31.0305 129.195L22.0982 124.862ZM28.7321 111.213L22.0982 124.862L31.0305 129.195L37.6644 115.546L28.7321 111.213Z" fill="#FFAF3E"/>
<path d="M105.553 112.067C106.754 109.596 105.728 106.623 103.261 105.427C100.795 104.231 97.8218 105.264 96.6208 107.735L105.553 112.067ZM89.9868 121.384C88.7859 123.855 89.8119 126.828 92.2785 128.024C94.7451 129.22 97.7182 128.187 98.9191 125.716L89.9868 121.384ZM96.6208 107.735L89.9868 121.384L98.9191 125.716L105.553 112.067L96.6208 107.735Z" fill="#FFAF3E"/>
<path d="M127.993 111.569C129.194 109.098 128.168 106.125 125.701 104.929C123.234 103.732 120.261 104.766 119.06 107.237L127.993 111.569ZM112.426 120.886C111.225 123.357 112.251 126.33 114.718 127.526C117.185 128.722 120.158 127.689 121.359 125.218L112.426 120.886ZM119.06 107.237L112.426 120.886L121.359 125.218L127.993 111.569L119.06 107.237Z" fill="#FFAF3E"/>
<path d="M135.715 56.2757C135.715 67.642 126.57 76.8563 115.289 76.8563C104.008 76.8563 94.8633 67.642 94.8633 56.2757C94.8633 44.9095 104.008 35.6953 115.289 35.6953C126.57 35.6953 135.715 44.9095 135.715 56.2757Z" fill="#FFAF3E"/>
<path d="M120.544 4.96913C120.544 2.22476 118.319 0 115.575 0C112.83 0 110.605 2.22476 110.605 4.96913H120.544ZM110.605 28.1583C110.605 30.9028 112.83 33.1275 115.575 33.1275C118.319 33.1275 120.544 30.9028 120.544 28.1583H110.605ZM110.605 4.96913V28.1583H120.544V4.96913H110.605Z" fill="#FFAF3E"/>
<path d="M164.48 60.9539C167.224 60.9539 169.449 58.7291 169.449 55.9847C169.449 53.2404 167.224 51.0156 164.48 51.0156L164.48 60.9539ZM141.465 51.0156C138.721 51.0156 136.496 53.2404 136.496 55.9847C136.496 58.7291 138.721 60.9539 141.465 60.9539L141.465 51.0156ZM164.48 51.0156L141.465 51.0156L141.465 60.9539L164.48 60.9539L164.48 51.0156Z" fill="#FFAF3E"/>
<path d="M148.938 28.2668C150.904 26.3528 150.959 23.1951 149.06 21.214C147.161 19.2329 144.027 19.1786 142.06 21.0927L148.938 28.2668ZM129.977 32.8521C128.01 34.7662 127.956 37.9238 129.855 39.9049C131.754 41.886 134.888 41.9403 136.855 40.0263L129.977 32.8521ZM142.06 21.0927L129.977 32.8521L136.855 40.0263L148.938 28.2668L142.06 21.0927Z" fill="#FFAF3E"/>
<path d="M94.0378 39.0162C95.971 40.9641 99.1054 40.9641 101.039 39.0162C102.972 37.0683 102.972 33.9102 101.039 31.9623L94.0378 39.0162ZM89.1599 19.9936C87.2267 18.0457 84.0923 18.0457 82.1591 19.9936C80.2259 21.9415 80.2259 25.0996 82.1591 27.0475L89.1599 19.9936ZM101.039 31.9623L89.1599 19.9936L82.1591 27.0475L94.0378 39.0162L101.039 31.9623Z" fill="#FFAF3E"/>
<path d="M142.366 89.4527C144.299 91.4006 147.434 91.4006 149.367 89.4527C151.3 87.5048 151.3 84.3467 149.367 82.3988L142.366 89.4527ZM137.488 70.4301C135.555 68.4823 132.42 68.4822 130.487 70.4301C128.554 72.378 128.554 75.5361 130.487 77.484L137.488 70.4301ZM149.367 82.3988L137.488 70.4301L130.487 77.484L142.366 89.4527L149.367 82.3988Z" fill="#FFAF3E"/>
<path d="M89.109 60.9539C91.8534 60.9539 94.0781 58.7291 94.0781 55.9847C94.0781 53.2404 91.8534 51.0156 89.109 51.0156L89.109 60.9539ZM66.0941 51.0156C63.3498 51.0156 61.125 53.2404 61.125 55.9847C61.125 58.7291 63.3497 60.9539 66.0941 60.9539L66.0941 51.0156ZM89.109 51.0156L66.0941 51.0156L66.0941 60.9539L89.109 60.9539L89.109 51.0156Z" fill="#FFAF3E"/>
</g>
<defs>
<clipPath id="clip0_735_6267">
<rect width="169" height="132" fill="white" transform="translate(0.5)"/>
</clipPath>
</defs>
</svg>
